<svg xmlns="http://www.w3.org/2000/svg" xmlns:xlink="http://www.w3.org/1999/xlink" version="1.1" x="0px" y="0px" viewBox="0 0 792 928.75" enable-background="new 0 0 792 743" xml:space="preserve"><g><path fill="#FFFFFF" stroke="#FFFFFF" stroke-miterlimit="10" d="M397.583,82.75l1.75-1.167l1.25-1.083l0.834-1l1.416-1.667   L404,76.667l0.583-1.167v-0.917v-1.25L403.667,72l-0.75-1.167L402.5,69.75v-1.083L402.583,66l0.834-1.583l0.666-0.75l1.084-1.083   l1.333-1.25l1.667-1.083l1.333-1l1.5-1.417h1.25h0.917l1.166-0.333l1.084-0.583l0.833-0.75L417,55.5l1.25-0.667h1.083h2.834   l0.416,0.417L423.25,56l1.167,0.5l0.916,0.167l1.167,0.5l1.167,0.333l0.75,0.417l1.416,0.833l0.75,0.833v0.583l0.834,1.25v0.75   l1.25,0.25l1.416,0.083H435l1.167,0.25l1.333,0.583l0.583,0.333L440,64.083l1.917-0.167l1.333-0.083h1.5l2,0.083L449,64l0.75,0.75   l0.417,0.667v0.417l1.333,0.417l1-0.333v-0.333l0.917-0.667l0.666-0.667c0,0,0.5,0,0.75,0s1.166,0,1.5,0s0.917,0.25,0.917,0.25   l1.667,0.333L459.75,65l1.167,0.417l1.25,0.083l1,0.083h1.333c0,0,1.833,0.083,2.083,0.167s1.084,0.167,1.084,0.167l1.166,0.5   L469.5,67c0,0,0.417,0.5,0.75,0.583s0.833,0.25,0.833,0.25h1.167l1.167,0.083c0,0,0.332,0.333,0.666,0.5s0.5,0.75,0.5,0.75l1,0.25   l0.917-0.167l0.333-0.458v-0.375l0.5-0.5v-0.25l0.834-0.5l0.75,0.083v0.833l1.166,0.708h1L481.917,70c0,0,0.584,0.167,0.75,0.417   S483.583,71,483.583,71l0.584,0.083l0.666-0.333v-0.333l0.834-0.667l0.916-0.583L487,68.792l1-1.042l0.917-0.75l0.5-0.667   l0.75-0.917l0.666-0.5l0.917-0.833l0.833-0.75l0.667-0.417h0.917L494.583,63l0.917,0.333l1.583-0.083l1-0.833l1-0.583l0.5-0.75   l0.5-0.917l0.5-0.25l1.25-0.083l0.75,0.583v0.833l0.834,1L504,62.417l0.75-0.167l0.417-0.417l1.166-0.583l1.084-0.75l0.75,0.083   l0.583,0.75l0.5,0.667v0.75l-0.917,0.5h-0.916l0.5,0.667l1.333,0.25l0.667,0.667v0.25l0.833-0.417v-0.75l1.667-0.5   c0,0,1,0.25,1.083,0.583s0.5,0.75,0.5,0.75l0.75,0.333H516h1.333l0.917-0.333l1.417-0.667l1.083-0.25l0.833,0.333l1.5-0.417   l0.417-0.583l0.917-0.75l1.166-0.833l0.75-0.667l1.167-0.667l0.833,0.333l0.75,1.25l0.417,1.083l0.417,1.333L530.75,65l0.917,1.083   l0.416,1.417l0.5,1.292L533.167,70l0.583,1.167l0.667,0.917l0.833,1.333l1,0.917l0.5,1.333c0,0-0.417,0.833,0,1.25s0,1.833,0,1.833   l0.186,1.25v0.917v0.917l-0.603,0.25l-0.416,0.083l-0.167,0.583l-0.083,1.583l-0.25,1.25l-0.084,1.083l0.084,1.083l0.083,0.75   l-0.167,0.5l-0.666,0.583l-0.25,0.583l-0.084,1.25l-0.083,1l0.25,2L535.333,95l0.084,1l-0.167,0.417l-0.667,0.5l-0.75,0.667   l-0.75,0.667l-0.583,0.417l-0.333,0.5h-0.5l-0.917-0.5c0,0-0.667-0.417-0.917-0.583s-1.25-0.667-1.25-0.667l-0.916-0.75l-0.917-1   L526.5,95l-1-1l-0.667-1l-0.333-0.583l-0.417-0.75l-1.25-0.833l-0.666-0.5L521.5,89.25l-0.417-1l-0.333-1.5l-0.417-0.667l-0.75-1.5   L519,83.917l-0.583-0.333l-0.167-0.417l-0.917-1l-0.25-0.5l-0.833-1.583l-0.583-0.667l-0.5-0.833l-0.5-0.5l-0.334,0.5l0.334,0.917   l0.5,1.083l0.5,0.417l0.833,0.75l0.417,1.083L517.25,84l0.167,0.583l-0.25,0.667v1l0.25,1.083c0,0,0.167,0.75,0.5,0.917   s1.166,0.583,1.166,0.583l0.75,0.417l0.917,0.583l0.75,1.083l0.75,0.75l0.333,0.583l0.375,0.792l0.667,0.458l0.458,0.5l0.5,0.542   l0.292,0.333l0.292,0.25l0.5,0.375l0.25,0.417l0.625,0.5l0.166,0.25c0,0,0.209,0.625,0.334,0.75s0.708,0.792,0.708,0.792   l0.542,0.417l0.625,0.167L529.5,99l0.917,0.167l0.958,0.625l0.5,0.333l-0.042,0.583l-0.375,0.625c0,0,0,0.417-0.208,0.417   s-0.667,0-0.667,0s-0.541,0.083-0.666,0s-0.375,0.199-0.5,0.037s-0.375-0.121-0.375-0.121l-0.292,0.583   c0,0-0.041,0.333,0.167,0.417s0.958,0.25,0.958,0.25l0.375,0.375l0.125,0.292l0.542,0.958l0.291,0.333l0.417,0.583   c0,0,0.208,0.25,0.333,0.333s0.542,0.375,0.667,0.458s0-0.208,0.125,0.083s0.251,0.542,0.167,0.667s-0.167,0.458-0.167,0.458   s-0.208,0.333-0.375,0.417s-0.167,0.083-0.167,0.083s-0.334,0.083-0.375,0.333s-0.125,0.292-0.125,0.417s0.083,0.375,0.375,0.583   s0.084-0.042,0.292,0.208s-0.001-0.083,0.208,0.25s0.5,0.375,0.625,0.667s0.459,0.708,0.459,0.708l1.208,0.625v0.458   c0,0-0.001,0.125,0.083,0.25s-0.084,0.292,0.125,0.375s0.376,0.666,0.459,0.833s0.375,0.708,0.375,0.708l0.208,0.375l0.333,0.292   l0.209,0.458c0,0,0.246,0.458,0.269,0.583s0.23,0.458,0.272,0.583s0.334,0.375,0.417,0.5s0.251,0.292,0.292,0.417   s-0.375,0.208,0,0.333s1.708,1.083,1.708,1.083l0.25,0.625v0.833l0.667,0.542v0.417l0.416,0.292l0.292,0.542l0.25,0.458   l0.292,0.542l0.375,0.375l0.583,0.833l0.458,0.625l0.459,0.375l0.208,0.333l0.458,0.583c0,0,0.458,0.583,0.625,0.75   s0.543,0.458,0.584,0.583s0.499,0.708,0.666,0.833s0.918,0.834,1.084,0.917s0.458,0.292,0.583,0.417s0.417,0.292,0.5,0.417   s0.624,0.584,0.958,0.792s0.75,0.792,0.75,0.792l0.5,0.292l0.625,0.458l0.792,0.583l0.167,0.292l0.25,0.375v0.333v0.375   c0,0-0.041,0.042,0,0.25s0,0.333,0,0.333s-0.25,0.125-0.375,0.167s-0.416,0.208-0.5,0.333s-0.334,0.292-0.334,0.292l-0.458,0.292   c0,0-1.042,1.083-1.042,1.25s0.084,0.417,0.084,0.417s0.209,0.125,0.25,0.25s0.5,0.75,0.5,0.75h0.291c0,0,1.083,0.667,1.375,0.792   s0.126-0.292,0.459,0s0.625,0.5,0.625,0.5l0.583,0.667l0.938,0.75c0,0,0.375,0.375,0.438,0.562s0.75,0,0.75,0l0.625,0.75l1,0.312   l1.375,0.938c0.375,0.25,1.062,0.75,1.062,0.75l0.375,0.375l0.375,0.375l1.188,1.5l0.812,0.625c0,0,0.125-0.312,0.312,0   s1.188,0.812,1.188,0.812s-0.75,0.125,0,0.312s1.25,0.5,1.25,0.5v0.688c0,0-0.188,0.562,0,0.75s0,0.938,0,0.938l0.083,0.562v0.75   v0.688v0.562v0.25h0.479v0.438c0,0,0.312,0.125,0.5,0.312s0.625,0.5,0.625,0.5s0.188,0.25,0.375,0.375s0.812,0.25,1,0.562   s0.562,0.5,0.562,0.5l0.688,0.812c0,0-0.25,0.375,0,0.562s0.375,0.75,0.375,0.75v0.438l-0.312,0.5   c-0.438,0.188-0.062,0.125-0.438,0.188s-0.625-0.25-0.812,0s0.062-0.125-0.188,0.25s-0.25,0.375-0.25,0.375l0.188,1.188   l0.125,1.312l0.375,0.625l0.062,0.812v0.688l-0.188,0.5l-0.312,1l-0.062,0.75v0.562c0,0,0,0.438,0,0.625s0.188,0.125,0.312,0.438   s0.438,0.375,0.438,0.688s0.062,0.75,0.062,0.75l0.125,1l0.062,1.188l-0.125,1.25l0.062,0.5c0,0,0.75,0.5,0.875,0.688   s0.625,1.562,0.625,1.562v0.938c0,0-0.25,0.188,0,0.438s0.25,0.438,0.438,0.688s0.25,0.312,0.438,0.562s0.625,1.25,0.625,1.25   s0.375,0.25,0.5,0.5s0.25,0.25,0.562,0.5s1.25,0.875,1.25,0.875s-0.125-0.5,0.375,0s2,1.062,2,1.062s0.688,0.312,0.875,0.438   s0.438,0.125,0.625,0.312s1,1,1,1s0.625,0.125,0.812,0.438s1,0.625,1,0.625l0.875,0.625l2.375,1.5v0.75l0.5,0.562v0.688   c0,0,0.75,1.062,0.938,1.188s0.188,0.125,0.188,0.125s0.438,0.812,0.562,1s0.375,0.562,0.375,0.562v0.375l0.875,1.125l0.5,1   l0.375,0.5v0.562l0.5,0.5v1.375l0.5,0.688l0.438,0.562l0.292,0.667c0,0-0.125-0.042,0,0.125s0.167-0.167,0.125,0.167   s0.073,0.375,0.016,0.542s0.025-0.25-0.058,0.167s-0.083,0.417-0.083,0.417s0.106,0.542,0.157,0.75s-0.093,0.333,0,0.542   s0.177,0.334,0.343,0.792s0.625,0.833,0.708,1.167s0.417,0.625,0.417,0.625s0.082,0.167,0.541,0.25s1.875,0,1.875,0l0.334,0.037   l0.416-0.371l0.542-0.542l1.188-0.771c0,0,0.125-0.125,0.312-0.188s0.688-0.875,0.688-0.875l1.188-0.562c0,0,0.312-0.062,0.5-0.062   s0.75,0,0.75,0l0.438,1.062v1.062v0.688l0.312,1.25l0.438,0.75c0,0-0.625,0.062,0,0.375s2,0.562,2,0.562h0.562h0.438l0.688,0.438   l1,0.875l0.562,0.5c0,0-0.25-0.25,0,0.188s0.5,0.688,0.688,0.75s0.375,0.438,0.375,0.438l0.312,0.562c0,0-0.062,0.125,0,0.312   s0.312,0.438,0,0.625s-0.312,0.188-0.312,0.188s-0.438,0.438-0.688,0.562s-0.562,0.438-0.562,0.438s-1.312,0.562-1.562,0.812   s-0.25,0.25-0.25,0.25l-1.062,0.75v0.312l0.25,0.5l0.375,0.438h0.938l0.5,0.438c0,0,0.375-0.375,0.562,0s0.188,0.375,0.188,0.375   l1.312,0.75c0,0,0.184,0.562,0.467,0.625s0.783,0,0.783,0s0.688,0.438,0.875,0.5s0.938,0,0.938,0l0.312,0.438l0.438,0.625   l0.75,0.688h0.25l0.688,1.188V224c0,0,0.375,0.312,0.625,0.438s0.75,0.562,0.938,0.812s0.562,0.875,0.562,0.875   s0.562,0,0.625,0.312s0.188,0.812,0.375,0.938s-0.125-0.312,0.188,0.125s0.75,0.75,0.75,0.75h0.25c0,0,0.688-0.188,0.938,0   s0.812,0.188,1.062,0.312s1.062,0.375,1.062,0.375v0.75c0,0,0.188,0.062,0.5,0.375s0.875,0.938,0.875,0.938l0.625,0.562   c0,0,0.25,0.125,0.312,0.312s0.562,0.75,0.562,0.75v0.438l1.312,1.125v0.312l1.312,0.625l1,0.5l1.25,0.625c0,0,0.125-0.375,0.312,0   s1.875,0.875,1.875,0.875s0.438,0.188,0.5,0.375s1.062,1.188,1.062,1.188h0.375c0,0,0.125,0.812,0,1s0.056,0.5,0.056,0.5   s-0.306-0.312-0.431,0s-0.188,0.875,0.062,1.062s0.25,0.188,0.25,0.188s1.062,0.562,1.188,0.75s0.625,0.5,0.688,0.688   s0.875,1.375,0.875,1.375l0.375,0.5v0.938c0,0,0.312,0.062,0.312,0.375s-0.438,1.562-0.438,1.562l-0.062,0.312l-0.188,0.438   l-0.438,0.375l-0.375,0.438c0,0-0.312-0.375-0.5,0s-0.875,0.75-0.875,0.75l-0.5,0.312c0,0-0.125-0.062-0.25,0.312   s-0.25,0.312,0.062,0.688s1.188,1.438,1.188,1.438s1.125,0.688,1.375,0.75s1.125,0.125,1.375,0.562s0.5,0.5,0.5,0.75   s0.375,0.875,0.375,0.875v0.5l0.5,0.75h0.438c0,0-0.312,0.375,0,0.562s1,0.688,1,0.688l0.375,0.438l0.438,0.688   c0,0,0.5,0.375,0.562,0.562s0.375,0.562,0.375,0.562s0.438,0.375,0.562,0.625s0.938,0.625,1.062,0.812s-0.188-0.188,0.125,0.188   s0.625,0.062,1,0.562s0.562,0.625,0.75,0.812s-0.125,0.312,0.562,0.375s2.125,0,2.125,0l1,0.028l0.938,0.41c0,0,1.312,0,1.5,0   s0.625-0.438,0.938-0.5s0.875-0.375,0.875-0.375s0.625-0.062,0.812-0.125s0.688-0.5,0.875-0.688s0.938-0.438,1.188-0.5   s0.75-0.312,0.75-0.312l0.625-0.562c0,0,0.25-0.375,0.562-0.5s0.75-0.438,0.75-0.438s0.562-0.562,0.812-0.688   s0.188-0.375,0.438-0.5s0.375-0.625,0.75-0.625s0.75-0.188,0.812,0s0.375,0.5,0.375,0.5l1.125,0.75c0,0,0.062-0.125,0.312,0.062   s0.562,0.375,0.875,0.438s-0.188,0.125,0.312,0.062s1.062-0.25,1.25-0.188s1.125,0.5,1.125,0.5l0.438,0.188   c0.438,0,1.625-0.25,1.625-0.25l0.625-0.25l0.562-0.938l0.312-0.188l1.938-1.188l0.625-0.312c0,0,0.125-0.062,0.312-0.375   s0.375-0.5,0.875-0.625s1.625-0.812,1.812-0.812s0.812-0.125,0.812-0.125l2.438,0.312l4.5-2.062l1-0.312l0.562,0.438h0.5h2.062   c0,0,0.625,0,0.875-0.062s2.25-0.25,2.688-0.25s1,0.062,1.188,0.062s0.625,0,0.875-0.062s0.688-0.188,0.688-0.188l1.375-0.062   h0.625l0.688-0.5l0.812-0.188l0.625-0.125l1.625-0.312l0.812-0.438h2.438l0.812-0.562c0,0,0.625-0.5,0.812-0.75   s1.312-0.938,1.5-1.188s0.562-0.438,0.75-0.688s2.125-1.062,2.125-1.062l1-1.312c0,0,0.375-0.312,0.625-0.375   s1.062-0.062,1.062-0.062l0.625,0.25l1.188,0.312l1.688,0.562l0.562,0.562l0.438,0.562v0.625v0.562v0.625l-0.625,0.25l-0.5,0.5   l-0.312,0.625l-0.188,0.5l-0.062,0.812v0.625l0.438,0.938l0.5,0.438l0.375,0.625l-0.062,0.938c0,0,0.188,0.25-0.188,0.375   s-1.062,0.562-1.062,0.562l0.125,1.125l0.312,0.125c0.5,0.5,0.812,0.75,0.812,0.75l0.438,1.375v0.688l-0.375,0.562   c0,0-0.125,0-0.312,0s-0.938,0.125-1.062,0.375s-0.125,0.25-0.125,0.25s-0.75,0.375-1,0.625s-0.438,0.312-0.438,0.562   s0,0.625,0,0.625l-0.188,2.562c0,0-0.312,0.875-0.312,1.312s0.062,1.75,0.125,2s0.062,1,0.062,1s0.25,0.562,0.25,0.75   s0,1.312,0,1.312v0.375c0,0-0.5,0.375-0.688,0.625s-0.875,0.562-0.938,0.75s-0.25,0.438-0.25,0.625s-0.062,0.312-0.188,0.688   s-0.5,0.812-0.5,1s0.375,0.125-0.188,0.562s-1.125,0.562-1.188,0.75s0,1,0,1l-0.438,1.438l0.062,0.562l-0.438,0.938   c0,0-0.062,0.438-0.062,0.688s0.562,0.25-0.062,0.688s-0.375,0.125-0.625,0.438s-0.375,0.562-0.688,0.688s-0.5-0.438-0.625,0   s-0.5,0.688-0.5,0.688l-0.5,0.562l-0.625,0.562c0,0-0.125,0.312-0.312,0.438s-0.375,0.625-0.375,0.625l-0.938,0.688   c0,0-0.375,0.438-0.5,0.625s-0.312,0.312-0.375,0.5s-0.062,0.812-0.062,0.812v0.625c0,0,0.188,0.625,0.188,0.875   s0,0.812-0.062,1.062s-0.188,0.625-0.188,0.625l-0.188,0.5c0,0-0.75,0.688-1,1s0,0-0.25,0.312s-0.438,0.75-0.562,0.938   s-0.375,0.812-0.625,1.062s-0.312-0.125-0.688,0.875s-0.375,0.625-0.688,1.312s-0.312,0.812-0.438,1s-0.125,0.375-0.25,0.688   s0.312-0.062-0.375,0.812s-0.938,0.75-1,1.312s-0.062,1-0.062,1.375s0.125,0.688,0.188,1s0.062,1,0.062,1l-0.375,0.938   l-0.438,0.938c0,0-0.125,0.188-0.25,0.438s-0.375,0.375-0.438,0.688s-0.25,0.75-0.5,1.188s-0.312,0.625-0.438,0.812   S693,312,693,312s-0.688,0.875-0.875,1.125s-0.375,0.812-0.5,1.125s0,0.312-0.5,0.812s-1.375,1.75-1.375,1.75   s-0.375,0.188-0.438,0.375s-0.375,0.938-0.375,0.938s-0.188,0.438-0.562,0.812s-0.438,0.688-0.625,1.062s-0.438,0.75-0.562,0.938   s-0.375,0.812-0.5,1.125s-0.312,0.75-0.5,1.062s-1.125,1.438-1.312,1.812s-0.438,0.688-0.625,0.812s-0.562,0.375-1.125,0.625   s-0.938,0.438-1.375,0.812s-0.5,0.938-0.5,0.938s-0.312,0.312-0.438,0.625s-0.562,1.062-0.562,1.062l-0.062,0.438l-0.312,0.812   c0,0-1,0.625-1.062,0.938s-1.312,0.875-1.312,0.875l-0.25,0.875l-0.562,0.938l-0.188,0.688c0,0-0.5,0.375-0.625,0.562   s-0.438,0.562-0.438,0.562s-0.188,0.312-0.438,0.438s-0.688,0.5-0.938,0.688s-0.438,0.375-0.625,0.562s-0.125,0.5-0.562,0.75   s-0.625,0.875-0.812,1.125s-0.375,0.5-0.75,0.812s-0.875,0.688-0.875,0.688s-0.312,0.25-0.562,0.438s-1,0.688-1,0.688L668.438,343   l-0.625,0.438l-0.375,0.375c0,0-0.312,0.375-0.5,0.562s-0.875,0.938-0.875,0.938L665.625,346l-1.958,1c0,0-1.834,1.667-2.334,1.833   s-1,0.833-1,0.833s-2.166,1-2.666,1.5s-1.334,1-1.334,1l-1.666,1c0,0-1,1-1.667,1.833s-2.167,1.5-2.167,1.5l-1,1H648.5   c0,0-1.999,1.667-2.333,2.167S645,361,645,361s-0.333,0.667-1,1.167S642.833,363,642,364s-1.667,2.5-1.667,2.5l-0.833,0.833   c0,0-0.499,0.167-1.333,1.333s-2.334,2-2.334,2c-0.666,0.833-1.666,1.5-1.666,1.5C633.333,373,634.499,372,633.333,373   s-0.166,0.333-1.166,1s0.167-0.666-1,0.667S630,376.5,629.5,377s-0.667,2.166-1,2c-0.333-0.167-0.834,0.334-1.167,0.834   s1.5-2.333-0.333,0.5s-1.833,2.833-1.833,2.833l-0.5,1.5c0,0-0.5,0.333-0.667,1s-0.501,2.167-0.667,2.667s0.501-0.666-0.166,0.5   S623.333,389,622.5,390s-1.344,1.469-1.344,1.469l-0.438,1.031l-0.344,0.375l-0.188,0.344c0,0-0.938,0.906-1.031,0.906   s-0.438,0-0.438,0l-0.594-0.344l-0.562-0.375c0,0-0.281-0.219-0.312-0.344s-0.219-0.531-0.219-0.531s-0.062-0.25-0.219-0.312   s-0.688-0.344-0.781-0.344s-0.562,0.188-0.688,0.219s-0.594,0.469-0.594,0.469s0.219,0.281,0.281,0.469s0.219,0.281,0.281,0.406   s0.5,0.5,0.5,0.5s0.281,0.094,0.312,0.188s0.562,0.719,0.562,0.719l0.25,0.344l-0.25,1.031l-0.344,0.5c0,0-0.5,0.375-0.625,0.469   s-0.469,0.25-0.469,0.25l-0.469,0.25c0,0-0.25,0.188-0.312,0.281s-0.188,0.406-0.312,0.5s-0.219,0.156-0.531,0.219   s-0.906,0.125-1.188,0.156s-1.031,0.125-1.156,0.156s-0.156-0.094-0.25,0s-1.062,0.938-1.156,1.031s-0.438,0.406-0.5,0.562   s0,0.344-0.188,0.375s-0.781-0.125-0.938,0s-0.156,0.156-0.219,0.281s-0.062,0.75,0.031,0.844s0.469,0.219,0.562,0.25   s0.562,0.25,0.562,0.25s0,0.781-0.062,0.875s-0.25,0.312-0.625,0.5s-0.5,0.125-0.562,0.406s0,0.75,0.062,0.969   s0.375,1.156,0.344,1.281s-0.375,0.938-0.625,1s-1.219,0-1.219,0s-0.249,0.292-0.583,0.375s-0.084-0.334-0.334,0.083   s-0.25,1.25-0.25,1.25l0.25,0.584l0.167,1.166l-0.083,0.667l-0.25,0.667c0,0,0.749,0.25-0.334,0.5s-0.75-0.333-1.083,0.25   s-0.333,0.749-0.333,1.166s0,0.501,0.083,0.834s0.167,0.583,0.167,0.833s-0.084,0.751-0.417,0.917s-0.583,0.666-0.833,0.916   s0.25-0.084-0.25,0.25s-0.584,0.917-0.667,1.167s-0.5,0.833-0.5,0.833l-1,0.834l-0.667,0.416c0,0,0,0.667-0.083,0.917   s-0.417,0.917-0.417,0.917s-0.083,0.916-0.333,1.333s-0.333,1.25-0.333,1.25s0,0.167,0,0.417s0.083,0.916,0.083,1.166   s0,0.917,0,0.917s0.083,0.499-0.167,0.833s-0.833,0.834-0.833,0.834s-0.167-0.666-0.417,0s0.25-0.001-0.25,0.666   s-0.666,1-0.916,1.5S595.583,434,595.583,434l0.084,0.833c0,0,0.332,0.751,0.416,1.084s0.5,0.667,0.75,1s1.25,1.166,1.25,1.166   s0.584,0.584,0.584,0.834s1.582,1.666,1.666,1.916s0.584,0.417,0.584,0.417s0.584,0.25,0.75,0.5s1.083,1.249,1.333,1.333   s1.75,0.417,1.75,0.667s-0.166,0.667-0.333,0.917s-0.334,0.666-0.334,0.666l-0.666,0.75l-1.334,1.667c0,0-0.333-0.083-0.333,0.75   s0,0.833,0,0.833s0.833,1.25,0.75,1.5s-0.417,1-0.417,1s-0.167,0.166,0,0.5s2.5,0,2.5,0s0.25,0.713,0.417,0.148   s0.75-2.231,0.75-2.231l0.5-0.583c0,0,0.083-0.75,0.583-0.75s0.667,0.166,0.667,0.416s-0.167,0.834-0.167,1.334   S608,451.5,608,451.5s0.333,0.333,0.333,0.583s-0.166,1.084-0.166,1.084h-0.75c0,0-0.5,0.833-0.667,1.083s-0.167,0.25-0.167,0.25   s-1.166,0.583-1.666,0.75s-0.834,0-0.834,0l-1.5,1.083l-0.166,0.584v1.25c0,0,0.167,0.416,0.25,0.666s0.583,1.25,0.583,1.25   l0.25,1.084l0.417,1.833l0.666,1.333c0,0,0.333,0.668,0.25,1.084s-0.166,1.167-0.166,1.5s2.25,2.333,2.25,2.333   s0.333,0.167,0.333,0.417s0.167-0.333,0,0.25s-0.333,1.5-0.333,1.5s-0.084,0,0.083,0.583s0.833,1.583,1.083,2.083   s0.834,0.834,0.834,0.834s1-0.416,1.083,0s1.333,1.084,1.75,1.25s1.083,0,1.083,0s0.501,0.916,0.584,1.166s0.499,0.333,0.666,0.75   s0.084,0.917,0.167,1.167s0.417,1.084,0.5,1.667s0.501,0.5,0.917,1.333s0.833,1.5,0.833,1.75s-0.584,0.667-0.667,0.917   s-0.083,0.916-0.083,0.916s-0.417-0.334-0.667,0s-0.75,0.584-0.75,0.834s0,1,0,1s0.333,0.417,0,0.75s-0.833-0.583-1.083,0   s-0.916,0.084-0.833,1s0.583,1,0.833,1s0.75-0.334,0.75-0.334s1.083-0.166,1.083,0.334s-0.083,1.5-0.083,1.5s0,0.25,0,0.5   s0.417,0.916,0.417,0.916s0.166,0.417,0.083,0.917s-0.75,2.083-0.75,2.333s0.084,0.5,0.167,0.917s0.583,3.5,0.583,3.5l1,0.917   c0,0,0.667,0.833,0.667,1.083s-0.501,1.083-0.584,1.583s-0.25,1.084-0.25,1.084s0.084,1.082,0.167,1.416s0.25,1,0.25,1   s-0.583,0.833-0.583,1.5s0,1.084,0,1.084l0.666,1c0,0,0.334,0.582,0.584,1.166s1.249,0.918,1.416,1.334s0.25,2.083,0.25,2.083   l0.334,1.417l0.333,0.916v1l-0.25,1.25v0.5l-0.25,0.834l-0.167,1.666c0,0-0.083,0.75-0.083,1.167s-0.333,2-0.333,2l-0.167,0.75   c0,0-0.167,0.25-0.417,0.5s-0.582,0.75-0.666,1S617,529.917,617,529.917l-1.917,2.25l-0.166,0.583c0,0-1.667,2.167-1.917,2.5   s-0.083,1-0.333,1.25s1.084-0.75-0.25,0.25S609,539.417,609,539.417s-0.166,1.333-0.583,1.583s-1.834,2.083-1.834,2.083l-1.166,0.5   c0,0-0.751-0.25-1.084,0s-1,0.75-1.583,0.75s-0.501,0.416-0.917,0.5s-3.667,1.001-4,1.084s-0.5-0.25-0.75,0s-1,0.582-1.333,0.916   s-0.334,0.75-0.917,1s-0.834,0.5-1.5,0.667s-1.332,0.833-1.666,1s-1.417,0.833-1.417,0.833s-2.501,1.083-2.917,1.5s-1,1.25-1,1.25   s-0.416,0.833-0.833,1.25S584.25,556,584.25,556l-0.167,0.5c0,0-0.25,1.417-0.833,2s-1.417,2.25-1.417,2.25   s-0.999,1.167-1.416,1.417S579,563,579,563s-0.251,0.25-0.667,0.5s-0.75,0.667-1.333,0.917s-1.417,1.083-1.417,1.083l-1.916,1.667   l-1,1.667l-0.834,0.833l-1.333,0.667l-2.167,2.333l-1,0.834c0,0-1-0.334-1,0.833s0.166-0.166,0,1.167s-1,2.333-1,2.833   s-0.5,1.001,0,1.667s1.834,0,1.834,0l1.5,1c0,0,0.833-1,0.833,0s-0.167,0.666,0.5,1.833s1.333,2,1.333,2l-0.25,1.083l-0.25,0.834   c0,0-0.083,0.166-0.083,0.666s0.249,0.75,0.583,0.917s1.667,0.667,1.667,0.667l1.333,0.416l0.25,0.417l-0.083,0.833v0.584   c0,0,0.001-0.416-0.333,0s0.166-0.251-0.334,0.416s-0.583,1.084-0.583,1.084s-0.751,0.582,0.083,0.666s0.251,0.084,0.834,0.084   s1.583,0,1.583,0s0.167,0.332,0.167,0.666s0,1.084,0,1.084l0.083,1c0,0-0.333,0.417-0.333,1s0,1.082-0.167,1.416   s-0.083,0.75-0.25,1s-0.249,0.168-0.333,0.834s-0.166,1.25,0.25,1.5s2.25,0.583,2.25,0.583s0.166,0.417-0.084,0.75   s-0.332,0.5-0.416,0.75s-0.917,0-0.917,0l-0.5,0.833l-0.583,1.25v0.5l0.166,0.917c0,0-0.084,0.417,0,1s0.584,1.75,0.584,1.75   l1.333,1.083v0.584c0,0,0.001,0.084-0.083,0.5s-0.25,1.75-0.25,1.75s-0.001,0.167-0.084,0.5s-0.166,0.582-0.416,1.166   s-0.417,1-0.417,1l-0.917,0.75l-0.583,0.5l-1,0.917l-0.167,0.417l-0.75,0.916l-1,0.917l-1.666,1.083c0,0,0.5,0.084-0.417,0.334   s-2.167,0.5-2.167,0.5s-0.5,0.332-0.833,0.416s-1.249,0.5-1.583,0.667s-2.167,1.25-2.167,1.25s-0.5-0.25-1,0   s-1.166,0.501-1.583,0.667s-3.188,1-3.188,1L556,627.834c0,0,0,0.167-0.25,0.417s-0.417,0.5-0.667,0.75s-1.5,0.666-1.75,0.916   s-0.332,0.584-0.666,1.084s-0.334,0.666-0.584,1.083s-0.5,0.667-0.5,1.167s-0.25,1.333-0.25,1.333s0,0.667-0.25,0.667   s-0.75,0.249-0.833,0.666s0.083,1.167,0.083,1.417s0.334,0,0.334,0l0.583-1.083c0,0,0.416-0.334,1.083-0.334s1.667,0,1.667,0   l0.583,0.25c0,0-0.083,1.307-0.083,1.278s-0.084,0.222-0.167,0.472s-0.416,0.418-0.416,0.834s-0.083,1.584,0,2   s0.083,0.416,0.083,0.416s0,1.167,0,1.417s-0.167,0.75-0.167,0.75L554,644.25l-0.75,2.875l-0.5,1.25l-1,1.625   c0,0-0.25,0.25-0.25,0.75s0.125,1.125,0,1.5s0.125,0.5-0.125,1.25s-0.25,1.875-0.25,2.25s0,1.875,0,1.875l-0.25,1.125l-1.375,1.5   l-0.875,1.375c0,0-0.125-0.625-0.625,0s-1.25,0.375-2.125,1.125s-2.25,2-2.25,2s-0.375,0.375-0.625,0.75s-0.75,0.5-1.25,1.375   s-1.125,2-1.125,2l-1.25,1.125c0,0-0.625,0.5-1,1s-1.25,1.75-1.375,2.375s0,1.5,0,1.875s0,0.625,0,1s0,1-0.25,1.375   s-0.5,0.875-0.875,1.375s-0.5,0.625-0.625,1.125s-0.125,0.5-0.125,0.5l-0.625,1l-0.75,2.625c0,0-0.25,0.75-0.875,1.125   s-2.125,1.375-2.125,1.375l-0.875,1.625L528.25,690l-0.25,1l-0.5,0.875c-0.75,1-1.625,1.375-1.625,1.375L525.25,694   c0,0,0.25,0.125-0.25,0.625s-1,1.125-1,1.125l-0.375,0.75c0,0-0.125,0.25-0.375,0.625s1.125-1-0.25,0.375s-2.75,2.75-2.875,3.125   s-1,0.625-1.125,1s-1.25,1.5-1.25,1.5l-1.625,0.625l-1.5,1.125c-0.125,0.75-0.125,0.75-0.125,0.75s0.25,0.875-0.125,1.125   s-0.875,0.875-0.875,0.875s-0.625-0.875-1.125,0s0.25-0.125-0.5,0.875s0.25,0.375-0.75,1s-1.75,1-1.75,1h-1l-0.75,0.875   c0,0-0.25,0.5-1.125,1s-1.375,0.625-1.75,1.125s-0.875,1.062-0.875,1.062l-0.562,0.5l-0.375,0.375c0,0-0.188-0.188-0.562,0   s-0.375,0.312-0.75,0.312s-0.75,0-0.75,0h-0.75c0,0-0.438,0.062-0.625,0s-0.438,0.242-0.812,0.027s-0.938-0.277-1.125-0.277   s0.25-0.438-0.188,0s-0.438,0.625-0.625,0.875s-0.125,0.25-0.188,0.688s0.125,0.25-0.062,0.75s0.062,0.375-0.25,0.875   s-0.125,0.438-1.062,0.5s-1,0.125-1.438,0s-0.688-0.188-0.938-0.5s0.062-0.562-0.625-0.688s-1-0.188-1.25-0.125   s0.25-0.5-0.25,0.062s-0.625,0.75-0.625,0.938s0.188,0.188-0.188,0.812s0.125,0.625-0.688,0.812s-1.375-0.25-1.75,0   s-0.688,0.033-1.125,0.048s-0.562,0.265-1.625-0.36s-1.875-0.625-1.875-0.625s-0.625,0-0.812,0s-1.188,0.125-1.438,0.125   s-1.562-0.25-1.562-0.25c-1,0.75-1,0.75-1,0.75L477.5,721c0,0-0.062-0.125-0.375,0.312s-0.5,0.5-0.812,0.5s-0.25-0.625-0.562,0   s-0.312,0.625-0.312,0.625s-0.562,0.375-0.625,0s0.062-0.625-0.062-0.812s-0.625-1-0.812-1.062s-0.688-0.062-0.688-0.062h-0.5   c0,0-0.312-0.062-0.688-0.062s0.062-0.125-0.375,0s-0.312-0.188-0.438,0.125s-0.188,0.625-0.625,0.812s-0.5,0.188-0.812,0.25   s-0.438,0.188-0.812,0.25s-0.938-0.125-1.312,0.188s-0.375,0.312-0.375,0.312l-0.396,0.792l-0.5,0.834l-0.416,1   c-0.5,0.333-1,0.583-1,0.583h-2c0,0-0.416-0.167-0.75,0s-0.667-0.583-0.917,0s-0.083,0.917-0.333,1s-0.75-0.167-1,0   s-0.75-0.417-0.75-0.417s-0.667-0.416-0.917-0.416s-0.25,0-0.25,0l-0.75,0.333l-0.5,0.167l-0.417,0.363c0,0,0.084-0.887-0.416,0   s-0.917,1.47-1.417,1.47s-0.5,0-0.5,0h-0.417l-0.166,0.917h-0.334l-0.833,1c-0.083,0.416-0.833,1.416-0.833,1.416h-0.417   c0,0-1.249,0-1.583,0s-0.333,0-0.75,0s-0.501,0.083-0.834,0s-0.833-0.417-1.083-0.5s-0.333-0.5-0.333-0.5s-0.834-0.667-1.167-1   s0.167,0.084-0.333-0.333s0-0.251-0.917-0.417s-2.25-0.083-2.25-0.083l-0.083-1c0,0,0.25-0.833,0-0.833s-1.334,0.583-1.334,0.583   s-0.25,1-0.5,1s0,0.583-0.25,0s-0.332-0.834-0.416-1.167s-0.5-1.25-0.5-1.25l-0.417,0.084l-0.167,0.916l-0.333,1.25l0.167,0.334   c0,0-0.084,0.584-0.334,0.5s0.25,0.249-0.25-0.084s-1.083-1.25-1.083-1.25l-0.333-0.916l-0.334-0.667l-0.416-0.583v-0.417   l0.333-0.5l0.417-0.583l0.25-0.667c0.166-0.583,0.166-1.917,0.166-1.917l-0.416-0.333l-0.334-0.25l-0.583-0.75l-0.583-1.167   l-0.75-0.666l-1.167-1l-0.5-0.417l-1-1.25l-0.417-0.417l-0.166-0.833l-0.584-1.833l-0.166-1.334c0.666-0.333,1.75-0.25,1.75-0.25   l0.5,0.834c0,0,1,1.082,1.25,1.166s0.75-1.25,0.75-1.25v-1.25c0,0-0.25-1.082-0.25-1.416s0-2.584,0-2.584l-1.334-1.75l-0.666-1.416   l-0.917-1l-0.917-0.834l-0.75-0.416l-0.75-0.75l-1-1c0,0-0.25-0.334-0.5-0.334s-1.083-0.666-1.083-0.666l-0.833-0.75l-0.834-0.834   l-0.604-1.042l-0.625-1.062l-1.188-1.062l-0.25-0.688c0,0-0.938-1.125-1-1.312s-0.25-0.438-0.312-0.688s-0.25-1.25-0.25-1.25   l-0.188-0.75l-1.188-1.875l-0.438-1.062l-0.625-1.188l-0.5-1.375l-0.375-0.688l-0.812-1.125L415,680.625l-1.312-1.062l-0.625-1.062   l-0.688-1l-0.5-1.25l-0.25-0.375c0,0-1.125-1.062-1.375-1.188s-0.562-0.562-0.75-0.688s-0.625-0.562-0.812-0.812   S408,672.25,408,672.25l-0.562-0.688L407,671l-1-0.688l-0.75-0.812l-1.938-1.625L403,667.438l-1-1.125l-0.438-1.125l-0.375-1   L401,663.125l-0.812-1.688l-0.75-1.688l-0.438-1l-0.188-0.688l-0.375-0.812l-0.312-1.125l-0.542-0.688L397,654.812   c0,0-0.188-0.312-0.438-0.5s-0.562-0.5-0.562-0.5l-0.375-0.562l-0.375-0.875c0,0,0.125-0.75,0-0.938s-0.312-0.875-0.312-0.875   v-0.875l-0.5-0.812c0,0,0.062-0.5,0-0.688s0-1.312,0-1.312l-0.028-0.562l-0.722-1v-1.062l-0.156-0.531c0,0,0.094-0.156,0-0.25   s-0.188-0.562-0.281-0.594s-0.125-0.375-0.188-0.469s-0.156-0.344-0.25-0.438s-0.438-0.594-0.469-0.688s0-0.438,0-0.438   l-0.156-0.281l-0.25-0.531l-0.219-0.344l-0.25-0.5l-0.312-0.406l-0.188-0.312l-0.375-0.594c0,0-0.281-0.312-0.281-0.406   s-0.219-0.781-0.219-0.781l-0.281-0.219l-0.688-0.188c0,0-0.156-0.344-0.188-0.469s0-0.719,0-0.719l-0.014-0.812   c0,0-0.205-0.156-0.205-0.281s0-0.719,0-0.719s-0.125-0.312-0.281-0.5s-0.156-0.312-0.25-0.562s-0.219-0.5-0.219-0.719   s0-0.688,0-0.688s0.094-0.25,0-0.375s0-0.812,0-0.812l-0.281-0.469c0,0-0.406-0.5-0.469-0.656s-0.188-0.469-0.188-0.469   s0-0.781,0-0.875s-0.031-0.219,0-0.375s0.375-0.938,0.406-1.031s0.094-0.344,0.094-0.344l0.281-0.156l0.219-0.062l1.094-0.125   l0.312-0.125c0,0,0.531-0.344,0.625-0.406s0.156-0.625,0.156-0.719s-0.25-0.969-0.25-0.969l-0.219-0.094l-0.5-0.5l-0.344-0.031   c0,0-0.344-0.062-0.438-0.125s-0.531-0.781-0.531-0.781l-0.031-0.188l-0.344-0.625c0,0-0.281-0.375-0.281-0.469   s-0.264-0.469-0.264-0.469v-0.406l-0.611-0.812c0,0-0.188-0.312-0.312-0.531s-0.375-0.688-0.375-0.688l-0.312-0.312l-0.656-0.406   l-0.406-0.312l-0.25-0.25l-0.844-0.688v-0.188l-0.219-0.312c0,0-0.531-0.562-0.719-0.656s-0.625-0.562-0.625-0.562   s-0.188-0.312-0.281-0.375s-0.438-0.688-0.438-0.688l-0.5-0.625l-0.281-0.562l-0.469-0.562l-0.5-0.469c0,0-0.219-0.406-0.25-0.5   s-0.469-0.844-0.469-0.844l-0.344-0.25l-0.656-0.469l-0.531-0.438c0,0,0.125-0.062,0-0.156s-0.719-0.75-0.719-0.75l-0.188-0.125   l-0.531-0.969v-0.281l-0.312-0.438l-0.312-0.531v-0.156l-0.156-0.312l-0.281-0.531l-0.406-0.719l-0.406-0.562l-0.438-0.938   l-0.969-1.021l-0.917-1.083v-0.5l-0.583-0.667l-0.5-0.75l-0.5-0.75l-0.417-0.833v-0.417c0,0-0.5-0.582-0.833-0.916   s-0.917-1.167-0.917-1.167l-0.667-0.5c0,0-1.166-1.5-1.333-1.75s-0.917-1.333-0.917-1.333s-0.417-0.667-0.417-0.917   s-0.583-1.333-0.583-1.333s-0.333-0.583-0.667-0.75s-1-0.667-1-0.667s-0.167-0.167-0.417-0.25s-1.667-1.083-1.917-1.083   s-1.333-0.334-1.333-0.334h-0.5l-1,0.25c0,0-0.25,0.334-0.75,0.417s-0.417,0.167-1.083,0.167s-1-0.5-1-0.5v-0.667l0.667-1.333v-2   v-1L354,578.667v-1.5v-1.666l-1.5-2.334v-3.333v-0.5l-1.333-1l-0.667-1.167c0,0,0-0.5,0-1s0-0.5,0-0.5l0.667-2l0.833-0.666   l0.833-0.667l0.333-1l-0.167-1.5v-2.667c0,0,0.167-1.666,0-2.333s0.167-2.167,0.167-2.167l0.833-1c0,0,0.333-0.333,0.333-0.833   s-1-4-1-4s0,0.333,0-0.667s0-3.166,0-3.166v-0.834v-2l0.833-0.333l0.333-1l-0.5-2.833l-0.833-1.5l0.333-0.917v-0.833l0.917-1.25   l0.583-0.417l0.5-0.75c0,0,0.333-0.5,0.5-0.75s0.5-0.833,0.5-0.833l0.167-0.917c0,0,0.083-0.583,0.083-0.833s0.083-1,0.083-1   s0.25-0.584,0.333-0.834s0.584-0.749,0.917-0.916s0.917-0.75,0.917-0.75s0.25-0.334,0.583-0.584s1.333-1.25,1.333-1.25l0.917-0.5   l0.917-1.333l0.083-0.417l0.167-1l0.25-0.916v-0.584v-1.166l0.417-1.25l0.167-0.75v-0.584c0,0-0.167-0.166-0.167-0.416   s-0.667-2-0.667-2l-0.25-1.667l0.167-4.417v-0.5l-0.583-1.25c0,0-0.5-0.583-0.667-0.833s0-0.416-0.417-1.083s-0.25,0-0.417-0.667   s-0.667-1.167-0.833-1.75s-0.75-1.583-0.833-1.833s-0.25-0.251-0.5-0.584s-0.667-0.75-0.667-0.75s-0.583-0.333-0.667-0.583   s-0.25-0.417-0.5-0.667s-0.917-0.75-0.917-0.75s-0.083-0.167-0.333-0.5s-0.833-2.083-0.833-2.083s-0.083-0.333-0.167-0.583   s-0.583-0.917-0.75-1.167s-0.75-0.667-0.75-0.667s-0.334-0.75-0.417-1s-0.583-0.916-0.583-0.916s-0.917-0.918-1.167-1.084   s-0.417-0.75-0.417-0.75l-0.833-0.833L349.188,483v-0.562c0,0-0.125-0.688,0-0.875s-0.056-1-0.056-1l0.681-0.875   c0,0,0.375-0.688,0.75-0.938s0.688-0.5,0.875-0.688s1.062-0.625,1.062-0.625c0.5-0.75,0.688-1.688,0.688-1.688v-0.375v-0.75   c0,0-0.312-0.625-0.438-0.938s-0.5-1.312-0.5-1.312l-0.938-0.938c-0.5-0.375-1.062-1.125-1.062-1.125l-0.5-0.312l-0.618-1.062   l-0.882-0.688c0,0-0.812-1.188-0.812-1.375S346.875,466,346.875,466l-0.312-0.5l-0.438-1.062c0,0-0.188-0.375-0.312-0.562   s-0.125-0.188-0.125-0.188l-0.625-1v-0.438l-0.812-1.125c0,0-0.438-0.188-0.438-0.375s-0.438-0.688-0.438-0.688L342.562,459   l-0.375-0.688l-0.812-0.875l-0.375-0.5c0,0,0.375-0.562,0-0.875s-0.688-0.688-0.688-0.688l-0.5-0.5l-1.125-0.438l-1.062-0.5   c0,0,0.25-0.188,0-0.312s-0.938-0.25-0.938-0.25l-1.188-0.062c0,0,0.062,0.188-0.438,0s-1.312-0.562-1.312-0.562   s-0.688-0.188-0.812-0.375s0.438-0.562,0-0.75s-0.75-1.375-0.75-1.375s0.188-0.562,0.375-0.562s0.812-0.125,0.812-0.125   l0.562-0.312l0.375-0.812c0,0,0.125-0.5,0-0.688s-0.125-0.188-0.125-0.188s-0.375-0.312-0.562-0.5s-0.625-1-0.625-1l-0.375-0.5   l-0.438-1.25l-0.438-0.25l-0.75-1.125c0,0-0.625,0.25-0.812-0.062s-0.625-1.062-0.688-1.25s0-0.375,0-0.375l-0.875-0.875   c0,0-0.188-0.25-0.375-0.438s-0.875-1.312-1-1.5s-0.438-0.625-0.438-0.625l-0.5-0.25l-0.5-0.625l-0.5-0.625l-0.688-0.625   c0,0-0.625-0.625-0.875-0.688s-1.438-1.062-1.438-1.062s-0.062-0.25-0.375-0.312s-1.375-0.562-1.375-0.562l-0.729-0.812l-0.5-0.5   l-1.083-1.916v-0.5c0,0-0.583-1-0.833-1.167s-1.083-0.333-1.083-0.333l-0.917-0.417c0,0,0.083,0.166-0.583-0.417   s-1.167-1.333-1.167-1.333l-0.75-0.417l-0.75-0.5c0,0-0.5-0.499-0.833-0.666s-1.167-0.667-1.167-0.667l-0.75-0.417v-0.583   l-1.167-1.5l-0.417-0.333v-0.417c0,0,0.5-0.166,1.083-0.333s1.083-0.5,1.083-0.5s0.5-0.25,0.25-0.417s-0.833-0.417-0.833-0.417   L309,418.917c0,0-0.25,0.417-0.583,0.5s-0.583,0.083-0.583,0.083h-1c0,0,0.083-0.084-0.333-0.25s-0.417-0.166-0.417-0.166   l-0.667-0.334l-0.75-0.25l-0.583-0.5c0,0,0.417-0.084,0-0.5s-0.75-1.083-0.75-1.083s-0.583-0.334-0.833-0.417   s-0.25-0.083-0.25-0.083s-0.416-0.749-0.833-0.833s-0.417,1.334-1-0.5s-0.583-1.834-0.583-1.834v-1.25V411l-0.917-1.416   l-0.417-0.167l-0.917-0.583l-0.667-1.084l-0.417-0.666c0,0-0.583-0.25-0.833-0.667s-1.25-2.083-1.25-2.083v-0.417   c0,0-1.584-2.25-1.667-2.5s-0.5-0.083-0.083-0.25s1.417-0.083,1.417-0.083s0.333,0.166,0.667,0.416s0.667,0.417,0.833,0.667   s0.583,0.583,0.917,0.583s0.667,0,0.917-0.083s0.667-0.583,0.667-0.583s0.25-0.417,0.583-0.667s0.917-0.667,0.917-0.667   l0.917-1.166c0,0,0.083-0.084,0.083-0.334s0.417-1.166,0.417-1.166s-0.333-0.5-0.5-0.75s-0.167-0.25-0.167-0.25   s-0.083-0.417-0.167-0.667s-0.417-1.167-0.417-1.167l-0.333-1c0,0,0.083-0.417,0-0.75s-0.167-1.166-0.167-1.166v-0.5   c0,0,0-0.167,0.333-0.167s1.25,1.477,1.25,1.477s0.333-0.44,0.667,0s0.917,0.94,0.917,0.94s1.083,0.416,1.333,0.666   s1.167,0.084,1.167,0.084s-0.084-0.584-0.417-0.667s-0.333-0.417-0.667-0.5s-0.75-0.464-1.083-0.523s-0.667-0.56-0.667-0.56   l-0.667-0.667l-0.75-1.25l-0.167-1.417c0,0,0.167-0.25,0.417-0.25s0.5,0.25,0.833,0.417s1.25,0.25,1.25,0.25   c-0.333-0.5-1.333-1.833-1.333-1.833v-0.417l0.083-0.917l0.417-0.583l-1-0.667c0,0-0.167-0.25-0.5-0.25s-0.75-0.333-0.75-0.333   l-1.083-0.333l-0.083-0.834c0,0,1.334-1,1.417-1.25s0.417-0.499,0.5-0.916s0.417-0.251,0.417-0.584s0.583-1.75,0.583-1.75   s0.583-0.417,0.333-0.75s-0.25-0.667-0.25-0.667s-0.25-0.5-0.5-0.5s-0.833,0.083-1.083,0.083s-0.917,0.083-1.5,0.083   s-0.833-0.417-0.833-0.417l-0.583-0.75c0,0-0.416-0.5-0.583-0.833s0-0.75,0-0.75s0.75-1,0.833-1.25s0.833-1.083,0.833-1.083   l0.75-0.667l0.667-1c0,0,0.333-0.333,0.583-0.333s1.167-0.083,1.75-0.083s0.583,0,0.583,0l0.833-0.75l-0.083-0.917l-0.083-1.333   l0.083-1.583c0,0-0.083-0.333,0-0.75s0.667-0.75,0.667-0.75s0.5,0.083,0.583-0.167s0.333-0.5,0.167-0.75s-0.75-1-0.75-1   l-0.417-0.417l-0.5-0.583c0,0-0.167-0.25-0.417-0.333s-0.667-0.25-0.75-0.583s-0.167-1.25-0.167-1.25v-0.583   c0,0-0.5-0.917-0.75-0.917s-0.583-0.167-0.583-0.167s-0.25-1-0.25-1.333s0.667-2,0.667-2s1.333,0.083,1.5-0.167   s0.167-0.25,0.167-0.25s-0.417-1.083-0.667-1.083s-1,0-1,0l-0.75,0.25l-0.083,0.417c0,0,0,0.417-0.083,0.667s-0.583,0.5-0.583,0.5   l-0.333,0.5l-0.583,0.167c-0.917,0.25-1.833-0.583-1.833-0.583l-0.917-0.417c0,0-0.583-0.084-0.917-0.167s-1.583-0.917-1.583-0.917   s-0.614-0.167-0.765-0.25S292,352.5,292,352.5h-2.333c0,0-0.25,0-0.5,0s-0.5-0.083-1-0.083s-1.333-0.083-1.75-0.083   s-0.417,0-0.417,0s-0.583-0.167-0.667,0.083s-0.083,0.25-0.083,0.25v0.5l-0.438,0.583c0,0,0.5,0.562,0,0.562   s-1.375-0.25-1.375-0.25s-0.188-0.125-0.375-0.125S282,353.562,282,353.562c-0.125-0.375,0-1.5,0-1.5l0.375-0.438   c0,0,0-0.688,0-0.938s0-0.25,0-0.25s-0.549-0.75-0.431-0.938s-0.017-1.312-0.017-1.312l-0.615-0.75c0,0-1.062,0.188-1.062,0.375   s0,0.688,0,0.688s0.562,0.812,0.562,1s0,0.188,0,0.188l0.188,0.688l0.125,0.75v0.438c-0.188,0.375-0.188,0.375-0.188,0.375   l0.125,0.812c-0.375,0.25-0.375,0.25-0.375,0.25h-0.812h-0.562L279,352.438c0,0,0.125-1,0-1.25s0.125-0.625,0-0.875   s-0.036-1.375-0.036-1.375l-0.031-0.438v-0.688c0,0-0.371,0.438-0.433,0.625s-0.25,0.875-0.312,1.125s0.062,0.5,0,0.688   s-0.018,0.938-0.018,0.938l-0.015,0.875c0,0,0.283,0.188,0.283,0.375s0.375,0.438,0.375,0.438s0.188,0.188,0,0.312   s-0.658,0.312-0.658,0.312l-0.717,0.125c0,0-0.188-0.188-0.5-0.188s-0.75,0.062-0.75,0.062s-0.062,0-0.5,0.062   s-0.75,0.125-0.75,0.125S274.25,354,274,353.875s0-1,0-1L272.812,353v0.688c0,0-0.188,0.312-0.562,0.125s0.125,0.125-0.375-0.188   s-1-0.562-1.375-0.688s-0.562-0.375-0.75-0.5s-0.062-0.312-0.312-0.438s-0.5,0.062-0.875-0.438s-0.438-0.75-0.688-1.25   s-0.438-1.125-0.438-1.125l-0.938-0.938c0,0,0.188-0.5,0-0.875s-0.688-1.438-0.812-1.625s0.312-0.375,0-0.688   s-0.188-0.438-0.375-0.875s0.312-0.562,0-0.75s-0.438-0.562-0.438-0.812s0-0.812,0-0.812v-1.062v-0.375c0,0,0.188-0.375,0-0.562   s0-0.75,0-0.75l-0.083-0.562c0,0,0.083,0,0.458-0.188s0.75-0.25,1.062-0.5s0.875-0.75,0.875-0.75V336.5h-0.438   c0,0,0.312,0-0.312,0.188s-1.375,0.375-1.375,0.375L264.5,337.5c0,0,0.5,0.188,0,0.312s-0.5,0.125-0.5,0.125l-0.312-0.562v-1.125   l-0.375-0.188l-0.438-0.312c0,0,0.375-0.5,0.812-0.625s0.75-0.125,1-0.25s0.688-0.688,0.688-0.688l0.062-0.312h-0.5l-0.438,0.312   l-0.875,0.188c0,0-0.5,0.312-0.75,0.312s-0.25,0-0.25,0s-0.5-0.25-0.625-0.438s-0.062,0-0.312-0.75s-0.25-0.75-0.25-0.75l1.812-1   l0.25-0.75l-0.75,0.375c0,0-0.312,0.25-0.5,0.25s-0.812,0.188-0.812,0.188l-1.125,0.25l-0.562-0.938L259,330.25v-1   c0,0-0.5-0.125-0.625-0.5s0-1,0-1l-1.125-0.875c0,0-0.125-0.125-0.625-0.5s-1-1-1.5-1.25s-1.625-0.5-1.625-0.5l-0.75-0.75   c0,0-0.25-0.125-0.625-0.125s-1.5,0-1.5,0h-1c0,0-1.375,0-1.75-0.25S247,322.375,247,322.375v-1c0,0,0.75,0,1.125-0.125   s0.375-0.125,0.375-0.125S248.25,320,247.875,320s-1.625,0.25-2,0.375s0-0.625-0.375,0.125s-0.375,0.75-0.375,0.75l0.625,1   c0,0,0.5,0.75,0,0.75s-0.75-0.375-1.25-0.375s-1.75,0-1.75,0s-1,0-1.625,0s-1.75,0-1.75,0h-1.5v-0.5h-1.25l-2.75,0.125   c0,0-0.75,0.25-1.25,0s-0.875-0.375-1.5-0.5s-1.375-0.125-1.375-0.125s-1.5,0-1.875,0s-0.875,0-1.375,0s-0.5,0-0.5,0l-1.625,0.125   v-0.625l1-2.125v-0.875l-1-0.5v-0.5l-1.25-0.625l-1.5-0.625c0,0-0.125-0.125-1,0s-2.25,0.25-2.25,0.25l-0.625,0.75l-0.625,1.375   c0,0-0.5,0.875-0.625,1.25s-0.125,0.375-0.125,0.375h-2.25l-1.5-0.25c0,0-1.625,0.375-2,0S209.5,318.5,209.5,318.5l-0.625-0.75   c-0.875,0-2.125,0.625-2.125,0.625l-1,0.875l-1.375,0.625L203,320h-1c0,0-0.875-0.375-1.625,0s-1.125,0.375-1.75,1   s-1.875,0.625-1.875,0.625c-0.75,0-0.875-0.125-1.75-0.125s0,0-0.875,0s-2.375-0.125-2.375,0.25s0,1,0,1   c-0.875,0.25,0.125,0.375-0.875,0.25s-2.375-0.625-2.875-0.625s-1.25,0-1.25,0v0.75L185.625,324l-1.5,0.625c0,0,2,0.375,0,0.375   s-2,0-2,0s-0.625-1-0.875-1.375S181,322.25,180,322.25s-1,0-1,0s-0.625-0.125-1-0.25s-1.125-0.625-1.125-0.625s1-0.125,0-0.375   s-1-0.25-1-0.25l-0.625-0.875c0,0-0.25-0.125,0-0.625s1.125-0.5,0.25-0.5s-1.625,0.5-1.625,0.5v0.375l-1.375-0.875   c0,0-0.5,0.125-1.375-0.375s-0.875-0.5-0.875-0.5s-0.125,0.125,0.625-0.75s1.5-1.375,1.5-1.375s1-1.625-0.5-0.75   s-2.5,1.625-2.5,1.625l-1.125,0.75h-1.125c0,0,0.5-0.25,0-0.875s-0.5-0.625-0.5-0.625s0-1-1-1s-1.875,0-1.875,0v0.875l-1.5,0.25   l-1.875-0.125l-1.5-0.5c-1.25-0.5-2-0.875-2-0.875h-0.625l-0.625,0.5c-1,0.25-2.75-1.125-2.75-1.125s-0.5,0-1.25,0.375   s-2.625,0.5-3.25,0.25s-1.25-0.25-1.25-0.25s-0.25-0.25-1,0s-2.25,0.25-2.625,0.25s-0.875-0.125-1.375,0s-1.25,0.375-1.25,0.375   c-1,0.25-2,0.25-2,0.25l-2.125,0.25c0,0,0.125,0.125-0.625,0.25s-3.875,0.25-5,0.25s-1.125,0-1.125,0v0.625c0,0-0.625,0.5-1.5,0.75   s-1,0.5-1.625,0.625s-1.625-0.125-1.625-0.125v-0.625c0,0-0.625-0.5-1.25-0.75s-1.75-0.875-2.125-1s0.625,0.75-0.375-0.125   s-1.25-1.5-1.625-1.5s0.5,0.625-0.375,0s-1.875-1.875-2.25-2.125s-0.625-0.375-1-0.625s-0.875-0.75-1-1.125s-1.25-1.25-1.625-1.5   s-0.75-0.375-1.125-0.75s0.125,0.25-0.375-0.375s-2.75-2-2.75-2s0.5-0.125,0-0.5s-0.625,0-1.125-1s-1.125-1.5-1.25-2.25   s-0.625-2.25-0.625-2.25l-1.25-1.625l-1.5-1.75l-0.875-0.75c0,0-2.25-1-2.625-1.375s-1-1.625-1-1.625v-1.375   c0,0,1.125,0.125-0.625-1.25s-2.375-1.375-2.375-1.375l-1.375-1.375c0,0,0.375,0,0-0.375s-0.125-0.25-0.75-1   s-0.625-1.625-0.625-1.625L92,283.375L91,283c0,0-1-0.625-1.375-0.875s-1.25-0.625-1.25-0.625s-0.25-0.125-0.75-0.75   s-1.25-1.25-1.25-1.25l-0.875-0.875l-1.625-1.5l-2.25-0.875c0,0-0.125-0.25-0.625-0.75s-1.875-2.375-2.375-2.875   s1.25-0.625,1.25-0.625c1-0.375,1.25-1,1.375-1.375s0.125-0.375,0.125-0.375s0.25-1-0.25-1s-1.25,0-1.25,0l-1.34-0.375v-3.5   l1.34-0.5c0,0,0.5,0,1,0s0.875,0.125,1.75,0s0.875-0.125,0.875-0.125s0.875-1.125,0.125-1.125s-0.75,0-0.75,0h-1.5   c-0.125-0.625-0.25-1.375-0.25-1.375l-0.25-2.25l-0.5-1.625l-1.25-2.75c0,0,0.07,0.5-0.59-0.5s-0.535-0.375-0.66-1s0-1.75,0-1.75   s0.014-0.125-0.056-0.5s-1.069-0.625-1.319-1s-0.75-0.875-1-1.25s-0.25-0.5-0.875-1s-1.875-1.5-2.25-1.875s-0.5-0.75-0.875-1.125   s-0.625-1.25-0.625-1.25s-0.125,0,0-0.625s-0.486-0.75-0.056-1.125s-0.194-0.25,0.431-0.375s1.125,0.25,1.25-0.125S72,241,72,241   c-0.583,0-0.583,0-0.583,0s-0.834-0.083-1.167-0.083s-0.333,0-0.333,0s-0.167-0.084-0.333-0.417s0-1,0-1l-0.417-0.667   c0,0,0.5-0.5,0-0.5s-0.667,0-0.833,0.25s-0.167,0.25-0.167,0.25s-0.25,0.5-0.583,0.5s-1-0.5-1-0.5V238.5l-0.75-0.667l-0.583-0.417   v-0.75l-0.917-1l-0.333-0.5v-0.25l-1.167-0.167l-0.5,0.167l-0.417,0.75v0.417l-1,0.417c0,0-0.084,0.333-0.417,0   s-0.75-1.667-0.75-1.667s-0.083-0.083-0.417-0.083s-0.833,0-0.833,0s-0.166,0-0.833,0s-1.083,0-1.083,0l-0.417-0.167L55.417,234   v-0.917v-0.667L54.833,232c0,0-0.25-0.083-0.583-0.167S53.333,231,53.333,231v-0.667l0.583-1.667l1-0.417l0.667-1.25l0.583-0.25   c0,0,2.416-0.166,2.583,0.167s0.167,0.583,0.5,0.833s1.083,0.667,1.333,0.5s0.25-1.167,0.25-1.167s-0.667-0.667-0.917-0.917   s-1.583-1.5-1.833-1.5s-0.25,0-0.25,0l-0.75-0.583l-0.333-0.667l-0.5-1.5c0,0-0.167-0.25-0.417-0.333s-0.667-0.167-0.667-0.167   s-0.75-0.167-0.833-0.417s-0.333-1.75-0.5-2s-0.167-0.25-0.167-0.25l0.667-2.083l0.083-0.833l0.667-1.083c0,0,0.167-1.25,0.5-1.5   s0.167-0.167,0.75-1.25s0.833-1.5,0.833-1.5l1.458-0.75c1,0.375,3.375,1.625,3.375,1.625h1.5l0.625-0.125c0,0,2.875,0,3.25,0   s1.125,0,1.125,0s1,0.25,1.375,0s1.75-0.625,1.75-0.625H74l1,1.875c0,0,0.125,0,1,0.75s1.625,1.125,1.625,1.125   s0.625,0.25,1.25,0.5s2.375,0.625,2.375,0.625s0.25,0,0.875,0s-0.125,0,0.625,0s1.5-0.125,1.5-0.125l-1-0.625   c0,0-2.25,0.375-3.875-0.625s-1.625-1-1.625-1s0.125-0.5-0.375-1.125s-1.125-1.25-1.125-1.25l-0.875-1l-0.875-0.125l-0.875-0.25   c0,0-0.375,0-0.75,0s-1.125,0-1.625,0s-0.625,0.25-1.25,0.25s-1.375,0.125-1.75,0.25S66.875,210,66.875,210H65.75l-1.25-0.25   c0,0-0.875-0.5-1.25-0.5s-0.375,0-0.375,0l-1.25-0.375c0,0-0.375-1-0.875-1s-1.125,0-1.125,0l-0.75-0.125l0.625-1.875l-0.75-0.625   c0,0-0.125-1-0.125-1.625s0.125-1.25,0.125-1.25s1.25,0.875-0.25-1.125s-1.5-2-1.5-2l-1.125-2.125l-1.125-0.875l-0.875-0.5   L52.5,195c0,0,0-0.625,0-1s0.375-2,0.875-2s1.5,0.125,2.5,0.5s2.125,1,2.125,1l1.125-0.5l0.25-1.75l1.5-1.5l2.625-1.625   l0.375-0.625l0.625-1.625l1.25-2c0,0-0.25,0.25,0.25-0.75s0.625-1.75,1.125-2.625s0.5-0.875,0.5-0.875l2-1.625   c0,0,1.25-1.875,1.375-2.25s1.75-2.5,1.75-2.5s0.5-0.75,1-1.125S75.5,170,75.5,170l0.375-2.625L76.5,166l0.375-1.375v-3   c0,0,0.125-1.125,0.125-2s0-1.625,0-2.25S76.875,156,76.875,156l-2-1.5l-1.375-0.75v-1l1.625-1.5l0.75-0.5l-0.5-1.625l0.5-0.875   c0,0,1,0.25,1.375,0.25s1.125,1.25,1.625,0s0.5-1.25,0.5-1.25l-0.125-1.75l-1-1.75c0,0,0.125-0.375,0-0.75S77,141.375,77,141.375   l-1.125-0.75l-0.75-2.125c0,0,0.125-1.25-0.375-1.75s-2.5-2.5-2.5-2.5l1.125-1.5L74,132.125l1.625-1.875l0.75-1   c0,0,0.75-0.875,1.125-1s1.125-0.5,1.125-0.5s0.5-0.875,1-0.875s2.625-0.25,2.625-0.25l0.375-1l0.125-1.875   c0,0,0.875-2.5,1.25-2.75s0.75-1,1-1.5s0.5-1.625,0.5-1.625L85.125,117c0,0-0.375-0.875,0.125-1.25S87,114,87,114l0.625-0.25   l1.625-0.875c0,0,0.75-0.125,1.375-0.375s1.625-0.375,1.625-0.375L93.625,111l2.75-1.375l0.125-1.375v-2l-0.25-2.5   c0,0,0-1.25,0.375-1.375s1.25-2.125,1.25-2.125s-0.25-0.5,0.125-0.625s1.125-0.75,1.125-0.75l1.375-1.75l0.25-1.5   c0,0,0.5-0.625,0.625-1.125s1-2.25,1.625-2.375s1.125,0,1.5,0s1.25,0.625,1.25,0.625s0.625,0.125,1,0.125s-0.5,0.625,0.375,0   s2-1.125,2-1.125l2.125-1.375c0,0-0.25,0,0.125-1s0.75-2.375,0.75-2.375l1-0.625l0.75-1.75l1.5-1.25L116.75,81   c0,0,0.375-0.5,1.375-1.125s1-0.625,1-0.625s0.25-0.125,1.5-0.125s2.25,0.125,2.25,0.125s-0.75,0.5,1,0.5s3.125,0,3.125,0h3   c0,0,1.25,0.125,1.75-0.125s1.375-1,1.375-1l1.25-0.125c0,0,0.875-0.625,1.125-1s1.625-1.375,1.875-1.75S139,73.875,139,73.875   s1.25-0.125,1.625-0.125s1.875,0,1.875,0s0.75-0.375,0.875-0.75s1.25-2,1.625-2.125s2.375-1.625,2.375-1.625l1.125-0.625   c0,0,0.5-0.5,1-0.75s0.75-0.5,1.25-0.875s1.125-1.125,1.125-1.125s0.5-1.375,1-1.875s1.625-1.125,1.75-1.5s0.375-1.625-0.5-1.75   s-1.625-0.375-1.625-0.375l-0.875-0.625l0.125-0.625V57.5l0.875-1.375c0,0,0.125,0.667,0.125-1.292s0-3.208,0-3.208   s-0.5-0.5,0.375-1S155.25,49,155.25,49l3.25-2.25c0,0-0.75-0.375,0-1.125s1.5-2.5,1.5-2.5l0.125-0.875l0.25-1.75   c0,0,0.5-0.75,1.125-0.875s1.5,0,1.5,0s-0.25,1.389,0.875-0.056S165.5,37.375,166,37.25s1.75-0.25,2.75-0.625   s1.625-1.875,1.625-1.875h1.875h2.375l1.25-0.875c0,0,0.25,0.75,1.25,0s5.5-1.75,5.5-1.75l0.5-0.625L184.5,30l0.375-0.625   c0,0,0.125,1.125,0.375,0s1.375-2.875,1.375-2.875s-0.25-0.375,0.5-1.25s1.375-2.125,1.375-2.125s0.75-1,1.25-1.375   s1-0.625,1.25-1.125s-0.5,0.5,0.25-0.5s1.5-2.375,1.5-2.375l3.125-3.5c0,0-0.625,0,0.375-0.625s1.875-1,2.5-1s1.25-0.25,1.75,0   s1.375,0,1.375,0.875s0,1.875,0,1.875s-0.5,0.625-0.5,1s-0.125,0.625-0.125,1s0.875,1.125,0.875,1.125l0.625,0.5l0.75,0.75   l1.5,1.875l0.875,0.625c0,0,0.25,0.375,0.75,0.375s0.5,0,0.5,0l5.25,0.25c1.875,1.5,1.875,1.5,1.875,1.5L217,24.75l1.375-1v-1   l0.25-0.75c0.75-0.375,1.5,0.625,1.5,0.625v0.625c0,0-0.25,0.5,0.125,0.625s0.875,0.25,1.25,0.625s2.375,1.5,2.375,1.5   s0.625,0,1,0.125S225.5,26.25,226,26.25s1.25-0.25,1.25-0.25h1.25l1.375-1.375c0,0,0.75-2,1.375-2.25s1.25-0.5,1.25-0.5l1.375-0.75   l1.25-0.125l0.5,1.25c0,0,0,0.25,0.25,0.75s-0.75-0.125,0.25,0.5s2.125,0.75,2.125,0.375s0.125-2,0.125-2L239,21.25   c0,0,2.375-0.625,2.375-0.125s0-0.5,0,0.5s-1.75,1.5,0,1S244,22.125,244,21.25s0.125-1.625,0.125-1.625l2.25-1   c0,0,0.625,0,1.375-0.375s2.75-1,2.75-1s0.125-0.375,0.5-0.625s3.375-0.875,3.375-0.875s0.875,0.125,1.25,0.125s0,0.25,1.25,0.25   s2.625,0.125,3,0.125s0.875,0,1.375,0s2.75,0.5,2.75,0.5l1.875,0.75l2-0.875L269,15.75l2.125,0.25   c0.875-0.375,2.125-1.625,2.625-1.625s1.75-0.25,3.625,0s3.125,0.25,3.625,0.25s-0.25-0.75,0.5,0s1.375,1.625,1.375,1.625   l2.25,1.75c0.75,0.375,2.25,0.75,2.5,0.125s0.25-1.125,0.75-1.25s1.5-0.125,1.5-0.125c1.25,0.5,1.5,0.625,2.125,0.125s2.5-2,2.5-2   s0-0.625,0.375-0.625s1.375,0.125,1.5,0.5S297,16.375,297,16.375l1,0.5l1.125-0.25l1.625-1.75l2,0.625l0.625,1   c0,0,0,0.5,0.375,0.75s0.375,0.25,0.375,0.25s2.125,0.75,2.625,0.75s1.125,0,1.125,0c1.5-0.5,2.125-0.875,2.125-0.875l1.625-0.625   c0,0,0.25-0.25,1.375-0.75s2.25-0.75,2.25-0.75l0.75-0.125c0,0,0.625,0,1,0.125s1.5,0,1.5,0s0.625,0,1,0s1.375,0.375,1.375,0.375   s0.375,0,0.625,0.375s0.875,0.875,1.125,1.375s0.625-0.25,0.25,0.5s-0.125-0.25-0.375,0.75s-2,1.5-0.5,2s1.5,0.5,1.5,0.5   s0.125-0.125,0.75-0.625s0.625-0.5,0.625-0.5l0.875-1c0,0,0.5-0.375,0.75-0.75s-0.5-1,0.75-1s1.25,0,1.25,0s0.25,1.125,0.625,1.5   s0.5,0.875,0.5,1.25s0.375,0.75,0,1.125S328,22.5,328,22.5s-1.375,0.875-1.75,1.125s-1.375,0.625-1.375,0.625   s-0.375,0.375-0.5,0.75s0.25-0.5-0.125,0.375s-0.25,0-0.375,0.875s-0.125,0.875-0.125,0.875l0.875,0.625c0,0,1.125,0.875,1.5,1.125   s0.375,0.25,0.375,0.25s0.625,0.625,0.875,1.125s0.5,0.75,0.625,1.5s0.125,1.5,0.125,1.5s0,1,0,1.375s0.125,0.875,0,1.375   s-0.625,1.75-0.625,1.75l-0.5,0.625c0,0-1.25,1.125-1.625,1.375s-1,0.625-1.125,1s-0.75,0.875-1,1.25s-0.375,0.875-1,1.75   s-1.625,2.5-1.625,2.5l-0.75,1c0,0-0.75,0.25-0.125,0.75s-0.625-0.75,0.625,0.5s3.25,3.125,3.25,3.125   c0.875-0.75,0.75-1,1.25-1.875s1-2.5,1.5-2.75s-0.25-0.375,0.5-0.25s1.375,1.125,1.375,1.125l-0.125,1l-0.75,0.625   c0,0-0.25,0.375-0.25,0.75s-0.875-0.375,0,0.375s2.25,1.5,2.25,1.5c0.125,0.75,1.375,1.375,1.75,1.5s2,0.375,2,0.375l1.5-0.125   l1.5,0.5c0,0-0.125,0.625,0.25,0.75s1.125,0.75,1.125,0.75s1.625,1.125,1.875,1.5s-0.625,0.375,0.875,0.375s2.875-0.25,3.375-0.25   s1.875,0,1.875,0l1-2.25c0,0,0.125-0.5,0.625,0s1.25,0.875,1.25,0.875l0.75,0.625l3.125,0.375l1.375,0.75l2.75,1.125   c0,0,1.375-0.125,1.375,0.25s-0.75-0.25,0,0.375S358.25,61,358.625,61s1.625,0.25,2.125,0.25s1.125,0.25,1.125,0.25   s0-0.25,0.625,0.375s0.125,0,0.625,0.625s2.125,1.375,2.25,2.125s-0.375,2-0.375,2v1c0,0-0.125,0,0.375,0.625s1,2,1,2l1.125,1   c0,0-0.375-0.25,1,0.875s2.375,1.625,2.375,1.625s0.875,0,1.375,0s-1.25,0,0.5,0s3.875-0.25,3.875-0.25s1.375-0.5,2,0   s1.75,0.5,2.25,1s-0.25-0.125,0.5,0.5s1.25,0.5,1.875,0.75s0.938,0.25,0.938,0.25s-1.188-0.125,1.188,0.625s2.375,0.75,2.375,0.75   s-0.25,0.5,0.75,1.375s1.625,1,1.625,1l2.25,1.5c0,0,0.75-0.375,1.75,0.625s1.875,1.5,1.875,1.5L397.583,82.75z"/><path fill="#FFFFFF" stroke="#FFFFFF" stroke-miterlimit="10" d="M675.167,504.667v-1v-1h-1.5l-1.334,1v1c0,0-0.666-0.333-1.166,0   s-0.5-1.333-1.167,0S669.333,506,669.333,506s0.333,1,0,1.5s0,1.5,0,1.5H670c0,0-0.166,1,0.167,1.5s0.166,1.333,0.166,1.333   l-1.147,0.667l-0.686,2v0.667c0,0-0.501-0.333-1.167,0s-0.666,0.333-0.666,0.333s0.167,1.501,0,2.167s0.833-0.334-0.167,0.666   s-0.333,1.833-1,1s-0.833-2.5-0.833-2.5L664,516.5l-1.5-0.167V517v1.167c0,0,0,1.181,0,1.507s0,0.326,0,0.326s1.167,1.333,1.167,2   s1.834,0.501,0,0.667s-3.167,0-3.167,0s0.167,0.334,0,1s0,2.333,0,2.333s-0.815,0.166-0.074,0.833s1.741,1.334,0.741,1.667   s-1,0.333-1,0.333l-1.667-1V527l-1,0.167c0,0-1.167,0-1.167,0.5s0,1.166,0,1.166v0.667v1c0,0-0.167,0.167,0,1   s0.167,0.833,0.167,0.833s-0.149,0.833-0.241,1s-0.759,0-0.759,0V531.5c0,0-0.667,0.167-1.167,0   c-0.172-0.058-0.284-0.095-0.358-0.119c-0.142-0.048-0.142-0.048-0.142-0.048s-2.834,1.814-3,2.074s-1,0-1,0L649,534.5v0.833   c0,0,1-1,1,0s1,1.334,1,1.334s1.499,1-0.167,1s-3.166,0-3.166,0v-1.5V535.5l-1.5-0.333c-1.167,0.666-2,1-2,1v0.5L643.5,537   l-0.833,0.667c0,0,1-0.667,0-0.667s-1.834,0-1.834,0L640,537.667c0,0-0.166,0.667-0.833,1s-1.5,0.833-1.5,0.833H637   c0,0-0.666,0-1.333,0s-1.667,0-1.667,0l-0.667,0.667c0,0-0.167,0.332,0,1.166s-0.148,0.833-0.074,1.5s-0.012,2-0.012,2v0.979   l-0.497,0.562v0.312l-0.625,0.5l-0.312,0.375c-0.25,0.438-0.562,0.625-0.688,0.875s0,0.812,0,0.812l-0.056,0.625v0.312   l-0.632,0.438c0,0-0.25-0.438-0.5,0s-0.312,0.875-0.312,0.875v0.5v1v0.812c0,0,0.5,0.375,0.5,0.562s0,0.188,0,0.188l0.062,0.75   v0.312L630.25,557l0.062,0.438c0,0-0.125,0.5,0.125,0.75S631,558.75,631,558.75s0.188,0.125,0.25,0.312s0.312,0.625,0.312,0.625   v0.562l-0.062,0.438c0,0-0.062,0.75,0.062,0.938s0.375,0.5,0.375,0.5l0.625,0.375l0.062,0.375c0,0,0.062,0.375,0.062,0.562   s0,0.625,0,0.625s-0.062,0.438,0.062,0.812s0.312,1.25,0.5,1.438s0.188,0.188,0.188,0.188s0.188,0.438,0.562,0.562   s0.812,0.375,0.812,0.375l0.562,0.812l0.5,0.312l0.125,0.375c0,0-0.5-0.125-0.75,0s-0.25,0.125-0.25,0.125   s-0.312,0.125-0.312,0.312s0,0.438-0.062,0.75s0,0.562-0.062,0.75s-0.062,0.188-0.062,0.188s-0.188,0.5,0,0.562   s0.75,0.25,0.938,0.312s0.562-0.5,0.688,0s0.312,0.812,0.312,0.812s-0.375,0.375-0.75,0.438s-0.375,0.062-0.375,0.062h-0.562   c0,0-0.062,0.062-0.25,0s-0.188-0.062-0.188-0.062l-0.125,0.562c0,0-0.375-0.5-0.375,0s-0.125,0.812-0.125,0.812s0,0-0.125,0.312   s-0.188,0.25-0.312,0.938s-0.125,0.688-0.125,0.688l-0.438,0.875c0,0-0.438,0.25-0.438,0.625s-0.062,0.75-0.062,0.75   c-0.375,0.188-1.25,0.438-1.25,0.438l-0.188,0.375l-0.188,0.688l-0.25,1.438c0,0,0.062,0.562-0.188,0.812s0.312,0-0.25,0.25   s-0.938,0-0.938,0l-0.688,0.438l-0.375,0.312c0,0,0.375,0.062,0,0.25s-0.438,0.25-0.438,0.5s-0.25,0.312-0.375,0.812   s0.25,0.688,0,1s-0.053,0.625-0.026,0.812s-0.036-0.375,0.026,0.188s-0.125,1.312-0.125,1.312h-0.312l-0.438,0.688   c0,0,0,0.25,0,0.438s-0.312,0.75-0.312,0.75c0,1.188,0,1.625,0,1.625s0.125,0,0,0.25s0,1.25,0,1.25s-0.299,0.062-0.056,0.312   s0.243-0.375,0.243,0.25s0.438,2.188,0.438,2.188s-0.125,0.062,0.188,0.438s1.312,1.312,1.312,1.312s0.312,0.312,0.375,0.5   s0-0.25,0.062,0.188s0.438,1,0.812,1.5s1,1.188,1,1.188s0,0.125,0,0.312s0,0.375,0,0.562s-0.062,0.812-0.062,0.812   s0.5,1.062,0.188,1.312s-0.062-0.188-0.312,0.25s-0.375,0.625-0.438,0.875s-0.188,0.188-0.25,0.75s0,1.188,0,1.188   s0.125,0.125,0.25,0.375S630,608.25,630,608.25s0.188,0.188,0.188,0.375s0.312,0.812,0.312,0.812s0,0.062,0,0.375   s0.062-0.188,0,0.312s0.062,1.25,0.438,1.438s0.375,0.188,0.375,0.188s0.625,0.625,0.75,1.062s-0.188-0.125,0.125,0.438   s0.375,0.812,0.5,1s0.438,0.188,0.625,0.438s-0.062-0.188,0.188,0.25s0.25,0.438,0.562,0.812s0.625,0.625,0.938,0.875   s0.688,0.5,0.688,0.5l0.75,0.5c0,0,0.375,0.125,0.688,0.312s0.625,0.25,1,0.562s1.125,0.625,1.125,0.625h0.438h0.625l0.812,0.625   c0,0,0.688,0.25,0.75,0.5s0.375,0.312,0.625,0.5s0.75,0.438,1.062,0.438s1.938,0,1.938,0s0.938-0.188,1.375-0.375   s-0.062,0.125,0.438-0.188s2.875-1.375,2.875-1.375l0.258-0.75c0,0-0.18-0.5,0-0.562s0.805-0.812,1.117-0.875   s0.312-0.062,0.312-0.062h2.5h0.562l2.25-0.438L657.5,616l0.375-0.938c0,0,0.25-0.625,0.312-0.812s0.438-1.562,0.562-1.75   s0.375-0.812,0.375-0.812s0-0.5,0.125-0.688s0.125-1.25,0.625-1.75s0.562-1.25,0.562-1.25s0.438-0.875,0.438-1.125   s0.875-1.188,0.938-1.5s0.562-1.812,0.562-1.812l0.375-0.812l0.062-1.812l0.312-0.625l0.688-1.562c0-0.438,0.125-2.188,0.125-2.188   s0-0.188,0.125-0.438s0.438-1,0.5-1.25s0.062-0.75,0.062-0.75s0-0.5-0.062-0.75s0.125-1.375,0.125-1.375l0.5-0.75   c0,0,0.625-0.562,0.75-1.188s0.438-2.188,0.438-2.375s0.125-0.812,0.438-1s0.562-0.875,0.875-1.125s0.688-1.75,0.688-1.75   s-0.062-0.312,0-0.562s0.312-1.875,0.312-1.875l0.25-1.5c0,0,0.188-1,0.25-1.25s0.688-2.062,0.875-2.25s0.562-1.375,0.562-1.375   l0.188-1.5c0.125-0.5,0.75-1.875,0.75-1.875s0.062-0.688,0.062-0.875s0.375-0.688,0.375-0.875s0.188-1.562,0.188-1.562l0.812-1.438   c0,0,0.375-0.438,0.375-0.625s0.25-1.125,0.25-1.125s0.125-0.938,0.188-1.25s0.438-1.062,0.562-1.312s0.959-0.75,0.792-1   s-0.542-1.5-0.542-1.5s0.066-0.625,0.564-0.75s1.248-0.938,1.248-0.938l0.5-0.75c0,0,0-0.625,0-0.812s0-0.688,0-0.688l0.5-0.812   v-1.25c0,0-0.312-0.438,0-0.625s0.312-0.312,0.625-0.625s0.375-0.688,0.375-0.688s-0.312-0.375-0.5-0.375s-0.375-0.062-0.688-0.062   s-0.562-0.562-0.562-0.562l-0.438-1.625l-0.438-0.438l0.625-1.562h1.688l0.312-1c0.375-0.375,0.75-1.375,0.75-1.375   s0.375-0.375,0.5-0.625s0.312-0.688,0.312-0.688v-0.5l-0.562-1.688l0.062-0.375l0.125-1c0,0-0.188-0.312-0.312-0.562   S679.125,539,679.125,539l-0.562-0.75l-0.188-0.562v-1.375c0,0,0.062-0.688,0-0.875s-0.438-0.875-0.438-0.875   s-0.062-0.062-0.062-0.375s0.562-1.688,0.562-1.688l0.688,0.5c0,0,0.125,0.125,0.125,0.312s0,0.688,0,0.688l0.062,0.438l0.25,0.625   c0,0,0.5-0.125,0.438,0.25s0.5,0.812,0.5,0.812c0.312,0.375,0.312,0.375,0.312,0.375l0.375,0.875v0.25l0.312,0.312l0.375,0.25   c0,0,0.125-0.125,0.312,0.062s-0.812,0.625,0.188,0.188s1.25-0.875,1.375-1.125s0.375-0.688,0.375-0.938s0-0.75,0-0.938   s0-0.562,0-0.562l0.438-0.5V534c0,0,0-0.375,0-0.688s0-1.312,0-1.312v-0.375c0,0,0.062-0.438,0-0.625S684,529.875,684,529.875   l-0.062-0.5l-0.188-0.5l-0.625-1c0,0,0.062-0.062-0.125-0.562s-0.438-1.125-0.438-1.125S682.438,526,682.5,525.5   s0.438-1.75,0.438-1.75v-1.25c0,0,0.125-0.5,0.125-0.75s0.188-0.875,0.188-0.875l0.125-1.25c0,0,0-0.25-0.25-0.438   s-0.188-0.375-0.438-0.688s0,0.062-0.25-0.312s-0.562-0.812-0.688-1s-0.25-0.688-0.25-0.688v-1l-0.188-0.5   c0,0-0.25-0.25-0.312-0.625s-0.312-1-0.312-1v-0.438l-0.25-0.875l-0.312-0.312l-0.625-1.312l-0.75-1.375l-0.938-0.875   c0,0-0.562-1.062-0.812-1.188s-0.688-0.875-0.688-0.875l-0.375-0.312l-0.688-0.625L675.167,504.667z"/></g></svg>