<?xml version="1.0" encoding="utf-8"?><!DOCTYPE svg PUBLIC "-//W3C//DTD SVG 1.1//EN" "http://www.w3.org/Graphics/SVG/1.1/DTD/svg11.dtd"><svg version="1.1" xmlns="http://www.w3.org/2000/svg" xmlns:xlink="http://www.w3.org/1999/xlink" x="0px" y="0px" viewBox="0 0.712 100 123.22125" enable-background="new 0 0.712 100 98.577" xml:space="preserve"><g><polygon fill="#FFFFFF" points="100,78.964 99.08,79.834 95.586,81.565 92.235,81.05 90.167,83.328 90.588,85.22 92.189,84.93 94.858,82.089 
		96.265,83.186 93.548,85.463 96.653,89.104 95.081,89.876 92.481,87.452 90.833,88.325 90.833,90.269 90.167,90.269 89.373,88.616 
		89.134,83.328 91.803,80.033 95.213,80.614 	"/><polygon fill="#FFFFFF" points="83.266,88.325 82.732,85.868 77.686,86.189 75.844,81.147 77.686,78.964 79.675,80.323 79.626,77.893 84.237,71.3 
		85.056,71.639 88.842,66.204 89.619,66.544 85.885,72.122 87.244,72.95 85.981,74.354 87.244,78.381 90.833,78.137 90.167,80.277 
		87.773,80.42 85.106,84.879 85.544,87.935 	"/><polygon fill="#FFFFFF" points="85.415,46.153 84.608,43.144 81.982,43.144 83.538,39.489 85.707,38.646 83.832,37.546 87.578,35.996 
		86.996,33.023 85.64,31.955 86.354,30.629 90.395,32.47 92.725,39.258 88.777,41.528 87.842,39.489 86.611,42.208 87.42,46.153 	
		"/><polygon fill="#FFFFFF" points="83.538,24.869 84.67,24.031 85.317,26.065 89.166,26.456 88.682,28.784 86.611,28.72 84.96,30.109 83.538,27.362 	
		"/><polygon fill="#FFFFFF" points="85.64,62.485 84.218,63.259 83.957,60.022 82.019,60.022 82.019,56.079 83.702,55.366 83.957,57.956 
		85.834,58.537 86.225,60.53 90.105,60.53 91.2,62.646 93.208,61.776 95.213,65.395 91.528,69.209 92.107,66.816 89.913,64.358 
		88.034,64.944 	"/><polygon fill="#FFFFFF" points="77.15,49.13 78.313,54.611 76.593,53.976 76.031,51.018 	"/><polygon fill="#FFFFFF" points="70.647,57.571 69.727,60.53 68.272,59.463 69.291,57.571 	"/><polygon fill="#FFFFFF" points="63.969,81.239 62.939,78.201 61.448,77.699 61.448,72.444 61.901,72.444 62.158,75.809 63.259,75.615 
		65.977,77.686 67.592,85.123 70.246,86.674 70.371,93.725 76.325,93.531 77.555,94.893 81.37,94.824 83.244,96.895 89.585,95.924 
		90.167,97.932 83.184,99.289 76.197,96.374 71.41,95.989 64.486,91.46 59.635,82.472 54.594,78.396 58.152,77.699 62.709,81.565 	
		"/><polygon fill="#FFFFFF" points="63.586,32.6 61.839,36.221 64.486,37.391 68.756,36.221 66.625,39.195 74.256,45.73 73.415,53.425 66.363,56.276 
		66.687,54.073 63.779,54.915 62.547,58.795 71.342,64.814 71.023,69.862 69.402,70.764 70.112,72.058 67.334,75.031 67.334,72.122 
		65.782,70.378 63.841,71.8 61.189,70.507 60.27,66.442 57.94,67.171 57.554,68.775 54.883,70.378 55.511,66.936 51.392,62.37 
		49.598,64.944 45.665,64.358 47.655,67.171 44.065,72.025 42.365,71.736 42.365,79.236 40.103,81.565 34.994,74.967 35.897,73.157 
		33.761,71.736 29.299,72.509 25.354,69.148 25.354,63.649 22.896,60.48 17.144,60.093 15.91,58.277 13.841,59.509 7.891,56.794 
		7.891,54.657 4.917,47.607 1.938,48.642 2.521,46.245 0,45.282 0.516,40.686 3.685,39.843 10.347,31.564 6.987,28.849 
		12.031,28.136 13.716,21.278 24.64,19.861 31.889,15.204 30.854,13.064 47.759,10.127 58.083,1.103 76.065,0.712 76.52,4.076 
		73.735,4.656 74,6.341 79.105,6.786 81.37,10.998 72.507,8.407 71.733,4.656 68.756,5.046 69.207,7.113 72.442,10.672 
		67.462,9.897 62.032,10.804 62.415,14.684 68.628,13.127 77.686,18.366 77.297,23.934 76.006,23.934 74.712,22.443 72.704,23.348 
		72.183,26.262 74.772,25.613 75.293,28.587 73.479,31.178 77.295,34.477 75.548,36.027 71.861,32.536 68.111,32.729 67.075,34.349 
		66.108,33.7 66.818,31.763 	"/><polygon fill="#FFFFFF" points="44.502,86.287 43.527,85.123 44.65,83.963 44.502,77.699 47.365,79.834 47.365,83.572 	"/></g></svg>