<svg xmlns="http://www.w3.org/2000/svg" xmlns:xlink="http://www.w3.org/1999/xlink" version="1.1" x="0px" y="0px" viewBox="0 0 100 100" enable-background="new 0 0 100 100" xml:space="preserve"><g><path fill="#FFFFFF" d="M94.37,47.447c0.06-0.041,0.141-0.133,0.18-0.203c0.038-0.071,0.141-0.201,0.226-0.289c0.087-0.088,0.24-0.153,0.341-0.145   s0.208-0.009,0.238-0.039l0.109-0.086l0.156-0.032l0.145-0.022c0.024-0.013,0.115-0.019,0.203-0.013   c0.089,0.007,0.405-0.169,0.704-0.391s0.547-0.431,0.551-0.465l-0.039-0.105l-0.105-0.051l0.012-0.051l0.02-0.09   c-0.027-0.026-0.147-0.07-0.266-0.098s-0.177-0.053-0.129-0.055l0.141-0.027l0.148-0.129l0.094-0.18l-0.031-0.141l0.035-0.114   l0.082-0.136l-0.039-0.145l-0.102-0.142c-0.026-0.047-0.177-0.134-0.336-0.191s-0.354-0.093-0.434-0.078   c-0.08,0.016-0.182,0.066-0.228,0.114l-0.155,0.101l-0.087-0.062l0.082-0.164l0.113-0.157l-0.011-0.141l-0.105-0.145   c-0.041-0.04-0.175-0.086-0.298-0.102c-0.122-0.016-0.258-0.021-0.301-0.012s-0.344,0.172-0.669,0.363   c-0.323,0.192-0.651,0.367-0.727,0.392c-0.074,0.023-0.159,0.081-0.188,0.129c-0.027,0.047-0.128,0.119-0.223,0.16   c-0.095,0.04-0.178,0.057-0.184,0.035l0.027-0.09l0.039-0.091l-0.066-0.105l-0.125-0.09l-0.109-0.074l-0.113-0.07l-0.063-0.047   l0.035-0.022c0.021,0.002,0.135,0.051,0.256,0.108c0.119,0.059,0.248,0.105,0.284,0.105l0.066-0.066   c0-0.036,0.145-0.102,0.32-0.145c0.177-0.042,0.311-0.118,0.297-0.167l0.004-0.105c0.016-0.01,0.335-0.111,0.712-0.228   c0.376-0.116,0.725-0.237,0.773-0.27l0.074-0.137c-0.008-0.043-0.099-0.117-0.199-0.164c-0.101-0.048-0.326-0.104-0.5-0.125   c-0.175-0.021-0.349-0.071-0.387-0.109l-0.09-0.133c-0.011-0.035-0.085-0.083-0.164-0.106c-0.08-0.023-0.155-0.03-0.168-0.015   c-0.014,0.014-0.14,0.098-0.282,0.184c-0.142,0.085-0.208,0.106-0.147,0.047l0.102-0.212l-0.039-0.128l-0.032-0.036l-0.07-0.016   l-0.105,0.043l-0.105,0.098l-0.09-0.059l-0.109-0.03l-0.191,0.12l-0.09-0.031c0.006-0.043,0.058-0.136,0.112-0.207   c0.057-0.07,0.103-0.187,0.103-0.258c0-0.07-0.036-0.137-0.082-0.147l-0.16-0.06l-0.117-0.094l-0.134-0.09l-0.093-0.074   L92.6,41.347l-0.164-0.07l-0.114-0.122l-0.073-0.112l-0.11-0.012l-0.113-0.012l-0.082-0.023l0.043-0.02l0.047-0.086l-0.113-0.199   l-0.207-0.169l-0.188-0.129l-0.004-0.102l0.156,0.008l0.117,0.09l0.118,0.013l0.128-0.09l0.138-0.074l0.164-0.11l0.023-0.145   c-0.028-0.032-0.127-0.115-0.219-0.184c-0.093-0.068-0.185-0.159-0.204-0.199l-0.074-0.105l-0.121-0.031   c-0.045,0-0.016-0.046,0.067-0.102c0.081-0.056,0.136-0.146,0.12-0.199l-0.12-0.156l-0.177-0.059l-0.059-0.042v-0.133   c-0.013-0.05-0.153-0.087-0.312-0.083s-0.24-0.01-0.18-0.031l0.184-0.113l0.074-0.11l-0.023-0.109   c-0.013-0.042-0.089-0.085-0.168-0.098c-0.08-0.013-0.159-0.032-0.176-0.043l0.02-0.067c0.027-0.025,0.051-0.112,0.051-0.191   c0-0.08-0.052-0.148-0.113-0.153l-0.113-0.09l-0.055-0.137l-0.071-0.098l-0.015-0.083l-0.083-0.082l-0.151-0.125l-0.142-0.133   l-0.074-0.109l-0.022-0.086l-0.047-0.051l-0.048-0.109l-0.082-0.125l-0.043-0.121l-0.026-0.11l-0.149-0.042   c-0.056-0.009-0.103-0.125-0.105-0.258c-0.002-0.133-0.032-0.271-0.066-0.308l-0.129-0.051l-0.008,0.07v0.105l-0.094,0.142   l-0.086,0.133c-0.027,0.023-0.069,0.125-0.09,0.227c-0.021,0.101-0.081,0.184-0.133,0.184l-0.161,0.098l0.005,0.16l0.113,0.121   c0.023,0.032-0.033,0.127-0.125,0.211c-0.093,0.084-0.132,0.21-0.086,0.282c0.044,0.071,0.048,0.145,0.008,0.164l-0.164,0.05   l-0.09,0.043l-0.091,0.079l-0.066,0.113l0.094,0.133l0.028,0.172l-0.095,0.157l-0.05-0.063l-0.02-0.18l-0.048-0.109l-0.09-0.102   l-0.117-0.055c-0.029,0-0.097,0.089-0.148,0.196c-0.051,0.107-0.128,0.21-0.172,0.227l-0.176,0.031   c-0.054,0-0.161,0.051-0.238,0.114s-0.183,0.122-0.234,0.133h-0.192l-0.155,0.039l-0.027-0.055   c0.017-0.062,0.015-0.171-0.005-0.242c-0.019-0.071-0.066-0.119-0.105-0.105c-0.038,0.013-0.095,0.113-0.125,0.222   c-0.029,0.11-0.079,0.246-0.109,0.301c-0.029,0.056-0.204,0.172-0.387,0.258c-0.183,0.086-0.189,0.073-0.016-0.028   c0.175-0.102,0.331-0.201,0.349-0.223c0.017-0.021,0.053-0.111,0.081-0.199s0.018-0.25-0.023-0.359   c-0.04-0.109-0.116-0.244-0.168-0.297c-0.052-0.053-0.222-0.092-0.378-0.086c-0.158,0.007-0.375,0.079-0.481,0.16   c-0.107,0.082-0.246,0.122-0.31,0.09l-0.175-0.122l0.011-0.062l0.129-0.09l0.102-0.058l0.13,0.063h0.133l0.059-0.083l0.042-0.141   l0.035-0.145l0.028-0.118l-0.07-0.074l-0.184-0.125l-0.043-0.141l0.062-0.082l-0.008-0.156l-0.074-0.149   c-0.026-0.025-0.271-0.078-0.544-0.117c-0.272-0.039-0.339-0.055-0.147-0.036c0.19,0.02,0.391,0.011,0.445-0.019l0.148-0.054   c0.027,0,0.073-0.074,0.102-0.165c0.027-0.09,0.024-0.215-0.009-0.277l-0.03-0.223l0.117-0.234l0.078-0.223l-0.059-0.129   l-0.172,0.046l-0.2,0.055l-0.098-0.066l-0.074-0.079l-0.129-0.015l-0.16,0.02l-0.18-0.039l-0.184-0.051   c-0.047-0.006-0.174-0.054-0.281-0.105c-0.107-0.052-0.236-0.133-0.285-0.18l-0.121-0.148l-0.012-0.133l0.02-0.129   c0-0.033-0.076-0.064-0.168-0.071c-0.093-0.006-0.179-0.038-0.192-0.07l-0.022-0.129c0-0.039-0.064-0.087-0.142-0.109   s-0.159-0.009-0.184,0.027l-0.109,0.062l-0.019-0.066c0.025-0.034,0.039-0.137,0.03-0.227c-0.009-0.09-0.064-0.165-0.125-0.165   c-0.06,0-0.241-0.081-0.402-0.179s-0.33-0.192-0.375-0.207c-0.046-0.015-0.227,0.057-0.403,0.16   c-0.175,0.104-0.329,0.196-0.339,0.207c-0.011,0.011-0.087-0.01-0.168-0.046c-0.082-0.037-0.269-0.069-0.415-0.07   c-0.146-0.002-0.305,0.011-0.351,0.03l-0.071-0.03c0.008-0.037-0.191-0.136-0.445-0.219c-0.254-0.084-0.588-0.158-0.743-0.164   c-0.154-0.006-0.332,0.009-0.395,0.035l-0.215,0.129l-0.16,0.192c-0.032,0.06-0.055,0.183-0.051,0.273   c0.004,0.09,0.028,0.222,0.055,0.293c0.025,0.071,0.071,0.153,0.102,0.184l0.113,0.086l0.098,0.07l0.035,0.101l-0.062,0.141   c-0.032,0.044-0.059,0.147-0.059,0.231s-0.057,0.223-0.125,0.309c-0.069,0.085-0.12,0.182-0.113,0.214l0.105,0.109   c0.052,0.028,0.136,0.114,0.188,0.191s0.076,0.183,0.056,0.234l-0.017,0.13l0.027,0.124c0.003,0.05,0.061,0.165,0.129,0.254   c0.069,0.09,0.127,0.191,0.129,0.223l-0.038,0.117l-0.028,0.152l-0.039,0.059l-0.137-0.035l-0.141,0.105l-0.059,0.152   c0,0.026-0.016,0.107-0.035,0.18c-0.02,0.073-0.103,0.171-0.184,0.218c-0.082,0.047-0.152,0.104-0.156,0.125l-0.039,0.102   l-0.103,0.086c-0.038,0.013-0.073,0.093-0.077,0.18c-0.005,0.086,0.008,0.172,0.027,0.191l0.128,0.043   c0.052,0.004,0.161,0.075,0.243,0.156c0.081,0.082,0.232,0.191,0.336,0.243c0.104,0.051,0.266,0.178,0.36,0.281   c0.095,0.103,0.282,0.461,0.418,0.797c0.135,0.335,0.239,0.783,0.23,0.997c-0.009,0.212-0.04,0.436-0.071,0.496   c-0.029,0.06-0.325,0.355-0.656,0.656c-0.33,0.301-0.931,0.688-1.333,0.859c-0.402,0.173-0.68,0.362-0.617,0.423   c0.062,0.06,0.148,0.173,0.191,0.25c0.044,0.077,0.079,0.17,0.079,0.207l0.108,0.043c0.061-0.013,0.104,0.042,0.099,0.121   c-0.007,0.079,0.013,0.175,0.042,0.211l-0.011,0.137c-0.037,0.039,0,0.293,0.082,0.562c0.081,0.271,0.148,0.526,0.148,0.567   s0.061,0.184,0.137,0.317c0.075,0.133,0.121,0.255,0.101,0.272c-0.019,0.018-0.094,0.126-0.167,0.242s-0.143,0.258-0.153,0.313   l0.062,0.175l0.078,0.149l-0.12,0.12l-0.184-0.019l-0.114-0.141l-0.098-0.074l-0.102,0.03l-0.098,0.095l-0.059,0.141l0.004,0.16   l0.059,0.152l0.052,0.156c0.004,0.048-0.062-0.002-0.146-0.109s-0.207-0.219-0.273-0.246s-0.249-0.011-0.406,0.039   s-0.24,0.044-0.185-0.012l0.126-0.148l0.023-0.082c0-0.02-0.018-0.103-0.039-0.184c-0.021-0.082-0.085-0.172-0.141-0.199   c-0.057-0.028-0.162-0.111-0.235-0.185c-0.073-0.072-0.187-0.166-0.253-0.207c-0.067-0.041-0.201-0.098-0.298-0.125   s-0.135-0.066-0.086-0.085l0.082-0.098c-0.004-0.035-0.045-0.13-0.089-0.212c-0.046-0.082-0.16-0.224-0.255-0.316   s-0.185-0.21-0.199-0.262s0-0.184,0.035-0.294c0.034-0.108,0.065-0.252,0.07-0.316s-0.045-0.285-0.109-0.491   c-0.064-0.207-0.115-0.419-0.113-0.47l0.055-0.188c0.027-0.052,0.048-0.188,0.043-0.305s-0.029-0.255-0.055-0.309   c-0.026-0.055-0.188-0.088-0.359-0.075c-0.172,0.014-0.343,0.007-0.38-0.015c-0.036-0.021-0.154-0.038-0.261-0.035   c-0.108,0.001-0.221-0.035-0.251-0.083c-0.03-0.047-0.296-0.08-0.59-0.073c-0.295,0.006-0.589,0.081-0.652,0.168   c-0.065,0.086-0.098,0.094-0.075,0.019c0.024-0.075,0.037-0.18,0.027-0.233l-0.14-0.219c-0.069-0.066-0.525-0.239-1.013-0.384   s-0.918-0.291-0.954-0.328c-0.036-0.036-0.094-0.124-0.128-0.195c-0.035-0.071-0.297-0.277-0.583-0.457   c-0.286-0.182-0.647-0.362-0.805-0.403c-0.157-0.04-0.368-0.078-0.469-0.082c-0.102-0.004-0.264-0.069-0.36-0.145   s-0.284-0.134-0.418-0.129c-0.134,0.004-0.549,0.109-0.923,0.234s-0.66,0.207-0.637,0.184s0.089-0.16,0.146-0.305   c0.055-0.145,0.091-0.302,0.077-0.352c-0.013-0.049-0.062-0.149-0.109-0.223c-0.048-0.073-0.126-0.248-0.176-0.387   c-0.05-0.14-0.107-0.267-0.129-0.281l-0.039-0.102l-0.047-0.168c-0.026-0.052-0.058-0.154-0.07-0.227   c-0.014-0.073-0.034-0.148-0.047-0.168l-0.145-0.066c-0.066-0.017-0.246-0.025-0.398-0.019c-0.153,0.006-0.296,0.131-0.317,0.277   c-0.021,0.146-0.057,0.295-0.078,0.332c-0.021,0.037-0.038-0.037-0.038-0.163c0-0.127-0.015-0.264-0.031-0.306l-0.095-0.156   l-0.081-0.157l-0.106-0.152l-0.086-0.125l0.043-0.129l0.039-0.192l-0.022-0.188c-0.012-0.043-0.007-0.222,0.011-0.398   c0.018-0.177,0.026-0.363,0.02-0.415l0.02-0.121l0.013-0.129l-0.055-0.101l-0.035-0.075l0.077-0.093   c0.043-0.011,0.191-0.208,0.328-0.438c0.138-0.23,0.251-0.458,0.251-0.508l0.055-0.183c0.03-0.052,0.117-0.134,0.195-0.184   c0.077-0.049,0.185-0.143,0.238-0.207l0.07-0.145l-0.027-0.098l0.07-0.16l0.172-0.093l0.145-0.055l0.074-0.122l-0.031-0.098   l0.012-0.035l0.105-0.035l0.07-0.083l0.074-0.085l0.027-0.09c-0.005-0.033,0.062-0.057,0.148-0.055   c0.086,0.002,0.2-0.006,0.255-0.019l0.038-0.094l-0.136-0.083l-0.087-0.074c-0.004-0.034,0.088-0.062,0.203-0.062   c0.116,0,0.247,0.012,0.29,0.028c0.042,0.015,0.137,0.03,0.21,0.035c0.073,0.005,0.197-0.041,0.274-0.101   c0.077-0.061,0.187-0.119,0.242-0.129l0.138-0.055c0.019-0.019,0.039-0.13,0.046-0.246c0.006-0.116-0.083-0.253-0.199-0.305   c-0.116-0.051-0.241-0.093-0.277-0.093c-0.037,0-0.171-0.084-0.297-0.188c-0.127-0.104-0.301-0.139-0.388-0.079   c-0.085,0.06-0.223,0.113-0.305,0.118c-0.081,0.003-0.099-0.044-0.038-0.106l0.055-0.128l-0.103-0.016   c-0.025,0-0.148-0.043-0.273-0.098s-0.291-0.079-0.371-0.054c-0.08,0.023-0.177,0.033-0.215,0.023l-0.152-0.082l-0.035-0.09   l0.047-0.141l0.051-0.051l0.156,0.098l0.124,0.062c0.012,0.015,0.089,0.037,0.173,0.047s0.236,0.06,0.341,0.109   c0.103,0.05,0.229,0.099,0.28,0.109s0.156,0.017,0.23,0.012c0.076-0.005,0.286,0.044,0.469,0.109   c0.184,0.065,0.36,0.149,0.396,0.188l0.148,0.07l0.188-0.043l0.184-0.043l0.137-0.011l0.137-0.118l0.082-0.187l-0.02-0.141   l0.028-0.086l0.003-0.07l-0.007-0.113l0.12-0.07l0.118,0.062l0.073,0.105c0.024,0.023,0.112,0.036,0.195,0.027   c0.084-0.009,0.25-0.004,0.367,0.012c0.119,0.015,0.333-0.012,0.478-0.059s0.303-0.118,0.352-0.156l0.094-0.172   c0.003-0.056,0.067-0.158,0.145-0.227c0.078-0.069,0.188-0.188,0.243-0.266s0.144-0.17,0.195-0.207l0.147-0.153l0.067-0.188   l-0.078-0.176c-0.05-0.041-0.437-0.101-0.86-0.133c-0.423-0.032-0.845-0.115-0.938-0.184c-0.093-0.068-0.209-0.172-0.258-0.23   c-0.05-0.058-0.236-0.179-0.415-0.27c-0.178-0.09-0.505-0.173-0.727-0.184s-0.155-0.025,0.149-0.031   c0.302-0.006,0.585-0.026,0.629-0.043l0.19-0.004c0.062,0.015,0.404,0.211,0.759,0.438s0.807,0.408,1.005,0.403   c0.197-0.004,0.452-0.101,0.566-0.215s0.242-0.222,0.285-0.238l0.117-0.09l0.07-0.148l0.109-0.109l0.129-0.141l0.039-0.2   c-0.006-0.043-0.069-0.101-0.141-0.128c-0.07-0.028-0.159-0.086-0.195-0.13L70.76,27.55l0.066-0.09   c0.047-0.011,0.189-0.02,0.316-0.02s0.268,0.011,0.313,0.023l0.168-0.059l0.116-0.054l0.071,0.122   c0.021,0.051,0.121,0.146,0.223,0.21c0.101,0.064,0.271,0.126,0.379,0.137c0.107,0.011,0.192-0.031,0.188-0.094l0.03-0.074   l0.157,0.062l0.191,0.074l0.173,0.055l0.089-0.09c-0.004-0.051-0.067-0.15-0.141-0.218c-0.073-0.069-0.14-0.15-0.148-0.18   s-0.153-0.162-0.321-0.293c-0.167-0.131-0.353-0.238-0.413-0.238l-0.051-0.051c0.032-0.028,0.143-0.051,0.246-0.051   c0.103,0,0.205,0.019,0.227,0.04l0.047,0.125l0.113,0.137l0.168,0.051l0.082,0.019c0.011,0.01,0.057,0.083,0.103,0.16   c0.044,0.077,0.155,0.198,0.245,0.27c0.09,0.071,0.353,0.006,0.583-0.145c0.229-0.15,0.446-0.274,0.48-0.274l0.117-0.054   c0.03-0.03,0.087-0.114,0.125-0.188c0.039-0.073,0.143-0.138,0.23-0.144c0.089-0.007,0.175-0.028,0.191-0.047   c0.018-0.019,0.086-0.167,0.152-0.328s-0.044-0.446-0.246-0.634c-0.201-0.186-0.425-0.468-0.496-0.625   c-0.071-0.157-0.179-0.31-0.238-0.34l-0.11-0.129c0-0.041,0.103-0.067,0.228-0.059c0.125,0.008,0.29,0.005,0.367-0.008   s0.155-0.038,0.172-0.055l0.11-0.063l0.141-0.085l0.105-0.129l-0.024-0.133l-0.16-0.066l-0.18-0.059l-0.055-0.083l0.118-0.066   l0.147-0.105l0.066-0.129l-0.023-0.094c-0.015-0.02-0.103-0.053-0.195-0.074c-0.093-0.022-0.234-0.039-0.316-0.039   c-0.081,0-0.201-0.058-0.266-0.13c-0.064-0.07-0.2-0.167-0.301-0.214c-0.102-0.047-0.119-0.093-0.039-0.102   c0.079-0.008,0.136-0.06,0.125-0.113c-0.011-0.054-0.265-0.116-0.562-0.138c-0.3-0.021-0.625-0.078-0.724-0.125   s-0.286-0.092-0.418-0.101c-0.131-0.009-0.281,0.004-0.333,0.03c-0.051,0.026-0.16,0.05-0.241,0.055   c-0.082,0.004-0.149,0.06-0.149,0.125l-0.03,0.199c-0.018,0.045-0.02,0.172-0.005,0.282c0.016,0.109,0.095,0.247,0.177,0.305   c0.081,0.058,0.206,0.128,0.276,0.156c0.071,0.028,0.084,0.095,0.028,0.148l-0.141,0.156l0.047,0.125l0.07,0.082l-0.095,0.016   c-0.043,0-0.167,0.031-0.276,0.07c-0.109,0.039-0.245,0.199-0.301,0.356c-0.057,0.156-0.104,0.329-0.106,0.382l-0.059,0.195   c-0.03,0.054-0.136,0.187-0.234,0.293c-0.099,0.107-0.188,0.271-0.198,0.364c-0.012,0.092-0.042,0.21-0.067,0.262   c-0.026,0.052-0.113,0.107-0.195,0.125c-0.082,0.017-0.205,0.088-0.273,0.16c-0.069,0.07-0.171,0.155-0.227,0.187l-0.149,0.012   l-0.027-0.149l-0.051-0.215c-0.038-0.062-0.202-0.243-0.363-0.402c-0.161-0.159-0.302-0.344-0.312-0.41   c-0.011-0.067-0.013-0.22-0.004-0.34s0.047-0.198,0.086-0.172l0.184,0.047l0.117-0.121c0.003-0.067-0.012-0.184-0.031-0.258   c-0.019-0.076-0.035-0.183-0.035-0.238c0-0.056-0.062-0.185-0.137-0.285c-0.075-0.102-0.201-0.207-0.281-0.235   c-0.079-0.027-0.213-0.121-0.297-0.207c-0.084-0.086-0.194-0.153-0.246-0.148l-0.184,0.047l-0.164,0.121l-0.11,0.208   c-0.019,0.069-0.074,0.194-0.124,0.278s-0.101,0.246-0.114,0.359c-0.013,0.114-0.065,0.248-0.117,0.297l-0.176,0.082   c-0.045-0.004-0.109-0.074-0.145-0.157c-0.034-0.081-0.062-0.21-0.062-0.285c0-0.076-0.021-0.23-0.046-0.344   c-0.026-0.114-0.069-0.249-0.095-0.301s-0.144-0.159-0.262-0.238c-0.119-0.08-0.144-0.144-0.055-0.141   c0.088,0.002,0.16-0.013,0.16-0.035l0.091-0.078l0.147-0.094l0.013-0.07c-0.026-0.009-0.18-0.019-0.341-0.024   c-0.161-0.004-0.293-0.046-0.293-0.094s-0.079-0.066-0.176-0.043c-0.097,0.024-0.211,0.061-0.255,0.082   c-0.043,0.022-0.23-0.028-0.418-0.109c-0.187-0.082-0.335-0.168-0.328-0.191l0.125-0.157l0.23-0.172l0.117-0.094l-0.093-0.062   l-0.095-0.098l0.055-0.09c0.03-0.011,0.16-0.008,0.289,0.005c0.13,0.013,0.234-0.016,0.234-0.062c0-0.047-0.06-0.101-0.133-0.118   c-0.073-0.017-0.161-0.091-0.195-0.164s-0.062-0.16-0.062-0.192l-0.078-0.137l-0.175-0.117c-0.055-0.021-0.188-0.111-0.298-0.199   c-0.109-0.088-0.174-0.185-0.145-0.215c0.03-0.03,0.057-0.156,0.059-0.282c0.003-0.125-0.066-0.3-0.152-0.391   c-0.086-0.09-0.227-0.203-0.313-0.25c-0.085-0.047-0.167-0.114-0.183-0.148s-0.093-0.1-0.173-0.145   c-0.079-0.045-0.213-0.085-0.296-0.09c-0.084-0.004-0.169-0.025-0.188-0.047c-0.021-0.021-0.15-0.049-0.29-0.062   s-0.377,0.037-0.527,0.109c-0.151,0.073-0.309,0.182-0.352,0.243l-0.027,0.16l0.148,0.051l0.105,0.078l-0.055,0.133l-0.129,0.055   l-0.18-0.074l-0.168-0.062l-0.113,0.066l-0.122,0.172c-0.034,0.064-0.059,0.27-0.055,0.457c0.005,0.187,0.098,0.372,0.208,0.41   c0.109,0.039,0.197,0.095,0.195,0.125l-0.113,0.055l-0.157,0.094l-0.121,0.183l-0.073,0.215l0.081,0.25l0.168,0.164l0.098,0.085   l0.11,0.13c0.054,0.044,0.25,0.133,0.438,0.195c0.187,0.062,0.408,0.113,0.492,0.113s0.185,0.014,0.223,0.031l0.125,0.086   l0.141,0.093l0.153,0.043c0.036,0.002,0.128-0.007,0.202-0.02c0.076-0.013,0.176-0.015,0.224-0.004l0.125,0.109   c0.021,0.049-0.023,0.132-0.098,0.184c-0.076,0.052-0.158,0.065-0.184,0.031l-0.161-0.062l-0.144,0.059l0.015,0.121l0.031,0.133   c-0.008,0.039-0.073,0.128-0.144,0.2c-0.071,0.07-0.138,0.169-0.148,0.218l0.073,0.105c0.052,0.009,0.152-0.019,0.223-0.062   c0.071-0.043,0.135-0.115,0.141-0.161l0.06-0.129l0.086-0.02l0.086,0.11c0.025,0.044,0.031,0.173,0.012,0.285   c-0.02,0.112-0.011,0.228,0.02,0.258c0.029,0.031-0.048,0.099-0.173,0.153c-0.124,0.054-0.24,0.126-0.258,0.16   c-0.017,0.035-0.145,0.156-0.284,0.27c-0.141,0.115-0.354,0.204-0.474,0.199c-0.12-0.004-0.245,0.01-0.277,0.031   s-0.103,0.138-0.156,0.258c-0.055,0.121-0.029,0.281,0.054,0.355c0.084,0.076,0.153,0.169,0.153,0.208l0.055,0.191l0.027,0.192   c-0.015,0.039-0.032,0.141-0.04,0.227c-0.006,0.086-0.042,0.178-0.081,0.203c-0.039,0.026-0.156,0.05-0.262,0.055   c-0.105,0.005-0.167,0.092-0.137,0.195c0.029,0.104,0.022,0.164-0.017,0.133l-0.093-0.109c-0.014-0.031-0.095-0.12-0.18-0.199   c-0.086-0.08-0.14-0.164-0.118-0.188l0.125-0.042l0.103-0.024l0.055,0.008c0.021,0.018,0.13,0.034,0.241,0.039   c0.112,0.004,0.204-0.059,0.204-0.141s-0.042-0.154-0.094-0.16l-0.098-0.05l-0.031-0.086l-0.109,0.016l-0.156,0.03l-0.074-0.109   l-0.09-0.118l-0.156-0.133c-0.037-0.051-0.013-0.182,0.054-0.29c0.067-0.106,0.146-0.286,0.177-0.398   c0.029-0.111,0.042-0.22,0.027-0.242l-0.102-0.035l-0.129,0.046l-0.102,0.062l-0.083,0.02l-0.066-0.086l-0.059-0.121l-0.12-0.047   c-0.053-0.007-0.143-0.08-0.2-0.164c-0.059-0.084-0.229-0.168-0.379-0.188c-0.151-0.019-0.299,0-0.328,0.042l-0.16,0.129   c-0.059,0.028-0.163,0.037-0.235,0.02c-0.07-0.018-0.121,0.007-0.113,0.054l0.07,0.125l0.031,0.094l-0.023,0.133l0.075,0.113   c0.04,0.019,0.213,0.035,0.383,0.035s0.335,0.024,0.367,0.055l0.113,0.055l0.078,0.098l0.023,0.179   c0,0.045-0.073,0.084-0.164,0.086c-0.09,0.001-0.217-0.009-0.282-0.023c-0.063-0.016-0.238-0.125-0.386-0.243   c-0.148-0.118-0.302-0.202-0.341-0.187l-0.019,0.078l0.023,0.098l-0.13,0.153c-0.055,0.058-0.44,0.056-0.855-0.005   c-0.415-0.06-0.842-0.081-0.95-0.046c-0.107,0.034-0.365,0.073-0.574,0.086c-0.209,0.013-0.618-0.052-0.91-0.146   c-0.293-0.092-0.571-0.209-0.618-0.262c-0.047-0.051-0.309-0.078-0.582-0.059c-0.273,0.02-0.553-0.035-0.621-0.121   c-0.068-0.086-0.236-0.199-0.372-0.25c-0.135-0.052-0.271-0.195-0.301-0.32c-0.029-0.125-0.129-0.297-0.219-0.383   c-0.09-0.085-0.215-0.165-0.277-0.176s-0.26,0.021-0.438,0.07c-0.179,0.05-0.378,0.122-0.442,0.16s-0.328,0.103-0.586,0.141   c-0.258,0.039-0.591,0.178-0.738,0.309c-0.148,0.13-0.167,0.272-0.043,0.312c0.124,0.042,0.327,0.075,0.449,0.075   s0.24-0.034,0.262-0.075l0.141-0.109l0.126-0.012c0.013,0.013,0.182-0.017,0.374-0.066c0.194-0.049,0.412-0.141,0.485-0.204   c0.073-0.062,0.197-0.126,0.276-0.144c0.081-0.018,0.188-0.032,0.239-0.032c0.051,0,0.09,0.065,0.086,0.146   c-0.004,0.079-0.099,0.16-0.211,0.179c-0.111,0.019-0.249,0.076-0.305,0.125l-0.227,0.161c-0.068,0.039-0.276,0.104-0.462,0.144   c-0.185,0.041-0.394,0.115-0.464,0.164c-0.072,0.05-0.149,0.155-0.173,0.234c-0.023,0.08,0.027,0.219,0.113,0.309   c0.086,0.09,0.176,0.198,0.2,0.238l0.046,0.176l0.056,0.183l0.112,0.142l0.106,0.183l-0.032,0.125l-0.098,0.027l-0.078,0.035   l-0.07,0.07l-0.007,0.122l0.062,0.137l0.077,0.152l-0.022,0.054c-0.026-0.011-0.163-0.133-0.306-0.273   c-0.142-0.14-0.282-0.253-0.312-0.253l-0.082-0.075l-0.098-0.145c-0.039-0.038,0.009-0.066,0.105-0.062   c0.097,0.003,0.181-0.033,0.188-0.083l0.004-0.16c-0.005-0.039-0.113-0.157-0.242-0.262c-0.129-0.105-0.263-0.17-0.297-0.144   l-0.152,0.078l-0.125-0.086l-0.035-0.211c0-0.052-0.148-0.129-0.328-0.172c-0.182-0.043-0.371-0.134-0.423-0.204l-0.211-0.128   c-0.064-0.002-0.184,0.024-0.266,0.058c-0.082,0.035-0.203,0.102-0.27,0.149s-0.318,0.107-0.559,0.133   c-0.241,0.026-0.492,0.037-0.56,0.024c-0.066-0.013-0.196,0.007-0.289,0.046s-0.354,0.074-0.582,0.079   c-0.229,0.004-0.49-0.021-0.582-0.055c-0.093-0.034-0.4-0.085-0.685-0.113c-0.284-0.028-0.553-0.086-0.599-0.13   c-0.044-0.042-0.03-0.16,0.032-0.262c0.062-0.101,0.148-0.198,0.191-0.214l0.125-0.07c0.025-0.021,0.172-0.042,0.324-0.043   c0.152-0.002,0.299-0.027,0.324-0.054l0.043-0.125c-0.002-0.041-0.233-0.238-0.516-0.438c-0.281-0.2-0.689-0.373-0.906-0.383   c-0.218-0.011-0.407,0.005-0.422,0.036l-0.07,0.098c-0.024,0.023-0.367-0.017-0.763-0.09s-0.901-0.236-1.125-0.363   c-0.224-0.127-0.604-0.241-0.845-0.254c-0.241-0.013-0.661-0.152-0.935-0.31c-0.272-0.156-0.665-0.327-0.871-0.378   c-0.206-0.052-0.584-0.076-0.841-0.055c-0.255,0.022-0.479,0.08-0.496,0.129l-0.093,0.156c-0.035,0.037-0.097,0.13-0.138,0.207   c-0.041,0.078-0.104,0.162-0.141,0.188c-0.036,0.026-0.201,0.045-0.367,0.043c-0.166-0.001-0.331-0.05-0.367-0.105l-0.02-0.144   l0.109-0.157l0.094-0.145l-0.091-0.074l-0.16-0.086c-0.021-0.023-0.04-0.133-0.042-0.242c-0.003-0.109-0.028-0.201-0.06-0.203   l-0.121,0.046l-0.065,0.09l-0.02,0.07l-0.075,0.066l-0.047,0.137l-0.039,0.103l-0.145,0.039l-0.133,0.089l0.032,0.118l0.019,0.118   l-0.027,0.113l-0.019,0.098l-0.103,0.035c-0.034,0-0.132-0.038-0.215-0.085c-0.084-0.047-0.173-0.086-0.199-0.086l-0.129-0.039   l-0.18-0.153l-0.168-0.164l-0.145-0.164l-0.079-0.18c-0.002-0.037-0.105-0.198-0.23-0.359c-0.124-0.162-0.256-0.313-0.293-0.336   l-0.16-0.141l-0.168-0.137l-0.16,0.008l-0.109,0.125c-0.013,0.043,0.069,0.14,0.184,0.214c0.114,0.076,0.186,0.151,0.16,0.169   c-0.026,0.017-0.146,0.052-0.27,0.078s-0.243,0.087-0.27,0.137l-0.047,0.145l-0.07,0.079c-0.038,0.013-0.146,0.084-0.238,0.16   c-0.093,0.075-0.218,0.131-0.278,0.125l-0.128-0.082c-0.012-0.039-0.188-0.03-0.391,0.02c-0.205,0.05-0.53,0.22-0.724,0.379   s-0.396,0.263-0.45,0.23c-0.053-0.032-0.228-0.055-0.387-0.05c-0.159,0.003-0.322,0.049-0.363,0.101   c-0.041,0.052-0.139,0.144-0.219,0.203c-0.079,0.061-0.221,0.138-0.312,0.173c-0.093,0.033-0.188,0.102-0.211,0.152l0.012,0.106   l0.121,0.078c0.037,0.035-0.05,0.068-0.191,0.074c-0.142,0.007-0.262,0.045-0.267,0.086l-0.054,0.074l-0.129-0.035l-0.086-0.086   l0.026-0.113l0.114-0.145l0.128-0.089l0.11-0.036l0.09-0.054l0.055-0.094l0.07-0.098l0.094-0.024   c0.027,0.005,0.117-0.037,0.199-0.094c0.081-0.055,0.192-0.157,0.246-0.226l0.219-0.168c0.066-0.024,0.25-0.054,0.406-0.066   c0.157-0.013,0.565-0.152,0.907-0.309c0.342-0.157,0.644-0.31,0.672-0.34l0.074-0.121c0.014-0.037-0.036-0.07-0.109-0.075   c-0.073-0.005-0.212,0.01-0.309,0.031c-0.097,0.022-0.255,0.029-0.352,0.016c-0.097-0.013-0.256,0.011-0.352,0.055   c-0.097,0.043-0.22,0.136-0.274,0.207c-0.053,0.071-0.122,0.111-0.151,0.09c-0.03-0.022-0.205,0.026-0.388,0.105   s-0.405,0.144-0.496,0.144s-0.166,0.024-0.168,0.055c-0.003,0.03-0.074,0.057-0.16,0.059c-0.086,0.002-0.193,0.028-0.238,0.059   l-0.094,0.168l-0.133,0.113c-0.066,0-0.187,0.021-0.266,0.047c-0.08,0.025-0.168,0.069-0.196,0.098l-0.133,0.074   c-0.045,0.013-0.152,0.09-0.238,0.171c-0.086,0.082-0.181,0.186-0.211,0.231s0.003,0.172,0.074,0.281   c0.071,0.109,0.056,0.186-0.035,0.168c-0.09-0.018-0.198-0.065-0.238-0.105c-0.041-0.042-0.159-0.089-0.262-0.106   c-0.104-0.017-0.22-0.006-0.258,0.024l-0.004,0.176c0.036,0.066-0.067,0.05-0.231-0.035c-0.163-0.086-0.671-0.232-1.129-0.324   c-0.458-0.093-1.02-0.258-1.247-0.368c-0.228-0.109-0.472-0.263-0.543-0.34c-0.071-0.078-0.179-0.163-0.238-0.191l-0.156-0.004   c-0.026,0.026-0.401,0.003-0.833-0.05c-0.432-0.054-0.812-0.108-0.845-0.122l-0.144-0.106c-0.048-0.044-0.323-0.18-0.614-0.301   c-0.29-0.121-0.68-0.226-0.868-0.234c-0.186-0.008-0.383,0.009-0.437,0.039c-0.055,0.031-0.183,0.044-0.286,0.031   c-0.103-0.013-0.234-0.002-0.293,0.024c-0.058,0.026-0.248,0.05-0.422,0.055s-0.473-0.056-0.664-0.133   c-0.191-0.078-0.657-0.159-1.036-0.18c-0.378-0.021-0.758-0.079-0.844-0.129s-0.298-0.117-0.469-0.149   c-0.172-0.032-0.362-0.088-0.423-0.125c-0.06-0.037-0.35-0.045-0.645-0.019c-0.295,0.026-0.605,0.027-0.691,0.003   c-0.087-0.023-0.271-0.009-0.411,0.032c-0.14,0.041-0.285,0.057-0.324,0.035c-0.038-0.021-0.128-0.039-0.199-0.039   s-0.153-0.012-0.184-0.028l-0.117-0.094c-0.034-0.037-0.147-0.066-0.25-0.066c-0.104,0-0.181-0.093-0.172-0.207   c0.008-0.113-0.048-0.207-0.125-0.207s-0.228-0.021-0.333-0.047c-0.104-0.026-0.269-0.047-0.363-0.047   c-0.094,0-0.231,0.023-0.304,0.051c-0.073,0.028-0.229,0.049-0.345,0.046c-0.116-0.001-0.248-0.018-0.293-0.035l-0.118-0.152   l-0.094-0.164l-0.116-0.02c-0.033,0.013-0.126,0.008-0.207-0.011c-0.082-0.02-0.181-0.004-0.219,0.035l-0.071,0.102l-0.074,0.094   l-0.137,0.094l-0.117,0.031l-0.137-0.031l-0.082-0.105c0-0.042,0.066-0.093,0.148-0.114c0.082-0.021,0.163-0.065,0.18-0.098   l0.031-0.105c0-0.026-0.068-0.076-0.152-0.109c-0.084-0.035-0.247-0.068-0.363-0.075s-0.212-0.048-0.212-0.093l-0.058-0.083   c-0.032,0-0.26,0.165-0.505,0.367c-0.245,0.203-0.678,0.409-0.961,0.458c-0.283,0.049-0.588,0.072-0.676,0.051   c-0.089-0.022-0.197-0.039-0.243-0.039c-0.044,0-0.18,0.054-0.301,0.121c-0.12,0.067-0.18,0.162-0.133,0.211l0.164,0.129   l-0.046,0.102l-0.126,0.141l-0.082,0.07L7.73,21.618l-0.012-0.18l-0.02-0.078c-0.021,0-0.211,0.1-0.422,0.223   c-0.211,0.122-0.436,0.237-0.501,0.253c-0.064,0.018-0.215,0.035-0.336,0.04c-0.12,0.005-0.218-0.018-0.218-0.051   c0-0.032-0.229,0.147-0.509,0.399c-0.279,0.251-0.566,0.596-0.637,0.766c-0.071,0.17-0.176,0.372-0.23,0.45   c-0.057,0.077-0.215,0.197-0.353,0.266s-0.319,0.128-0.406,0.133c-0.085,0.004-0.189,0.021-0.23,0.039s-0.362,0.041-0.715,0.051   c-0.353,0.01-0.648,0.097-0.657,0.191c-0.008,0.094-0.032,0.202-0.055,0.238c-0.021,0.037-0.058,0.126-0.081,0.199   c-0.024,0.073-0.044,0.145-0.044,0.16s0.432,0.275,0.958,0.579s1.046,0.698,1.152,0.879c0.108,0.18,0.224,0.328,0.258,0.328   c0.035,0,0.143,0.024,0.238,0.055c0.098,0.03,0.307,0.062,0.466,0.074c0.159,0.011,0.309-0.023,0.332-0.074l0.109-0.028   c0.037,0.037,0.162,0.087,0.277,0.113c0.116,0.026,0.243,0.068,0.281,0.094l0.008,0.07L6.28,26.886l-0.043,0.129l0.075,0.18   l0.145,0.145c0.039,0.021,0.132,0.021,0.206,0c0.076-0.021,0.167-0.063,0.203-0.09l0.181-0.004l0.18,0.036l0.172-0.008l0.137,0.07   l0.048,0.086l-0.079,0.106l-0.195,0.109H7.117l-0.164-0.07l-0.141-0.07H6.676L6.601,27.57l0.091,0.085l0.145,0.102l0.02,0.094   l-0.06,0.008l-0.101-0.035H6.551c-0.039,0.004-0.131,0.065-0.203,0.137c-0.073,0.07-0.204,0.13-0.29,0.133   c-0.086,0.001-0.216,0.02-0.289,0.039s-0.164,0.004-0.203-0.035c-0.038-0.039-0.279-0.071-0.535-0.071s-0.493-0.032-0.527-0.07   l-0.133-0.07l-0.028-0.043l0.07-0.117l0.074-0.125l0.052-0.121l-0.017-0.14c-0.011-0.039-0.139-0.062-0.285-0.051   c-0.146,0.011-0.347,0.063-0.445,0.117c-0.099,0.054-0.298,0.123-0.441,0.153c-0.144,0.03-0.316,0.083-0.384,0.117L2.86,27.82   l0.056,0.125l-0.023,0.051l-0.157-0.02c-0.051-0.015-0.176-0.024-0.277-0.02c-0.101,0.004-0.291,0.088-0.422,0.188   c-0.131,0.1-0.289,0.187-0.352,0.196L1.45,28.402l-0.176,0.102l-0.152,0.055L1,28.637c-0.013,0.043,0.303,0.169,0.7,0.281   c0.397,0.112,0.737,0.237,0.754,0.278l-0.066,0.093l-0.141,0.055L2.13,29.359l-0.116,0.027l0.022,0.122l0.152,0.137l0.086,0.118   l-0.016,0.109l0.031,0.106l0.087,0.117c0.021,0.037,0.295,0.086,0.608,0.109c0.314,0.024,0.606,0.054,0.649,0.067   c0.043,0.012,0.14-0.007,0.215-0.043s0.297-0.07,0.492-0.074c0.196-0.004,0.379,0.015,0.407,0.043l0.093,0.075l0.126,0.023   l0.085-0.102c0.003-0.056,0.065-0.037,0.142,0.043c0.075,0.079,0.163,0.148,0.195,0.152l0.129-0.027l0.07-0.078l0.035-0.043   l0.09-0.078c0.03-0.043,0.136-0.106,0.234-0.141c0.1-0.034,0.203-0.085,0.23-0.113c0.028-0.028,0.12-0.054,0.204-0.055   c0.083-0.002,0.187-0.019,0.23-0.035l0.125-0.094l0.121-0.047l0.082,0.058l0.058,0.07l0.067,0.094l0.016,0.122l-0.118,0.153   l-0.175,0.098l-0.094-0.035l-0.066,0.007l-0.028,0.082l0.091,0.086l0.184,0.153l0.117,0.183l0.069,0.173l0.052,0.183   c0,0.049-0.031,0.148-0.07,0.219C7.004,31.393,6.92,31.5,6.855,31.56c-0.064,0.061-0.22,0.117-0.345,0.125   c-0.124,0.008-0.284-0.007-0.355-0.035c-0.07-0.028-0.177-0.043-0.234-0.035s-0.174,0.097-0.258,0.195   C5.58,31.909,5.445,32.04,5.366,32.1c-0.08,0.06-0.29,0.125-0.469,0.145s-0.319-0.011-0.313-0.066l-0.055-0.145L4.366,31.99   l-0.195,0.028l-0.149,0.105L3.971,32.26l-0.121,0.07l-0.145,0.074l-0.039,0.176c-0.009,0.062,0.051,0.113,0.133,0.113   s0.129,0.037,0.106,0.083l-0.044,0.155l-0.054,0.075l-0.133-0.028L3.49,32.976c-0.058,0.013-0.187,0.091-0.285,0.175   S3,33.338,2.971,33.381c-0.03,0.043-0.064,0.138-0.075,0.211c-0.011,0.073-0.007,0.159,0.009,0.191   c0.015,0.032-0.052,0.131-0.149,0.219c-0.096,0.088-0.142,0.182-0.102,0.207l0.095,0.153l0.09,0.18l0.102,0.176l0.144,0.066   c0.063-0.019,0.133-0.108,0.157-0.196c0.023-0.087,0.126-0.224,0.227-0.301c0.101-0.077,0.187-0.11,0.191-0.074   c0.004,0.037-0.045,0.131-0.109,0.21c-0.064,0.08-0.119,0.187-0.121,0.238c-0.002,0.052,0.02,0.153,0.047,0.223   c0.028,0.071,0.067,0.152,0.086,0.18c0.02,0.028,0.215,0.054,0.434,0.059c0.219,0.004,0.46-0.022,0.535-0.059   s0.139-0.026,0.142,0.023l0.042,0.142l0.031,0.121l-0.073,0.105l-0.098-0.024l-0.099-0.109c-0.036-0.028-0.131-0.018-0.211,0.023   c-0.079,0.041-0.145,0.041-0.145,0l-0.059-0.074l-0.168-0.046l-0.218-0.028l-0.13,0.059c-0.011,0.021-0.08,0.107-0.152,0.191   c-0.073,0.083-0.082,0.167-0.02,0.183l0.116,0.09l0.13,0.118l0.18,0.058l0.113,0.09l0.172,0.188l0.152,0.18   c0.021,0.044,0.111,0.098,0.2,0.117c0.088,0.019,0.269,0.028,0.402,0.019c0.133-0.008,0.319-0.06,0.414-0.113   c0.095-0.053,0.218-0.098,0.273-0.098s0.095-0.11,0.086-0.246C5.604,35.9,5.684,35.69,5.789,35.57   c0.104-0.121,0.234-0.215,0.288-0.21c0.055,0.004,0.016,0.107-0.085,0.23c-0.102,0.122-0.183,0.267-0.181,0.32   s0.109,0.296,0.238,0.539s0.207,0.481,0.173,0.528L6.12,37.161c-0.021,0.054,0.021,0.149,0.095,0.211   c0.072,0.062,0.113,0.193,0.089,0.29c-0.023,0.096-0.107,0.217-0.187,0.27c-0.08,0.051-0.023,0.087,0.124,0.082   c0.149-0.006,0.295-0.049,0.324-0.093c0.031-0.046,0.162-0.13,0.294-0.188c0.131-0.058,0.259-0.105,0.285-0.105L7.3,37.555   l0.149-0.07l0.086,0.074c0.026,0.042,0.122,0.11,0.216,0.153c0.092,0.042,0.199,0.049,0.237,0.012l0.184,0.015   c0.062,0.045,0.155,0.145,0.208,0.223c0.052,0.077,0.137,0.17,0.191,0.207L8.704,38.2l0.074-0.035c0.021,0,0.039-0.088,0.039-0.196   c0-0.107,0.056-0.259,0.125-0.336c0.068-0.078,0.109-0.185,0.09-0.238l0.016-0.055l0.133,0.078l0.117,0.09L9.38,37.61l-0.062,0.035   L9.149,37.7l0.016,0.165l0.16,0.136c0.048,0.021,0.349-0.091,0.668-0.25c0.32-0.159,0.541-0.219,0.488-0.133   c-0.051,0.086-0.095,0.182-0.098,0.215c-0.001,0.032-0.092,0.142-0.199,0.242c-0.107,0.102-0.198,0.225-0.203,0.274l0.074,0.172   l-0.022,0.105L9.9,38.74c-0.016,0.049-0.029,0.167-0.032,0.262c-0.002,0.095,0.005,0.215,0.016,0.27l-0.086,0.098   c-0.058,0-0.257,0.134-0.441,0.297s-0.377,0.367-0.426,0.453c-0.05,0.086-0.138,0.156-0.195,0.156L8.54,40.303l-0.156,0.095   c-0.037,0.036-0.255,0.176-0.485,0.309c-0.229,0.133-0.434,0.291-0.453,0.352L7.43,41.241l-0.004,0.171l-0.07,0.052l-0.126-0.027   l-0.116,0.059l-0.09-0.055c-0.028-0.052-0.143-0.104-0.255-0.117c-0.111-0.013-0.261-0.012-0.332,0.004   c-0.07,0.016-0.171,0.056-0.222,0.09l-0.188,0.09l-0.177,0.126l-0.105,0.171l-0.082,0.152l-0.031,0.173l0.095,0.183l0.133,0.048   l0.147-0.052l0.188-0.116l0.155-0.22l0.09-0.156l0.067-0.062H6.59l0.035,0.059l-0.031,0.098l0.066,0.105l0.121,0.004l0.147-0.102   c0.059-0.029,0.187-0.051,0.286-0.047c0.099,0.005,0.188-0.028,0.199-0.074c0.011-0.044,0.085-0.094,0.164-0.109   s0.164-0.047,0.188-0.07l0.125-0.043l0.133,0.082c0.028,0.045,0.123,0.01,0.211-0.078c0.089-0.088,0.188-0.16,0.219-0.16   l0.149-0.043l0.141-0.09l0.164-0.047l0.195-0.035l0.094-0.098L9.2,40.947l-0.039-0.124l0.035-0.098l0.152-0.067l0.145-0.058   c0.032-0.032,0.153-0.104,0.27-0.16c0.116-0.057,0.212-0.112,0.212-0.126c0-0.013,0.077-0.037,0.171-0.055   c0.095-0.017,0.287-0.098,0.427-0.18c0.14-0.081,0.254-0.201,0.254-0.266l0.062-0.191c0.034-0.041,0.363-0.257,0.73-0.48   c0.368-0.224,0.726-0.421,0.794-0.438l0.172-0.03l0.094-0.028l0.113-0.09l0.066-0.133l0.016-0.141l0.078-0.137l0.117-0.078   l0.105-0.012l0.113-0.042l0.095-0.133l0.089-0.148l-0.031-0.098l-0.16-0.11c-0.038-0.038-0.156-0.073-0.261-0.078   c-0.105-0.004-0.197-0.078-0.204-0.164c-0.006-0.086,0.045-0.192,0.113-0.234l0.148-0.141l0.07-0.105   c0.025-0.024,0.112-0.059,0.191-0.079c0.079-0.019,0.174-0.033,0.207-0.031l0.117-0.031l0.051-0.083l-0.043-0.098l0.04-0.051   l0.163-0.02l0.117-0.019l0.078-0.055l0.051-0.114c0.003-0.032-0.054-0.118-0.125-0.191c-0.07-0.073-0.077-0.121-0.015-0.105   l0.168,0.027l0.105-0.047l0.051-0.121l0.07-0.149l0.152-0.117c0.044-0.023,0.14-0.098,0.211-0.164s0.129-0.141,0.129-0.164   l0.047-0.133c0.025-0.05,0.122-0.104,0.215-0.122s0.292-0.112,0.441-0.211c0.151-0.098,0.291-0.163,0.312-0.144l0.149,0.054   l0.176,0.055c0.036,0.02,0.163-0.049,0.281-0.152s0.254-0.186,0.301-0.184l0.086,0.059l-0.066,0.121l-0.074,0.184l0.02,0.175   c0.016,0.033,0.094,0.096,0.176,0.141c0.082,0.045,0.108,0.082,0.059,0.082s-0.174-0.021-0.277-0.047s-0.236-0.04-0.298-0.031   h-0.203l-0.167-0.05l-0.191,0.019l-0.231,0.141l-0.23,0.141l-0.116,0.148l0.019,0.168L15.254,35.8   c-0.032,0.067-0.14,0.206-0.238,0.31c-0.099,0.103-0.192,0.235-0.207,0.293l-0.023,0.187c0.002,0.046,0.095,0.093,0.207,0.106   c0.111,0.013,0.223,0.004,0.247-0.02l0.089,0.004L15.25,36.84c-0.068,0.062-0.197,0.133-0.285,0.156   c-0.088,0.024-0.171,0.064-0.184,0.09l0.007,0.117c0.018,0.039,0.094,0.07,0.169,0.07s0.183-0.016,0.238-0.035   c0.056-0.019,0.169-0.026,0.25-0.016c0.082,0.011,0.172-0.01,0.2-0.047l0.125-0.117l0.117-0.105l0.141-0.098l0.128-0.074   l0.075-0.032l0.133-0.039l0.152-0.094l0.09-0.102l0.047-0.046l0.121-0.059l0.195-0.086l0.203-0.015   c0.061,0.006,0.17,0.003,0.242-0.008c0.073-0.011,0.156-0.031,0.185-0.043l0.171-0.145l0.122-0.188l0.066-0.121l0.094-0.133   c0.015-0.043-0.062-0.085-0.168-0.095c-0.107-0.008-0.168-0.043-0.133-0.078l-0.035-0.109l-0.13-0.083l0.059-0.062l0.149-0.113   l0.05-0.18l0.07-0.094l0.192-0.102l0.113-0.07l-0.035,0.109L18.1,34.929l-0.024,0.106l0.103,0.074l0.199-0.043   c0.068-0.037,0.191-0.059,0.273-0.051c0.081,0.008,0.17-0.005,0.195-0.031l0.146-0.047c0.053,0,0.167-0.034,0.254-0.074   c0.085-0.042,0.186-0.058,0.222-0.036c0.037,0.022,0.002,0.073-0.077,0.114c-0.08,0.041-0.137,0.104-0.126,0.141   s0.096,0.079,0.188,0.094c0.092,0.015,0.201,0.043,0.241,0.062l0.06,0.074l0.104,0.141l0.177,0.179   c0.029,0.043,0.123,0.1,0.207,0.125s0.279-0.059,0.435-0.188c0.153-0.129,0.277-0.203,0.272-0.164l-0.066,0.153l-0.086,0.203   l0.004,0.195l0.156,0.074l0.191,0.032l0.117,0.089l0.142,0.083c0.049,0.013,0.319-0.001,0.602-0.031   c0.281-0.031,0.749-0.019,1.039,0.027c0.291,0.044,0.562,0.048,0.603,0.008l0.145-0.02l0.055,0.145l0.086,0.152   c0.056,0.035,0.297,0.071,0.535,0.083c0.239,0.011,0.45,0.004,0.469-0.016l0.106-0.078l0.109-0.083   c0.021-0.021,0.104-0.055,0.184-0.074c0.079-0.019,0.178-0.028,0.219-0.019l0.133,0.043l0.09,0.058l-0.035,0.075l-0.125,0.109   l-0.06-0.007l-0.035-0.152l-0.104,0.007l-0.074,0.161l-0.021,0.121l-0.073,0.105c-0.033,0.033,0.232,0.199,0.59,0.368   s0.765,0.424,0.907,0.566c0.142,0.142,0.305,0.27,0.363,0.285c0.058,0.016,0.225,0.112,0.37,0.215   c0.147,0.103,0.304,0.179,0.349,0.168l0.094-0.07l0.027-0.07c0.009-0.011,0.086-0.013,0.172-0.005   c0.086,0.009,0.163-0.007,0.173-0.035l-0.083-0.175l-0.16-0.125l-0.094-0.074l-0.074-0.114c-0.023-0.021-0.109-0.043-0.191-0.047   c-0.082-0.004-0.148-0.06-0.148-0.125l0.117-0.079l0.184,0.04l0.16,0.098l0.148,0.098l0.098-0.113l0.117-0.012l0.055,0.137   c-0.011,0.019,0.011,0.104,0.047,0.188c0.037,0.083,0.068,0.182,0.07,0.219c0.003,0.037,0.069,0.085,0.148,0.109   c0.08,0.023,0.182,0.072,0.228,0.109l0.148,0.067l0.09-0.043l0.022-0.141c0-0.054-0.077-0.298-0.172-0.543   c-0.094-0.245-0.168-0.477-0.164-0.516l0.062-0.125l0.056,0.066c0,0.067,0.024,0.188,0.055,0.27   c0.03,0.081,0.104,0.206,0.163,0.277c0.061,0.071,0.111,0.157,0.114,0.191l0.054,0.129l0.067,0.109l0.09,0.105   c0.041,0.035,0.158,0.098,0.262,0.141s0.218,0.053,0.254,0.023l0.125-0.149l0.09-0.094l0.031,0.062l-0.09,0.137l-0.09,0.176   l0.078,0.133l0.117,0.031l0.04,0.118l0.054,0.117l0.098-0.027l0.094-0.035l0.091,0.031l0.038,0.07l-0.073,0.043   c-0.042,0.006,0.006,0.094,0.105,0.195c0.099,0.101,0.139,0.184,0.09,0.184l-0.133,0.074l0.035,0.129l0.055,0.07l-0.09,0.023   l-0.066,0.062l0.059,0.094c0.032,0.021,0.131,0.046,0.218,0.055c0.089,0.009,0.18,0.037,0.203,0.062l0.075,0.129   c0.017,0.046,0.222,0.273,0.453,0.508c0.232,0.234,0.387,0.447,0.344,0.474l-0.09,0.078l-0.02,0.121l-0.051,0.129l-0.086,0.105   l-0.043,0.129l0.039,0.125l0.113-0.023l0.098-0.137l0.035-0.129l0.082-0.125c0.039-0.026,0.169-0.058,0.29-0.07   c0.12-0.013,0.27,0.051,0.331,0.141c0.062,0.09,0.121,0.193,0.13,0.23c0.009,0.036,0.012,0.145,0.008,0.238   c-0.005,0.095-0.024,0.196-0.043,0.228l-0.013,0.093l0.095,0.009l0.129-0.091l0.09-0.031l-0.027,0.087l-0.113,0.094l-0.098,0.085   l-0.044,0.118l0.035,0.085l0.142,0.023l0.168-0.042l0.152-0.153l0.129-0.199l0.039-0.133L33.4,41.925l-0.055-0.191l0.047-0.198   l0.09-0.157l0.066-0.027l0.031,0.086l-0.02,0.129l-0.027,0.133l0.02,0.148l0.066,0.047l0.082-0.066l0.078-0.016l0.035,0.152   l-0.082,0.25l-0.055,0.153l0.102,0.059l-0.004,0.059l-0.164,0.082l-0.121,0.116l-0.023,0.118l-0.031,0.074l-0.048,0.062l0.06,0.065   l0.094,0.052c0.018,0.015,0.036,0.087,0.042,0.16c0.008,0.073,0.065,0.133,0.13,0.133l0.184,0.027l-0.022,0.078l-0.118,0.121   l-0.09,0.07l-0.07,0.031l-0.008,0.086c0,0.03,0.062,0.111,0.137,0.18s0.177,0.184,0.227,0.254c0.05,0.071,0.116,0.121,0.148,0.11   l0.051-0.106c-0.004-0.047,0.114-0.2,0.262-0.34c0.148-0.14,0.286-0.254,0.306-0.254l0.043,0.055l-0.023,0.086l0.031,0.062   l0.077,0.047l-0.007,0.039l-0.086,0.047l-0.062,0.074l0.02,0.095l0.047,0.074c0.015,0.017,0.1,0.038,0.187,0.046   c0.089,0.009,0.188,0.026,0.22,0.039l0.098,0.071l0.031,0.102l-0.098-0.023l-0.172-0.066l-0.142,0.054l-0.108,0.013l-0.113-0.028   l-0.066,0.06l0.015,0.086l0.122,0.102c0.056,0.039,0.117,0.128,0.137,0.199c0.02,0.07,0.062,0.142,0.094,0.155l0.148,0.028   l0.098,0.09l-0.023,0.164l-0.031,0.141l0.078,0.031l0.125-0.035l0.035,0.098l0.031,0.125c0.023,0.016,0.196-0.1,0.383-0.253   c0.188-0.155,0.342-0.229,0.345-0.165l-0.052,0.16l-0.073,0.098c-0.011,0.03,0.054,0.058,0.144,0.062   c0.091,0.005,0.181,0.017,0.199,0.027l-0.007,0.059l-0.043,0.094l-0.027,0.113l-0.043,0.013l-0.071-0.083l-0.156-0.039l-0.18,0.105   l-0.141,0.129l-0.145,0.074l-0.121,0.118l-0.027,0.171l0.055,0.157l0.07,0.02l0.047-0.062l0.023-0.098l0.039-0.098l0.121-0.036   l0.095,0.059c0.004,0.033,0.118,0.05,0.253,0.039c0.136-0.011,0.237,0.009,0.227,0.044l-0.105,0.094   c-0.047,0.017-0.15,0.035-0.23,0.039c-0.079,0.004-0.16,0.024-0.179,0.046l-0.153,0.106l-0.047,0.094   c0.039,0.016,0.139,0.025,0.223,0.023s0.143,0.007,0.129,0.02c-0.013,0.013-0.083,0.041-0.156,0.062s-0.131,0.068-0.128,0.105   l0.046,0.082c0.024,0.009,0.164,0.009,0.312,0s0.271-0.005,0.271,0.008l-0.098,0.055c-0.055,0.018-0.16,0.031-0.235,0.031   s-0.144,0.021-0.152,0.047c-0.008,0.026,0.05,0.06,0.13,0.074c0.079,0.016,0.207,0.025,0.285,0.023   c0.077-0.002,0.198-0.019,0.27-0.035s0.147-0.031,0.172-0.031l0.085,0.047l0.06,0.125l0.051,0.113h0.125l0.155-0.113l0.083-0.141   l0.059-0.105l0.066-0.02l0.02,0.12l-0.039,0.158l-0.078,0.098l-0.133,0.065l-0.133,0.078c-0.023,0.028,0.027,0.052,0.113,0.052   s0.156-0.015,0.156-0.032l0.062-0.03l0.086,0.058l0.102,0.059c0.043,0,0.142-0.031,0.22-0.07c0.077-0.039,0.139-0.132,0.136-0.207   c-0.002-0.075,0.009-0.149,0.024-0.164l0.043-0.027l0.035,0.023c0.01,0.013,0.02,0.088,0.02,0.168s-0.039,0.19-0.086,0.246   l-0.047,0.142l0.113,0.039l0.125-0.043l0.102-0.044l0.019,0.047l-0.062,0.145c-0.017,0.054-0.032,0.165-0.035,0.246   c-0.001,0.083,0.044,0.178,0.103,0.212l0.163,0.07l0.146-0.024l0.105-0.102l0.102-0.191l0.098-0.058l-0.004,0.151l-0.078,0.181   c-0.032,0.05,0.019,0.118,0.113,0.151c0.095,0.035,0.1,0.075,0.012,0.091c-0.089,0.015-0.151,0.061-0.141,0.102   s0.081,0.077,0.156,0.082c0.075,0.004,0.183-0.03,0.238-0.074l0.168-0.103l0.039,0.095l0.008,0.148c0.02,0.02,0.099,0.02,0.176,0   c0.078-0.02,0.116-0.005,0.086,0.031l-0.116,0.098l-0.067,0.09l0.047,0.109l0.125,0.078l0.105,0.09l0.157,0.184   c0.068,0.066,0.157,0.29,0.199,0.497c0.041,0.206,0.062,0.501,0.047,0.655c-0.016,0.156-0.046,0.33-0.067,0.388   c-0.021,0.059-0.09,0.17-0.152,0.246c-0.062,0.078-0.148,0.141-0.191,0.141l-0.113-0.093l0.012-0.138l0.109-0.043l0.133-0.022   c0.039-0.014,0.074-0.091,0.078-0.173c0.005-0.081-0.011-0.185-0.035-0.23l-0.125,0.005l-0.128,0.171l-0.087,0.125l-0.074-0.003   l-0.007-0.114c0.014-0.039,0.091-0.141,0.171-0.227c0.08-0.085,0.145-0.197,0.145-0.246l-0.043-0.16   c-0.023-0.039-0.328-0.082-0.676-0.098c-0.349-0.016-0.669-0.049-0.712-0.075l-0.14-0.046c-0.035,0-0.062,0.077-0.062,0.171   c0,0.095,0.031,0.204,0.069,0.243c0.039,0.038,0.115,0.206,0.168,0.371c0.055,0.165,0.129,0.347,0.165,0.403l0.125,0.151   l0.094,0.071l-0.062,0.113l-0.078,0.168c0.011,0.041,0.018,0.135,0.016,0.208c-0.003,0.071,0.015,0.157,0.039,0.186   c0.023,0.031,0.151,0.072,0.285,0.091c0.134,0.02,0.263,0.058,0.289,0.087c0.026,0.027-0.05,0.039-0.168,0.025   c-0.118-0.012-0.25-0.011-0.293,0.005s-0.1,0.616-0.125,1.337c-0.026,0.72-0.135,1.507-0.242,1.75   c-0.107,0.244-0.164,0.499-0.125,0.567c0.039,0.069,0.063,0.202,0.054,0.297c-0.008,0.095-0.006,0.195,0.005,0.223l0.047,0.082   l0.055,0.048l0.039,0.038l0.015,0.04l0.005,0.027l0.003,0.022l0.005,0.027l0.004,0.032l0.004,0.038l0.004,0.035l0.004,0.035   l0.034,0.118c0.021,0.052,0.019,0.277-0.003,0.503c-0.021,0.227-0.062,0.444-0.09,0.486l-0.067,0.14   c-0.008,0.037-0.012,0.126-0.007,0.199c0.004,0.073,0.106,0.244,0.227,0.38c0.12,0.134,0.217,0.304,0.214,0.374   c-0.001,0.071,0.018,0.197,0.044,0.277c0.025,0.083,0.053,0.221,0.059,0.306c0.006,0.086,0.139,0.281,0.293,0.434   s0.3,0.338,0.32,0.411c0.021,0.073,0.081,0.18,0.133,0.237l0.168,0.078l0.126-0.105c0.027-0.042,0.188-0.079,0.355-0.082   c0.167-0.002,0.347,0.033,0.398,0.079c0.052,0.045-0.06,0.078-0.246,0.073c-0.188-0.004-0.347,0.019-0.355,0.051l0.065,0.157   l0.083,0.18l-0.062,0.062l-0.126-0.087l-0.112-0.085c-0.028-0.011-0.042,0.046-0.031,0.125s0.046,0.197,0.077,0.261   c0.033,0.066,0.168,0.195,0.302,0.29c0.133,0.095,0.246,0.205,0.25,0.246l-0.052,0.168l-0.042,0.192   c0.009,0.054,0.079,0.148,0.156,0.211s0.172,0.171,0.211,0.242c0.038,0.07,0.162,0.219,0.273,0.328   c0.111,0.108,0.221,0.235,0.243,0.281l0.093,0.146l0.078,0.133c0.014,0.038,0.027,0.157,0.032,0.266   c0.004,0.106,0.044,0.21,0.09,0.23c0.044,0.018,0.238,0.049,0.429,0.065c0.191,0.019,0.385,0.044,0.431,0.06l0.199,0.144   l0.203,0.16c0.047,0.024,0.159,0.044,0.25,0.044s0.405,0.182,0.699,0.406c0.295,0.223,0.557,0.455,0.583,0.517l0.047,0.233   c0,0.068,0.101,0.32,0.223,0.559c0.123,0.239,0.235,0.496,0.25,0.571c0.016,0.074,0.08,0.192,0.145,0.258   c0.064,0.067,0.142,0.18,0.172,0.25c0.03,0.072,0.083,0.168,0.118,0.216l0.073,0.21l0.103,0.216l0.098,0.195   c0.004,0.058,0.035,0.185,0.07,0.281c0.034,0.096,0.188,0.256,0.34,0.355c0.153,0.099,0.458,0.383,0.68,0.634   c0.222,0.248,0.41,0.502,0.418,0.562L47.2,70.475l-0.02,0.146l0.094,0.133l0.087,0.12l-0.028,0.09l-0.113-0.058l-0.188-0.095   c-0.056-0.019-0.178-0.035-0.269-0.035c-0.094,0-0.169,0.032-0.169,0.07c0,0.04,0.051,0.131,0.113,0.205   c0.062,0.071,0.221,0.196,0.352,0.275c0.131,0.08,0.277,0.202,0.325,0.271l0.18,0.141h0.195l0.164-0.078l0.062,0.023   c0,0.047,0.188,0.253,0.418,0.458c0.229,0.204,0.439,0.406,0.465,0.448c0.026,0.045,0.049,0.184,0.052,0.311   c0.001,0.126-0.016,0.269-0.04,0.315l-0.043,0.16c0,0.042,0.169,0.207,0.376,0.368c0.206,0.16,0.434,0.316,0.508,0.344   c0.073,0.027,0.282,0.2,0.465,0.383c0.183,0.182,0.353,0.4,0.379,0.484s0.09,0.19,0.142,0.238h0.195   c0.055-0.048,0.138-0.144,0.183-0.216c0.045-0.07-0.007-0.277-0.117-0.461c-0.109-0.182-0.27-0.361-0.355-0.398   c-0.086-0.036-0.206-0.057-0.266-0.046l-0.184-0.06c-0.041-0.042-0.078-0.164-0.082-0.27c-0.005-0.105-0.219-0.606-0.477-1.113   s-0.647-1.141-0.864-1.407c-0.217-0.266-0.419-0.573-0.449-0.68c-0.03-0.108-0.371-0.556-0.759-0.997   c-0.387-0.441-0.723-0.84-0.746-0.887c-0.023-0.048-0.054-0.206-0.066-0.353c-0.013-0.146-0.064-0.35-0.113-0.454   c-0.049-0.102-0.084-0.31-0.078-0.461c0.006-0.149-0.008-0.312-0.031-0.358l-0.023-0.105c0.01-0.011,0.155,0.065,0.32,0.171   c0.166,0.105,0.344,0.182,0.396,0.168l0.179-0.022l0.196,0.109c0.06,0.06,0.197,0.146,0.304,0.191   c0.108,0.045,0.197,0.192,0.2,0.325c0.002,0.133,0.065,0.325,0.141,0.426s0.159,0.282,0.188,0.401   c0.028,0.12,0.37,0.631,0.762,1.134s0.743,0.892,0.782,0.864l0.172,0.011c0.056,0.035,0.084,0.127,0.062,0.203   c-0.021,0.078,0.031,0.211,0.117,0.293c0.086,0.084,0.23,0.175,0.32,0.2c0.091,0.026,0.186,0.107,0.211,0.181   c0.026,0.073,0.111,0.153,0.188,0.18c0.076,0.024,0.171,0.078,0.21,0.116l0.118,0.195l-0.035,0.215l-0.094,0.203l0.085,0.188   c0.055,0.041,0.174,0.096,0.267,0.122c0.092,0.024,0.207,0.091,0.254,0.147c0.048,0.056,0.172,0.151,0.277,0.211   c0.105,0.062,0.213,0.148,0.239,0.195c0.024,0.048,0.056,0.149,0.07,0.227c0.012,0.077,0.186,0.256,0.386,0.395   c0.2,0.141,0.481,0.406,0.626,0.591c0.144,0.186,0.341,0.398,0.438,0.477s0.257,0.263,0.355,0.411   c0.099,0.147,0.221,0.406,0.27,0.574c0.05,0.167,0.127,0.337,0.173,0.375l0.12,0.163c0.021,0.053,0.027,0.154,0.013,0.228   c-0.016,0.073-0.062,0.192-0.103,0.266c-0.04,0.073-0.03,0.156,0.023,0.184c0.055,0.029,0.02,0.119-0.078,0.203   c-0.097,0.084-0.118,0.266-0.046,0.403c0.07,0.137,0.241,0.363,0.378,0.5c0.138,0.138,0.375,0.287,0.528,0.332   c0.152,0.045,0.425,0.23,0.605,0.41c0.181,0.181,0.603,0.397,0.938,0.481c0.335,0.084,0.794,0.294,1.02,0.468   c0.227,0.175,0.527,0.35,0.669,0.392c0.142,0.041,0.38,0.146,0.531,0.234c0.15,0.089,0.451,0.192,0.669,0.23   c0.217,0.039,0.443,0.115,0.504,0.168c0.06,0.054,0.244,0.168,0.409,0.254c0.166,0.087,0.549,0.217,0.853,0.29   c0.303,0.073,0.599,0.131,0.657,0.128c0.058-0.001,0.332-0.096,0.608-0.21c0.278-0.115,0.533-0.237,0.567-0.273l0.122-0.105   l0.151,0.035c0.052,0.039,0.208,0.089,0.349,0.105c0.14,0.017,0.289,0.049,0.332,0.07c0.042,0.021,0.217,0.16,0.387,0.308   c0.17,0.148,0.396,0.229,0.504,0.181s0.235-0.13,0.285-0.181c0.05-0.049,0.433-0.126,0.853-0.171   c0.419-0.046,0.82-0.108,0.891-0.142c0.071-0.032,0.129-0.09,0.129-0.128s-0.188-0.246-0.418-0.462   c-0.23-0.215-0.363-0.391-0.297-0.391l0.172-0.105l0.031-0.195l-0.02-0.192c0-0.055,0.339-0.101,0.755-0.101   c0.414,0,0.781-0.029,0.816-0.062c0.034-0.035,0.15-0.062,0.258-0.062s0.217-0.065,0.242-0.146   c0.026-0.079,0.097-0.152,0.156-0.163l0.109-0.122l0.02-0.16l0.109-0.058c0.05,0,0.09,0.058,0.09,0.128   c0,0.071,0.023,0.152,0.051,0.18l0.051,0.091l0.052-0.013c0.027-0.027,0.095-0.179,0.147-0.336c0.054-0.157,0.104-0.429,0.11-0.606   c0.006-0.175,0.032-0.369,0.058-0.429c0.026-0.061,0.056-0.168,0.067-0.238c0.011-0.071,0.042-0.165,0.07-0.207l0.121-0.148   l0.125-0.157l0.117-0.148c0.034-0.035,0.054-0.152,0.043-0.262c-0.011-0.108-0.046-0.235-0.078-0.281   c-0.032-0.044-0.122-0.06-0.2-0.03c-0.077,0.027-0.201,0.031-0.276,0.011c-0.076-0.021-0.279-0.045-0.454-0.051   c-0.174-0.006-0.415,0.011-0.535,0.04c-0.12,0.027-0.282,0.05-0.36,0.05c-0.077,0-0.198,0.032-0.269,0.07   c-0.071,0.038-0.199,0.062-0.285,0.051s-0.264,0.079-0.396,0.199c-0.131,0.121-0.247,0.428-0.258,0.685   c-0.011,0.255-0.046,0.479-0.078,0.496l-0.07,0.082c-0.006,0.027-0.043,0.108-0.082,0.179c-0.038,0.072-0.07,0.165-0.07,0.208   l-0.09,0.168c-0.049,0.05-0.215,0.157-0.367,0.238c-0.153,0.082-0.424,0.149-0.603,0.149c-0.178,0-0.364,0.022-0.414,0.051   c-0.049,0.027-0.42,0.131-0.824,0.23c-0.404,0.099-0.778,0.18-0.833,0.18c-0.054,0-0.135-0.086-0.179-0.188   c-0.046-0.104-0.136-0.188-0.2-0.188l-0.188-0.062c-0.039-0.035-0.203-0.062-0.367-0.062s-0.331-0.117-0.371-0.263   c-0.041-0.144-0.126-0.312-0.188-0.374c-0.062-0.062-0.14-0.199-0.172-0.305c-0.031-0.105-0.215-0.381-0.405-0.609   c-0.192-0.23-0.381-0.531-0.419-0.669c-0.039-0.137-0.134-0.357-0.211-0.488s-0.149-0.282-0.16-0.336s-0.006-0.578,0.011-1.165   c0.018-0.586,0.041-1.103,0.052-1.145l0.051-0.138c0.017-0.032,0.022-0.162,0.012-0.288c-0.011-0.127,0.028-0.231,0.086-0.231   l0.137-0.031l0.055-0.126l0.07-0.136l0.047-0.16c0-0.065-0.119-0.138-0.266-0.16c0.146,0.022,0.266,0.006,0.266-0.04   c0-0.044-0.049-0.192-0.109-0.328s-0.109-0.277-0.109-0.315l-0.043-0.133l-0.008-0.133l0.043-0.122l-0.035-0.051l-0.09-0.016   l-0.074-0.104l0.055-0.056l0.133,0.038c0.027,0.003,0.102-0.081,0.164-0.186c0.062-0.105,0.076-0.205,0.031-0.221l-0.047-0.062   l0.113-0.046l0.156-0.094c0.043-0.045,0.177-0.14,0.297-0.208s0.228-0.133,0.238-0.144l-0.035-0.02l-0.078-0.095l0.02-0.136   l0.118-0.059l0.102,0.043l0.027,0.136c0,0.043,0.104,0.024,0.23-0.043c0.127-0.066,0.336-0.21,0.465-0.32s0.276-0.22,0.328-0.246   l0.148-0.112l0.024-0.098l-0.079-0.045l-0.066-0.061l-0.012-0.118l0.102-0.082l0.125,0.016l0.043,0.077l-0.008,0.091l0.004,0.062   h0.043l0.133-0.091l0.216-0.073l0.151-0.055l0.09-0.13l0.04-0.035c0,0.024,0.088,0.041,0.195,0.04   c0.107-0.002,0.22-0.03,0.25-0.062l0.066-0.067l0.015,0.032l0.017,0.07l0.016,0.032l0.113,0.05   c0.061,0.027,0.261,0.076,0.445,0.108c0.186,0.034,0.356,0.034,0.379,0l0.055-0.101l0.094-0.043c0.046,0,0.141,0.027,0.212,0.062   c0.07,0.034,0.16,0.089,0.198,0.121l0.125,0.015l0.133,0.056l0.11,0.168l0.086,0.112l0.152,0.083l0.125,0.004l0.048-0.077   l0.042-0.06l0.074-0.023l0.051-0.047l0.078,0.074l0.146,0.083l0.065-0.079l-0.035-0.148l-0.035-0.125   c0-0.013,0.065,0.012,0.146,0.055c0.079,0.043,0.163,0.097,0.188,0.117l0.085,0.062l0.126,0.105l0.094,0.176l0.074,0.032   l0.113-0.087l0.055-0.078l-0.016-0.098c-0.011-0.024-0.12-0.098-0.243-0.165c-0.122-0.065-0.222-0.144-0.222-0.171l0.086-0.138   l0.086-0.112l-0.07-0.055l-0.168-0.031l-0.023-0.06l0.104-0.101l0.052-0.047c0.011,0,0.106-0.043,0.215-0.094   c0.107-0.052,0.332-0.093,0.499-0.09c0.168,0.002,0.348,0.02,0.399,0.038l0.094-0.008l0.039-0.077l0.055-0.091l0.016-0.112   l0.039-0.056l0.035,0.062l0.051,0.102l0.091,0.102l0.042,0.113l0.02,0.07l0.012,0.02l0.016,0.013h0.051l0.149-0.105l0.198-0.105   l0.146-0.075l0.129,0.016c0.039,0.046,0.192,0.078,0.344,0.07c0.15-0.006,0.286,0.006,0.301,0.027l0.109,0.09l0.188,0.075   l0.125,0.022l0.109,0.091l0.105,0.133l0.023,0.12c0.005,0.045,0.082,0.092,0.172,0.105c0.091,0.016,0.191,0.021,0.223,0.013   c0.032-0.01,0.179-0.095,0.325-0.191c0.146-0.098,0.291-0.183,0.32-0.192l0.07-0.015c0.008,0,0.077,0.028,0.152,0.062   c0.076,0.035,0.151,0.087,0.168,0.117l0.137,0.155l0.141,0.181c0.02,0.043,0.143,0.16,0.274,0.261   c0.131,0.103,0.265,0.22,0.297,0.263c0.031,0.043,0.06,0.182,0.062,0.309c0.002,0.127-0.027,0.342-0.066,0.478   c-0.039,0.135-0.07,0.258-0.07,0.273l0.043,0.073l0.102-0.016l0.059-0.038l0.039,0.081l0.012,0.149l-0.005,0.207l0.075,0.215   l0.094,0.113l0.062,0.055l0.056,0.04l0.078,0.022l0.023,0.138l0.074,0.101l0.129-0.027l0.035,0.017l-0.027,0.07l-0.035,0.144   l0.031,0.152l0.078,0.13l0.066,0.113l0.133,0.09l0.141,0.093l0.043,0.083l0.035,0.102l0.079,0.105l0.051,0.164l0.094,0.152   c0.051,0.021,0.16,0.009,0.241-0.027c0.083-0.037,0.181-0.092,0.22-0.121l0.109-0.109c0.021-0.031,0.076-0.154,0.121-0.278   c0.045-0.122,0.089-0.375,0.098-0.562c0.008-0.188,0.004-0.38-0.012-0.431l-0.023-0.198c0.002-0.062-0.042-0.176-0.098-0.255   c-0.056-0.08-0.154-0.336-0.219-0.571c-0.064-0.233-0.115-0.491-0.113-0.574c0.002-0.081-0.066-0.255-0.152-0.386   c-0.086-0.132-0.225-0.423-0.309-0.649c-0.084-0.226-0.154-0.447-0.157-0.493c-0.002-0.044-0.03-0.163-0.062-0.261   c-0.031-0.1-0.057-0.284-0.054-0.41c0.001-0.127,0.018-0.26,0.035-0.294l0.07-0.09c0.021-0.015,0.046-0.09,0.054-0.168   c0.009-0.078,0.03-0.144,0.047-0.147l0.04-0.103l0.073-0.125l0.109-0.078l0.055-0.086l0.066-0.106l0.052-0.116l0.012-0.095   l0.035-0.02l0.043,0.039l0.07,0.016l0.074-0.073l0.043-0.095l0.086-0.022l0.117-0.021c0.025-0.009,0.111-0.071,0.191-0.14   c0.079-0.069,0.16-0.133,0.18-0.141l0.102-0.07l0.125-0.067l0.102-0.058l0.07-0.15c0.016-0.055,0.157-0.226,0.317-0.378   c0.158-0.153,0.312-0.278,0.339-0.278l0.138-0.03l0.152-0.027l0.137-0.016c0.038-0.011,0.112-0.092,0.164-0.18   c0.052-0.089,0.157-0.209,0.234-0.271c0.077-0.06,0.157-0.139,0.176-0.176c0.02-0.036,0.197-0.082,0.395-0.101   c0.198-0.02,0.379-0.046,0.403-0.06l0.058-0.043l0.031-0.077l-0.019-0.088c-0.02-0.014-0.104-0.02-0.188-0.011   c-0.084,0.008-0.112-0.027-0.062-0.077l0.094-0.195l-0.035-0.138l0.008-0.082l0.102-0.035l0.086,0.077l0.059,0.095l0.065,0.035   l0.071-0.008l0.105-0.077l0.113-0.138l0.086-0.121l0.062-0.129v-0.099l-0.117-0.022l-0.137,0.055L79.8,63.151l-0.031-0.075   l-0.04-0.085c-0.012-0.014-0.114-0.035-0.226-0.051c-0.112-0.015-0.214-0.061-0.228-0.103l0.016-0.015l0.102,0.07h0.11l0.133-0.067   l0.109-0.078H79.8l0.094,0.021l0.125,0.058l0.047-0.019l-0.062-0.192l-0.035-0.176l-0.031-0.125l-0.031-0.141l-0.051-0.117   l-0.148-0.016l-0.149,0.051c-0.034,0.017-0.138-0.032-0.23-0.11c-0.092-0.076-0.194-0.15-0.227-0.163l-0.12-0.082   c-0.035-0.032-0.002-0.04,0.074-0.016c0.074,0.023,0.188,0.086,0.254,0.136l0.19,0.095l0.07-0.039l-0.03-0.081l-0.067-0.075   l-0.07-0.082l0.044-0.013l0.094,0.04l0.035-0.031l0.016-0.109l-0.102-0.195l-0.228-0.208l-0.168-0.155l-0.09-0.098l-0.07-0.13   l-0.059-0.113l-0.082-0.078l-0.016-0.133l0.062-0.102c0.018-0.018,0.052-0.105,0.074-0.195c0.024-0.091,0.049-0.148,0.055-0.129   c0.007,0.019,0.003,0.094-0.008,0.164c-0.011,0.071-0.03,0.152-0.042,0.18l-0.021,0.098c0.003,0.026,0.104,0.104,0.227,0.173   c0.123,0.068,0.244,0.108,0.27,0.09c0.026-0.02,0.031-0.206,0.013-0.415c-0.02-0.208-0.004-0.438,0.035-0.512   c0.038-0.073,0.131-0.19,0.207-0.263c0.075-0.07,0.147-0.151,0.16-0.179l0.07-0.039l0.046,0.047l-0.05,0.141l-0.098,0.163   c-0.026,0.034-0.06,0.119-0.074,0.192c-0.016,0.073-0.023,0.152-0.02,0.176l0.051,0.098l0.058,0.13l-0.046,0.093l-0.062,0.059   l0.039,0.122l0.074,0.101l0.078,0.06l0.074,0.108l0.02,0.133l0.082,0.079l0.094,0.038c0,0.014-0.06,0.146-0.133,0.298   c-0.073,0.149-0.133,0.307-0.133,0.348l0.019,0.074l0.032-0.011c0.006-0.008,0.055-0.095,0.109-0.196   c0.054-0.102,0.162-0.255,0.242-0.34c0.08-0.086,0.147-0.173,0.152-0.192c0.005-0.019,0.045-0.098,0.09-0.176   c0.045-0.076,0.093-0.177,0.105-0.223c0.013-0.045,0.022-0.139,0.02-0.211c-0.002-0.07-0.091-0.288-0.199-0.483   c-0.107-0.196-0.202-0.438-0.211-0.536c-0.009-0.1,0.09-0.246,0.219-0.325s0.224-0.127,0.212-0.105   c-0.014,0.021-0.089,0.087-0.169,0.145c-0.079,0.059-0.159,0.129-0.176,0.156c-0.018,0.029-0.003,0.113,0.031,0.188   c0.034,0.076,0.089,0.159,0.121,0.185l0.152,0.073l0.105,0.067l0.04,0.083l0.046,0.062l0.039,0.003l0.052-0.065l0.054-0.118   l0.075-0.098l0.112-0.109l0.105-0.113l0.055-0.07l0.048-0.075l0.047-0.093c0.007-0.03,0.064-0.16,0.129-0.29   c0.063-0.128,0.119-0.257,0.12-0.285l-0.008-0.062l-0.065-0.035l-0.103-0.023l-0.09-0.039l-0.043-0.07   c0-0.018,0.056-0.095,0.122-0.171c0.066-0.078,0.11-0.118,0.098-0.091v0.129c0.013,0.044,0.101,0.079,0.195,0.079   s0.227-0.023,0.293-0.052c0.066-0.027,0.197-0.057,0.289-0.062c0.093-0.007,0.346-0.075,0.562-0.153   c0.218-0.076,0.378-0.14,0.356-0.14l-0.02-0.021l0.055-0.038c0.019-0.011-0.32,0.019-0.755,0.065   c-0.434,0.048-0.796,0.08-0.805,0.072c-0.009-0.01,0.224-0.103,0.516-0.208s0.693-0.195,0.892-0.2   c0.197-0.004,0.382-0.017,0.41-0.027l0.066-0.027l0.105-0.089l0.086-0.172l0.004-0.103l0.047-0.003l0.074,0.093l0.109,0.087   c0.041,0,0.136-0.042,0.211-0.095c0.075-0.052,0.158-0.093,0.184-0.093l0.02,0.023l0.02,0.065l0.098-0.008   c0.028-0.027,0.127-0.058,0.219-0.065c0.093-0.01,0.182-0.034,0.195-0.056l0.028-0.085l-0.07-0.122l-0.052-0.027l0.048,0.079   l0.015,0.073l-0.046,0.062l-0.109,0.024l-0.121-0.02l-0.102-0.075l-0.103-0.141l-0.051-0.137l-0.059-0.101l-0.098-0.056   l-0.082-0.015l-0.039-0.032l0.062-0.059l0.109-0.098l0.043-0.137l-0.035-0.195l-0.02-0.144l0.012-0.045l0.004-0.015l0.008-0.021   c0.003-0.008,0.089-0.125,0.191-0.261c0.104-0.136,0.195-0.276,0.203-0.313l0.114-0.152l0.159-0.073l0.103-0.02l0.05-0.067   l-0.015-0.065l-0.027-0.067l0.042-0.035l0.056,0.043l0.102,0.047l0.156-0.02l0.141-0.023l0.094-0.039l0.02-0.07l0.07-0.101   l0.082-0.091l0.008-0.024l-0.003-0.045l0.022-0.11l0.078-0.103l0.043,0.013l0.017,0.085l0.062,0.067l0.109,0.02l0.098-0.055   l0.055-0.02L86.44,54.4l0.098-0.03l0.12-0.037l0.173-0.035l0.125-0.053l0.117-0.099c0.054-0.041,0.175-0.084,0.27-0.094   c0.095-0.011,0.185-0.083,0.199-0.161c0.015-0.076,0.04-0.155,0.055-0.175l0.082-0.035c0.03,0,0.116-0.024,0.192-0.056   c0.074-0.03,0.197-0.056,0.272-0.058c0.075-0.003,0.139-0.047,0.141-0.098l0.048-0.138l0.055,0.062l0.128,0.091l0.165-0.04   l0.113-0.035l0.145-0.093c0.043-0.046,0.138-0.115,0.211-0.153s0.148-0.07,0.168-0.07l0.129-0.058l0.121-0.087l0.035-0.065   l-0.027-0.13l0.023-0.021l0.165,0.095l0.104,0.051c0,0.016-0.084,0.085-0.188,0.157c-0.103,0.07-0.198,0.16-0.211,0.198   l0.004,0.098c0.015,0.016,0.191,0.013,0.391-0.008c0.2-0.02,0.45-0.022,0.556-0.007c0.105,0.015,0.181,0.038,0.168,0.05   c-0.014,0.014-0.096,0.041-0.185,0.062c-0.088,0.021-0.206,0.101-0.262,0.176c-0.056,0.076-0.135,0.108-0.176,0.075l-0.117-0.129   l-0.082-0.047l-0.141,0.038l-0.191,0.06l-0.113,0.062l-0.086,0.055c-0.035,0.018-0.248,0.188-0.473,0.379   c-0.227,0.19-0.418,0.374-0.426,0.406l-0.017,0.113l-0.02,0.142l0.016,0.163c0.02,0.043,0.129,0.138,0.242,0.211   c0.114,0.073,0.241,0.136,0.281,0.138l0.106-0.043l0.074-0.083l0.124-0.047c0.046-0.006,0.151-0.068,0.235-0.141   c0.084-0.07,0.17-0.166,0.191-0.211l0.07-0.122l0.09-0.073l0.122-0.109l0.098-0.141l0.089-0.065l0.102-0.056l0.075,0.011   l0.065,0.091l0.125,0.012l0.11-0.09l0.074-0.062l0.16-0.013l0.184-0.025l0.128-0.032l0.13-0.055c0.041-0.013,0.14-0.06,0.219-0.105   c0.079-0.045,0.21-0.098,0.289-0.118c0.079-0.02,0.199-0.079,0.266-0.133c0.066-0.053,0.191-0.099,0.278-0.101   c0.085-0.003,0.184-0.02,0.219-0.039l0.089-0.066l-0.023-0.052l-0.105-0.008l-0.011-0.03l0.023-0.138l0.035-0.058l0.133,0.038   l0.141-0.038c0.034-0.024,0.138-0.043,0.23-0.043s0.209-0.027,0.258-0.06l0.113-0.058l0.109-0.103l0.203-0.18l0.121-0.133   l-0.062-0.054l-0.148-0.044c-0.044-0.023-0.159-0.048-0.254-0.056c-0.095-0.006-0.17-0.079-0.168-0.163s0.034-0.182,0.07-0.219   c0.037-0.036,0.072-0.128,0.078-0.204c0.006-0.075,0.002-0.146-0.012-0.16l-0.023-0.073l-0.02-0.021l-0.062,0.051l-0.094,0.02   c-0.028,0-0.114,0.059-0.191,0.13c-0.077,0.07-0.218,0.278-0.312,0.461c-0.095,0.182-0.196,0.35-0.228,0.371l-0.058,0.105   c-0.003,0.037,0.016,0.127,0.038,0.2c0.024,0.071-0.03,0.128-0.12,0.124c-0.091-0.004-0.171-0.037-0.181-0.074l-0.062-0.112   l-0.12,0.008l-0.185,0.093l-0.234,0.055l-0.16-0.012l-0.043-0.081c-0.004-0.03-0.087-0.051-0.184-0.044s-0.193-0.005-0.215-0.028   c-0.021-0.021-0.184-0.062-0.36-0.093c-0.175-0.03-0.308-0.098-0.293-0.152l0.008-0.118c-0.011-0.011-0.112-0.028-0.226-0.042   c-0.115-0.013-0.217-0.056-0.228-0.094s-0.079-0.128-0.152-0.2c-0.073-0.07-0.131-0.229-0.129-0.351s-0.027-0.24-0.066-0.258   l-0.184-0.021c-0.063,0.01-0.049-0.053,0.031-0.137c0.08-0.083,0.178-0.262,0.219-0.395s0.032-0.271-0.02-0.309   c-0.052-0.036-0.232-0.006-0.402,0.07c-0.171,0.075-0.326,0.137-0.348,0.137l-0.04-0.066l-0.027-0.137   c-0.015-0.038-0.104-0.083-0.199-0.098c-0.095-0.016-0.231-0.02-0.305-0.009s-0.166-0.001-0.207-0.026   c-0.041-0.026,0.097-0.084,0.305-0.129c0.209-0.045,0.436-0.056,0.504-0.023c0.069,0.032,0.206,0.057,0.306,0.055   c0.099-0.002,0.287-0.078,0.418-0.169c0.131-0.09,0.291-0.178,0.356-0.195l0.163-0.141c0.026-0.06,0.009-0.175-0.038-0.258   c-0.048-0.081-0.054-0.16-0.013-0.176c0.042-0.015-0.07-0.115-0.245-0.223c-0.178-0.107-0.515-0.192-0.752-0.188   c-0.236,0.004-0.948,0.212-1.583,0.461c-0.634,0.249-1.42,0.683-1.746,0.962c-0.327,0.279-0.657,0.599-0.734,0.712   c-0.078,0.111-0.219,0.259-0.313,0.328c-0.095,0.068-0.267,0.142-0.383,0.163s-0.188,0.017-0.16-0.011l0.082-0.052   c0.017,0,0.266-0.255,0.552-0.566c0.285-0.312,0.52-0.591,0.52-0.621l-0.036-0.09c-0.019-0.02-0.146-0.085-0.28-0.145   c-0.137-0.061-0.199-0.109-0.141-0.109c0.058,0,0.21,0.036,0.34,0.082c0.129,0.044,0.25,0.059,0.269,0.03   c0.021-0.027,0.12-0.115,0.224-0.195c0.104-0.079,0.188-0.178,0.188-0.218l0.082-0.114c0.045-0.021,0.209-0.165,0.364-0.319   c0.153-0.155,0.44-0.304,0.636-0.328c0.196-0.026,0.378-0.045,0.403-0.04l0.105-0.051l0.058-0.094c0-0.02,0.059-0.16,0.13-0.312   c0.07-0.153,0.173-0.303,0.227-0.332l0.145-0.102l0.125-0.087c0.043-0.021,0.71-0.046,1.481-0.055s1.437-0.026,1.478-0.039   s0.23-0.013,0.422,0s0.426,0.048,0.521,0.079c0.095,0.029,0.518,0.022,0.941-0.017c0.423-0.039,0.796-0.082,0.828-0.098   l0.157-0.141c0.053-0.062,0.158-0.15,0.234-0.195c0.075-0.045,0.155-0.084,0.179-0.086L94.37,47.447z M79.878,54.538   c-0.125,0.105-0.229,0.214-0.23,0.241l0.008,0.109c0.007,0.032,0.01,0.127,0.008,0.211s-0.03,0.155-0.062,0.16l-0.086,0.027   l-0.056,0.023l-0.102,0.079c-0.04,0.04-0.147,0.104-0.237,0.141c-0.091,0.036-0.495,0.047-0.899,0.022   c-0.404-0.022-0.767-0.032-0.805-0.02l-0.106,0.062l0.023,0.103l0.074,0.101v0.142l-0.094,0.195   c-0.043,0.051-0.25,0.21-0.461,0.352s-0.386,0.258-0.391,0.258l-0.02,0.008l-0.039,0.016l-0.031,0.012l-0.031,0.021   c-0.015,0.007-0.106,0.036-0.203,0.062c-0.097,0.025-0.199,0.06-0.228,0.073l-0.098,0.027c-0.025,0-0.115,0.028-0.199,0.062   c-0.083,0.035-0.201,0.105-0.262,0.157c-0.06,0.051-0.18,0.124-0.266,0.16c-0.085,0.037-0.23,0.078-0.32,0.093   c-0.09,0.016-0.27,0.018-0.398,0.005c-0.129-0.014-0.331-0.06-0.449-0.103c-0.119-0.042-0.248-0.108-0.29-0.145l-0.058-0.128   l0.035-0.094c0.011-0.019,0.035-0.113,0.054-0.212c0.02-0.098,0.052-0.2,0.071-0.226c0.02-0.026,0.11-0.088,0.203-0.138   c0.093-0.049,0.201-0.129,0.242-0.176c0.04-0.047,0.072-0.285,0.07-0.528c-0.003-0.242-0.03-0.515-0.062-0.604   c-0.032-0.092-0.06-0.185-0.06-0.208c0-0.024-0.068-0.052-0.151-0.062c-0.084-0.011-0.204,0.007-0.267,0.038   c-0.062,0.034-0.167,0.121-0.233,0.196c-0.067,0.076-0.178,0.126-0.247,0.114l-0.129-0.114c-0.002-0.049,0.084-0.197,0.191-0.329   c0.108-0.129,0.232-0.332,0.277-0.448c0.046-0.116,0.081-0.235,0.078-0.266l-0.026-0.13l-0.031-0.198l-0.133-0.23l-0.22-0.141   l-0.164-0.113c-0.038-0.044-0.174-0.113-0.301-0.152c-0.127-0.041-0.27-0.075-0.316-0.075l-0.207,0.043l-0.117,0.09l0.059,0.118   l-0.035,0.09l-0.172,0.058l-0.11,0.157l-0.085,0.163l-0.118,0.043l-0.102-0.019l-0.059,0.004c-0.008,0.011-0.106,0.079-0.219,0.152   c-0.111,0.073-0.207,0.225-0.211,0.336s-0.045,0.271-0.09,0.355s-0.084,0.31-0.086,0.504s0.015,0.372,0.039,0.398l0.094,0.138   c0.028,0.049,0.042,0.242,0.032,0.431c-0.011,0.186-0.056,0.448-0.099,0.581s-0.133,0.284-0.199,0.336l-0.137,0.098l-0.117,0.103   L70.4,57.249c-0.007,0.003-0.08-0.001-0.164-0.008c-0.084-0.006-0.17-0.02-0.192-0.03l-0.102-0.079   c-0.034-0.032-0.096-0.167-0.136-0.301c-0.042-0.133-0.089-0.493-0.106-0.8c-0.017-0.309,0.006-0.696,0.051-0.864   s0.114-0.365,0.153-0.438c0.038-0.073,0.073-0.187,0.077-0.25l0.059-0.191l0.048-0.18l-0.048-0.16l-0.085-0.051   c-0.024,0.002-0.112,0.062-0.195,0.136c-0.084,0.073-0.152,0.086-0.152,0.027l0.081-0.171c0.045-0.036,0.16-0.186,0.254-0.333   c0.095-0.146,0.178-0.279,0.184-0.296l0.09-0.09l0.079-0.11l0.046-0.137c0.026-0.048,0.121-0.091,0.212-0.098   c0.09-0.007,0.187,0.006,0.215,0.027l0.125,0.039l0.16-0.102c0.047-0.056,0.152-0.101,0.235-0.101c0.081,0,0.239-0.032,0.351-0.07   c0.112-0.04,0.251-0.062,0.31-0.048l0.137,0.07l0.141,0.067l0.175-0.013c0.037-0.017,0.2-0.024,0.363-0.015   c0.165,0.008,0.305,0.008,0.313,0c0.009-0.01-0.044-0.06-0.117-0.115c-0.073-0.053-0.133-0.123-0.133-0.155l-0.039-0.125   c-0.021-0.037-0.162-0.081-0.312-0.098s-0.281-0.038-0.289-0.048l-0.02-0.112l-0.02-0.153l-0.07-0.047   c-0.03,0.004-0.122,0.035-0.203,0.067c-0.082,0.031-0.265,0.05-0.407,0.039c-0.142-0.011-0.337,0.026-0.434,0.081   c-0.097,0.057-0.2,0.11-0.23,0.117c-0.03,0.01-0.197,0.011-0.371,0.005c-0.175-0.006-0.36-0.047-0.415-0.09l-0.141-0.133   l-0.051-0.103c-0.004-0.025-0.149-0.061-0.323-0.078c-0.175-0.017-0.309-0.069-0.298-0.117l0.051-0.113l0.145-0.09l0.16-0.105   l0.079-0.137l-0.004-0.102c-0.021-0.004-0.104,0.011-0.188,0.035c-0.084,0.023-0.234,0.104-0.336,0.181   c-0.102,0.074-0.205,0.165-0.23,0.198c-0.025,0.035-0.15,0.113-0.277,0.173s-0.3,0.112-0.384,0.117   c-0.083,0.005-0.256,0.055-0.383,0.113c-0.127,0.058-0.304,0.112-0.395,0.12c-0.09,0.01-0.195-0.003-0.234-0.027l-0.102-0.128   l-0.062-0.113c-0.018-0.016-0.189,0.023-0.383,0.086s-0.355,0.112-0.36,0.112l-0.098-0.03l-0.077-0.075   c0.006-0.022,0.24-0.233,0.52-0.465c0.279-0.232,0.662-0.495,0.852-0.587c0.189-0.09,0.405-0.158,0.481-0.151   c0.074,0.006,0.173-0.025,0.219-0.07l0.163-0.13l0.083-0.116l0.098-0.188l0.141-0.126l0.094,0.056l0.144-0.035l0.134-0.118   l0.047-0.141l0.094-0.121l0.133,0.052l0.098,0.051l0.066-0.032l-0.022-0.054l-0.087-0.071v-0.105l0.133-0.058l0.149,0.05   l0.062,0.09l0.048,0.004l0.062-0.035l0.094,0.039l0.141,0.056c0.034,0.008,0.188,0.017,0.343,0.019   c0.155,0.002,0.309,0.015,0.341,0.027l0.181,0.142c0.066,0.063,0.177,0.214,0.245,0.332c0.069,0.118,0.156,0.246,0.195,0.284   l0.113,0.098c0.024,0.016,0.115,0.037,0.204,0.048c0.088,0.011,0.179,0.009,0.203-0.004l0.113-0.023l0.117,0.023l0.043,0.147   l0.008,0.181c0.006,0.03,0.073,0.12,0.148,0.2c0.075,0.079,0.131,0.183,0.125,0.23l-0.07,0.147L72.37,51.59l0.148,0.067   l0.074,0.062l-0.027,0.109l0.031,0.116l0.102,0.062l0.153,0.06l0.101,0.113l0.062,0.093c0.025,0.019,0.655,0.136,1.399,0.263   s1.364,0.246,1.38,0.266l0.082,0.075l0.102,0.136l0.171,0.215l0.173,0.188l0.062,0.16l0.078,0.172l0.02,0.108l-0.051,0.153   l-0.087,0.172l-0.14,0.046c-0.035,0-0.164-0.041-0.289-0.093s-0.244-0.119-0.267-0.148c-0.021-0.03-0.097-0.101-0.168-0.157   c-0.07-0.055-0.153-0.131-0.184-0.168l-0.113-0.109l-0.105-0.03l-0.059,0.069l0.066,0.11c0.043,0.027,0.113,0.108,0.157,0.18   c0.042,0.07,0.074,0.172,0.069,0.222l-0.031,0.118l-0.082,0.137l-0.117,0.176l-0.081,0.113c-0.014,0.028-0.038,0.241-0.056,0.473   c-0.018,0.232-0.049,0.45-0.069,0.485l-0.122,0.124l-0.16,0.098l-0.121,0.072l-0.083,0.093c-0.021,0.032-0.04,0.136-0.042,0.23   s-0.021,0.203-0.039,0.243c-0.02,0.038-0.102,0.068-0.185,0.065c-0.08-0.002-0.169,0.015-0.195,0.039l-0.062,0.11l0.013,0.105   c0.015,0.021,0.091,0.058,0.168,0.081c0.077,0.024,0.163,0.044,0.191,0.044s0.255-0.145,0.505-0.32   c0.248-0.178,0.472-0.327,0.496-0.333l0.07-0.027c0.015-0.01,0.202-0.003,0.418,0.012c0.215,0.016,0.403,0.016,0.418,0l0.038-0.077   c0.007-0.029,0.226-0.075,0.485-0.103s0.507-0.067,0.547-0.086l0.032-0.087l-0.044-0.078l-0.035-0.093   c-0.019-0.036-0.114-0.065-0.211-0.062c-0.097,0.002-0.188-0.021-0.203-0.052l-0.035-0.093l0.005-0.086l0.065-0.09l0.103-0.103   c0.024-0.032,0.164-0.119,0.308-0.195c0.145-0.075,0.349-0.138,0.454-0.141c0.105-0.002,0.288-0.035,0.406-0.075   c0.118-0.038,0.234-0.069,0.258-0.069s0.106,0.022,0.184,0.052c0.077,0.027,0.197,0.058,0.266,0.065l0.172,0.005l0.062-0.056   l-0.015-0.074l-0.043-0.062c-0.007-0.018,0.07-0.051,0.171-0.073c0.102-0.024,0.212-0.043,0.246-0.043   c0.035,0,0.221-0.086,0.415-0.188c0.193-0.104,0.347-0.153,0.34-0.11S80.002,54.433,79.878,54.538z"></path></g></svg>