<svg xmlns="http://www.w3.org/2000/svg" xmlns:xlink="http://www.w3.org/1999/xlink" version="1.1" x="0px" y="0px" viewBox="0 0 792 765" enable-background="new 0 0 792 612" xml:space="preserve"><g><g><g><path fill="#FFFFFF" fill-rule="evenodd" clip-rule="evenodd" d="M635.832,161.928c-0.582-1.793-1.7-3.468-2.486-3.721s-4.075-0.683-5.564-0.394     c-1.49,0.29-4.721-0.342-5.07-0.68c-0.349-0.337-1.805-1.227-2.459-1.227s-2.242-1.129-3.527-2.508l-31.641-13.652     c-1.74-0.725-4.562-1.973-6.269-2.774c0,0-0.228-0.107-1.182-0.383c-2.115-0.611-3.411,0.841-5.714,0     c-3.588-1.31-9.432-1.064-9.432-1.064c-1.885,0.079-3.619,0.206-3.855,0.282s-0.593-1.586-0.681-1.671     c-0.088-0.084-0.722-0.203-1.216-0.076c-0.493,0.127-2.068,1.36-2.203,2.18c-0.134,0.82-0.778,2.326-0.866,2.495     c-0.088,0.168-0.532,0.613-0.794,0.613s-0.303-0.994-0.09-2.21c0.213-1.215,1.034-4.438-0.139-5.816     c-1.174-1.378-3.295-5.666-4.108-5.535c-0.813,0.13-2.363,1.023-2.405,0.876c-0.042-0.146-1.271-2.027-2.919-2.583     c-1.647-0.555-5.141-0.995-5.189-1.197s-0.088-1.434-0.304-1.386c-0.216,0.047-1.678,0.833-2.464,0.833s-1.408-0.101-1.382-0.225     c0.025-0.124-1.047-1.144-2.851-1.691l-5.204-0.631c-1.881,0.136-4.067,1.166-4.859,2.288c-0.791,1.122-4.133,4.077-3.957,4.246     c0.175,0.168,0.635,0.716,0.635,0.843s-0.075,0.278-0.168,0.338s-1.946-0.011-3.365,1.23l-2.743,1.735     c-1.001,1.598-1.819,3.009-1.819,3.136s-0.107,0.23-0.238,0.23c-0.13,0-0.023-0.69,0.238-1.533     c0.263-0.843-0.211-2.577-1.632-1.979c0,0,0,0-1.225,0.293c-2.102,0.501-5.18,0.043-5.18,0.043     c-1.865-0.277-3.747-1.478-4.181-2.668c-0.435-1.189-2.466-4.447-4.114-3.533l-4.711,2.75c-1.521,1.115-3.266,1.958-3.877,1.874     s-2.223-0.41-2.223-0.537s0.317-0.353,0.704-0.503c0.388-0.151,4.044-1.411,5.191-2.906l12-17.559     c1.419-1.242,2.733-2.872,2.92-3.621c0.187-0.75-0.992-2.641-1.789-3.035c-0.796-0.395-4.205-3.527-4.715-5.342l-8.873-13.248     c-0.635-1.776-1.153-3.333-1.153-3.459s-0.125-0.256-0.278-0.287c-0.154-0.031-0.78,1.437-0.911,1.437s-1.112-0.827-2.182-1.837     s-6.176-4.625-6.786-5.215c-0.611-0.59-3.443-2.166-4.936-2.19c0,0,0,0-3.001-0.876c-3.052-0.891-10.399-4.664-15.714-3.22     c-0.281,0.077-0.908,0.871-1.428,0.921c-1.688,0.16-2.289,0.136-2.289,0.136c-1.885-0.075-3.497,0.071-3.585,0.324     c-0.087,0.252-1.784,0.439-3.575-0.147l-3.381,1.289c-1.848-0.375-3.766-1.397-4.262-2.272c0,0,0,0-1.004-0.71     c-2.396-1.695-4.094-2.569-4.094-2.569c-1.678-0.863-3.844-1.765-4.814-2.004s-3.104,0.895-3.234,0.895s-0.217-0.102-0.191-0.226     c0.026-0.124-0.756-1.682-2.205-2.888l-20.129-8.23c-1.884-0.085-3.747-0.155-4.14-0.155c-0.393,0-0.714-0.207-0.714-0.46     s0.429-0.46,0.952-0.46s1.213-1.1,1.532-2.444s1.36-4.199-0.342-5.01l-7.787-3.167c-1.872-0.23-3.403-0.108-3.403,0.271     c0,0.379-0.708-0.055-1.573-0.964c-0.865-0.91-2.312-3.164-0.658-3.431c1.654-0.268,5.196-1.813,5.327-1.813     s0.238-0.207,0.238-0.46s-1.54-0.37-3.423-0.26l-11.282,1.587c-1.865,0.282-3.497,0.512-3.627,0.512     c-0.131,0-0.31-0.207-0.396-0.459c-0.088-0.253-0.096-1.032,0.175-1.169c0.271-0.137,0.962-0.816,0.995-0.994     c0.033-0.178-1.759-0.904-2.674-0.718c-0.915,0.186-2.361,0.581-2.623,0.581s-0.476,0.311-0.476,0.69s0.491,0.694,1.091,0.699     s1.979,0.451,2.242,0.451s0.477,0.311,0.477,0.69c0,0.379-0.397,0.703-0.882,0.718c-0.485,0.015-1.531,0.478-1.571,0.534     s-0.75,1.192-2.336,2.212c0,0-6.001,3.857-11.401,1.825c-1.232-0.463-1.83-2.446-2.857-2.759     c-1.982-0.604-11.944,2.269-11.944,2.269c-1.812,0.522-4.16-0.327-5.218-1.888c0,0-1.107-1.634-5.219-3.601     c-3.195-1.528-6.191-0.805-6.191-0.805c-1.833,0.442-3.827-0.163-4.43-1.346s-2.235-3.21-2.817-3.018s-2.112,1.776-1.913,2.688     c0.199,0.911-0.368,3.969-2.121,4.664l-5.046,3.012c-1.757,0.685-3.301,1.245-3.432,1.245c-0.131,0-0.167,0.138-0.08,0.307     c0.087,0.168,0.21,0.614,0.08,0.614c-0.131,0-0.265,0.038-0.297,0.084c-0.033,0.047-1.093-0.248-1.335-1.009     c-0.243-0.761-2.417-3.17-2.417-3.676c0-0.505,0.714-1.126,1.587-1.38s3.396-1.376,3.665-1.935s1.767-2.065,1.614-2.458     c-0.152-0.392-1.164-2.145-1.762-2.265s-2.423-0.234-3.22,0.336c-0.797,0.571-4.754,1.646-4.77,2.114     c-0.016,0.469-1.637,2.429-3.091,3.629c0,0-6.079,5.015-6.402,5.177c-2.342,1.172-4.67,1.07-4.67,1.07     c-1.884-0.083-3.455,0.022-3.49,0.234c-0.036,0.211-0.434,2.076-1.043,2.271c-0.609,0.195-3.301,0.751-4.615,2.104l-6.079,3.478     c-0.58,1.794-0.956,3.327-0.835,3.406c0.121,0.08,0.912,0.943,0.549,1.709c-0.363,0.767-0.604,2.994-2.15,3.859     c0,0,0,0-1.476,1.646c-2.412,2.694-4.228,4.489-4.228,4.489c-1.341,1.326-2.385,2.673-2.32,2.995     c0.065,0.322,1.311,1.669,1.311,2.175s-0.732,0.492-1.628-0.031s-3.271-2.246-3.438-2.22c-0.167,0.026-0.869,1.137-0.556,2.024     c0.313,0.887,1.741,2.974,1.655,3.52c-0.086,0.546-0.907,1.998-1.043,2.281c-0.136,0.283-0.882,1.287-1.099,1.24     c-0.216-0.048-1.28-0.254-1.579,0.455c-0.299,0.708-0.738,3.393,0.023,4.616s3.912,3.303,3.983,3.875     c0.071,0.572-0.613,2.3-0.041,3.009c0.572,0.709,1.02,4.229,0.626,4.229s-0.786,0.069-0.874,0.154     c-0.087,0.084,0.374,1.687,1.219,3.372l-0.027,5.027c0.218,1.873,0.73,3.908,1.139,4.523c0.408,0.615,0.932,4.394,0.069,6.071     l-1.362,3.921c-0.746,1.732-2.175,3.474-3.175,3.871c-1,0.397-4,0.927-4.131,1.256c-0.13,0.329-1.053,1.847-0.882,2.588     c0.17,0.741,0.086,3.389-0.594,3.556c-0.68,0.167-2.388,1.743-2.162,1.997c0.226,0.253,1.494,1.333,1.494,1.839     s-1.337,1.69-2.972,2.63l-4.482,2.649c-1.662,0.891-2.51,2.62-1.884,3.843c0.626,1.223-0.614,5.09-1.138,5.596     c-0.524,0.506-1.879,2.59-1.849,3.506c0.031,0.916-0.5,3.6-1.042,3.852s-1.576,2.345-1.215,4.085     c0.361,1.74,1.763,4.68,1.81,5.272c0.048,0.592-0.608,2.288,0.5,3.026c1.107,0.738,4.582,2.361,5.659,1.829     c1.078-0.532,2.54-1.792,2.802-1.792c0.262,0,0.351,0.965,0.198,2.144c-0.153,1.179-2.384,4.301-3.893,5.433     c0,0-0.651,0.488-2.019,2.081c-1.93,2.247-3.375,4.48-3.375,4.48c-1.024,1.583-1.462,4.368-0.972,6.189l2.019,4.752     c1.281,1.384,2.329,3.034,2.329,3.666c0,0.632-0.312,1.24-0.693,1.352s-1.617,1.063-1.529,1.485     c0.087,0.422,1.745,2.116,3.491,2.829c0,0,9.365,3.823,13.968,9.743c1.793,2.305,4.316,4.038,4.316,4.038     c1.555,1.068,2.826,2.355,2.826,2.861c0,0.506,1.116,1.985,2.479,3.288c0,0,0.428,0.409,1.331,1.772     c1.612,2.434,2.412,4.228,2.412,4.228c0.768,1.722,2.111,3.821,2.984,4.665s3.171,3.621,3.166,4.3     c-0.004,0.679,1.056,2.193,1.755,2.446c0.698,0.253,2.93,2.256,3.407,3.89c0,0,0,0,1.037,1.629     c0.59,0.927,1.973,0.702,2.857,1.379c1.195,0.917,5.214,6.824,5.214,6.824c1.061,1.559,1.945,3.18,1.964,3.601     c0.02,0.421,0.194,2.525,1.639,3.736l19.923,13.493c1.74,0.728,3.913,1.323,4.83,1.323c0.917,0,2.499,0.419,3.516,0.932     c1.017,0.512,4.139,1.368,5.056,1.368c0.916,0,2.023,0.345,2.46,0.767s2.574,1.686,3.78,1.873c1.206,0.187,4.104,1.5,4.235,1.5     c0.131,0,0.31,0.345,0.397,0.767c0.087,0.422,1.664,2.287,3.309,3.208l3.861,2.022c1.73,0.75,3.571,2.846,4.092,4.659     l1.337,6.973c0.839,1.689,1.526,4.613,1.526,6.499v0.043c0,1.885,0.791,4.753,1.757,6.373c0,0,0.39,0.653,0.624,2.115     c0.454,2.833,0.17,8.535,0.17,8.535c-0.094,1.883-0.191,3.716-0.217,4.072s-0.529,1.256-0.649,1.335     c-0.121,0.079-1.224,0.969-1.242,1.768c-0.019,0.798,0.492,2.332,0.471,2.459c-0.021,0.128,1.235,1.729,0.951,3.562     s0.874,7.545,1.31,8.473s0.715,4.526-0.351,5.936c0,0,0,0,0.034,1.116c0.027,0.893,1.274,1.84,1.428,2.301     c0.068,0.202,0.026,5.77,0.026,5.77c-0.014,1.886-0.168,3.498-0.343,3.582c-0.175,0.085-0.492,0.996-0.317,1.84     c0.175,0.844,0.421,3.066,0.159,3.066s-0.183,1.515,0.175,3.366c0,0,0.234,1.21-0.651,4.453c-0.383,1.4-2.222,3.253-1.429,5.52     c0.377,1.077,1.969,1.976,2.381,3.22c0.663,1.998,0.663,1.998,0.663,1.998c-0.103,1.431-0.372,2.966-0.598,3.412     c-0.227,0.447-1.107,2.983-0.635,4.809c0,0,2.257,8.729,4.38,13.698c1.2,2.812-1.042,5.406-1.429,6.439     c-0.258,0.688,1.795,3.252,1.905,3.68c0.376,1.469-1.832,4.296-1.428,6.439c0.933,4.961-1.584,8.416-2.381,11.499     c-0.72,2.783,0.938,4.437,0,7.819c-0.606,2.186-0.606,2.186-0.606,2.186c-0.19,1.328-0.353,2.759-0.361,3.181     c-0.008,0.421-0.983,1.661-1.04,1.818c-0.057,0.156-1.064-0.286-1.326-0.286c-0.262,0,0.016,1.462,0.616,3.25     c0,0,0.202,0.6,1.765,4.109c0.973,2.184-0.104,4.252,0.953,5.979c0.686,1.121,2.387,2.343,2.857,3.68     c1.398,3.976-1.732,5.562-1.429,7.358c1.135,6.711,2.965,11.095,2.965,11.095c0.727,1.74,1.757,3.21,2.291,3.267     s2.027-0.976,2.198-1.48c0.171-0.505,0.792-1.407,0.976-1.438c0.184-0.032,1.128,1.107,1.17,1.268     c0.042,0.159-0.392,1.392-0.196,1.762c0.196,0.37,2.292,0.994,2.038,1.346c-0.255,0.351-1.384,1.871-1.313,2.689     c0.071,0.817,2.108,5.538,2.515,7.379c0,0-2.938,2.205-2.495,3.825s1.478,3.509,2.302,4.196c0.824,0.688,2.902,2.712,2.46,3.62     s-3.013,4.032-3.022,5.918l0.701,2.812c0.147,1.88,0.268,3.625,0.268,3.878s-0.567,0.123-1.26-0.29     c-0.692-0.412-2.826-1.795-3.746-1.531s-4.308,1.453-4.052,2.127c0.256,0.674,0.165,2.256-0.229,3.137     c-0.393,0.882-2.003,2.979-1.834,3.52c0.169,0.541,1.442,2.237,1.835,2.237c0.393,0,0.817-0.258,0.943-0.573     c0.125-0.314-0.705-1.829-0.705-1.955c0-0.127,0.55-0.251,1.222-0.275s2.986,1.025,3.473,1.1s1.496-0.854,2.079-0.608     c0.583,0.245,1.675,1.636,0.943,2.496s-0.481,5.313,0.797,5.286c1.279-0.028,3.604-0.871,3.866-0.871s0.476,0.414,0.476,0.92     c0,0.507-0.433,0.859-0.961,0.785s-1.969,0.172-2.64,0.216s-1.605,0.854-0.985,1.435c0.621,0.581,2.191,2.909,1.592,4.379     c0,0,0,0,0.138,1.466c0.273,2.916,1.19,7.226,1.19,7.226c0.393,1.845,0.993,3.741,1.334,4.216     c0.342,0.475,2.919,1.744,3.173,2.682s1.35,3.649,1.817,4.01s2.288,0.546,2.049,0.89s-0.04,1.985-0.04,2.365     c0,0.379,0.357,0.759,0.793,0.843s1.595,1.147,1.604,2.175c0.008,1.028,2.532,4.712,3.902,6.009l9.943,5.846     c1.804,0.548,3.495,0.927,3.756,0.843c0.262-0.085,0.644-1.818,0.266-3.666c0,0,0.594-0.755,0.626-2.559     c0.033-1.805,0.086-3.319,0.119-3.365c0.032-0.047,0.92-0.338,0.952-0.291c0.032,0.047,0.697,0.656,0.458,1     c-0.239,0.345-0.08,2.159-0.127,2.752c-0.047,0.592,2.099,1.451,2.812,1.169s2.774-0.244,1.932,0.517     c-0.843,0.76-1.647,3.263-1.459,3.881s1.382,2.056,0.579,2.569c-0.802,0.514-3.447-0.148-3.624,0.248s-1.444,1.351-2.438,1.636     s-3.024,1.852-3.112,1.936s-0.278,0.332-0.23,0.363c0.048,0.03,1.93,0.806,3.814,0.734l6.004-0.225     c1.885-0.059,3.855-0.106,4.379-0.106c0.524,0,0.573,0.271,0.108,0.602c-0.464,0.331-1.981,1.713-1.361,2.294     c0.62,0.58,3.792,1.397,5.148,1.021c1.356-0.375,4.521,1.143,4.914,1.143c0.393,0,0.585-0.312,0.428-0.695     c-0.157-0.382-0.766-1.21-0.886-1.289c-0.121-0.079-1.303-0.919-1.419-1.655c-0.115-0.736-1.218-2.087-1.218-2.341     c0-0.253,1.538-0.349,3.419-0.213l8.938-1.386c1.847-0.386,3.571-0.7,3.833-0.7s0.477-0.518,0.477-1.15     c0-0.632-1.504-1.495-3.342-1.917l-11.666-5.752c-1.436-1.222-3.146-2.221-3.802-2.221s-1.19-0.311-1.19-0.689     s0.321-0.689,0.714-0.689c0.394,0,0.208-0.58-0.409-1.29c-0.619-0.709-2.492-2.773-2.838-2.68s-1.609,0.63-2.015,0.482     s-2.068-0.909-2.008-1.224s1.22-1.2,2.265-1.116c1.044,0.083,2.971,0.769,3.101,0.769c0.131,0-0.87-1.073-2.226-2.385     l-2.482-10.289c-0.946-1.631-0.986-3.652-0.088-4.491c0.897-0.839,3.988-4.153,3.875-6.035c0,0-0.174-2.873,0.684-5.317     c1.439-4.107,5.949-7.908,5.949-7.908c1.441-1.216,2.725-3.265,2.852-4.555c0.126-1.29-0.734-4.024-0.767-4.5     c0,0,0,0-1.368-0.516c-0.709-0.295-0.709-0.295-0.709-0.295c-0.135,0.162-1.682-0.264-3.439-0.947l-5.348-1.904     c-1.062-1.558-1.496-3.941-0.965-5.298s2.266-6.092,3.307-6.994c1.042-0.901,6.686-1.844,6.693-2.168     c0.01-0.323-0.771-2.473-0.529-2.841c0.242-0.368,1.801-2.153,1.627-3.354c-0.172-1.202-0.647-6.176-0.078-7.398     c0.569-1.224,4.16-3.68,3.524-4.148c-0.636-0.47-2.944-1.397-2.717-1.898s2.435-1.021,3.006-0.57     c0.571,0.449,2.22,1.424,2.711,1.354s2.528-0.781,2.638-1.331c0.107-0.549-0.311-2.259-0.45-2.865     c-0.14-0.607-1.329-2.481-2.098-2.366s-2.519,1.17-2.649,1.17s-0.139,0.065-0.018,0.145s1.053,0.472,0.863,0.661     c-0.189,0.19-1.351,1.112-1.676,1.209c-0.326,0.096-0.254-1.095-0.123-1.095s-0.404-0.207-1.19-0.46     c-0.785-0.253-3.218-2.332-3.659-4.059c-0.441-1.728-1.539-6.546-1.49-6.577c0.048-0.031,1.811-0.265,3.549,0.467     c0,0,5.384,2.268,10.648,0.51c1.588-0.53,1.956-0.789,1.956-0.789c1.543-1.083,2.901-2.344,3.019-2.802s0.456-1.784,0.109-2.171     c-0.348-0.387-1.021-3.514-0.713-5.293c0.311-1.779,1.088-5.59,0.774-5.696c-0.312-0.105-1.817-0.678-1.823-1.181     s-0.357-2.306-0.227-2.306s0.431,0.132,0.667,0.293c0.235,0.161,3.016,0.534,4.897,0.42l0.774-0.046     c1.882-0.114,4.92-0.578,6.75-1.031c0,0,12.677-3.141,18.101-6.995c2.191-1.558,1.212-3.67,2.856-5.979     c1.759-2.472,2.743-8.12,2.743-8.12c0.324-1.858,0.518-3.447,0.431-3.531s-0.316-0.203-0.316-0.076     c0,0.126-0.634-0.075-1.408-0.447s-2.813-2.616-2.735-3.268s0.175-3.106-1.184-4.414l-4.771-5.225     c-1.779-0.625-3.1-1.547-2.934-2.05s1.295-1.628,2.08-0.8c0.787,0.829,2.762,1.645,3.809,1.561     c1.048-0.084,5.109,0.525,6.697,1.542c0,0,1.324,0.848,2.827,1.371c2.409,0.839,3.464-1.19,4.762-1.38     c0.896-0.132,2.274,0.772,2.856,0.92c2.678,0.676,7.277-0.888,9.048-2.3c2.375-1.896,2.681-4.563,4.285-7.359     c1.665-2.902,4.591-5.528,4.591-5.528c1.403-1.26,2.766-3.118,3.027-4.131c0.263-1.012,2.197-4.59,3.72-5.702     c0,0,5.325-3.895,8.186-7.636c3.455-4.52,6.416-12.428,6.416-12.428c0.661-1.766,1.916-4.039,2.79-5.051     c0.873-1.011,3.674-3.956,4.285-4.293s2.318-2.767,2.438-4.648l0.343-12.973c-0.307-1.86-0.027-4.633,0.622-6.16     c0.649-1.526,1.521-5.502,1.914-5.502c0.394,0,0.715,0.311,0.715,0.689c0,0.38,0.69-0.689,1.535-2.375     c0,0,0.476-0.95,2.273-2.454c1.203-1.005,2.924-0.959,4.286-1.839c1.319-0.854,2.057-2.836,3.333-3.681     c1.494-0.987,1.494-0.987,1.494-0.987c1.797-0.216,3.625-0.737,4.062-1.159s2.256-1.362,3.074-1.153     c0.818,0.208,2.537,0.081,2.799,0.081s0.476-0.414,0.476-0.921c0-0.506,0.83-1.315,1.846-1.799     c1.016-0.482,4.803-1.672,4.78-1.979s-0.911-1.384-0.911-1.51c0-0.127,0.818-0.281,1.819-0.342     c1.001-0.062,2.886-0.326,3.399-0.298c0.515,0.028-0.052,0.478-0.14,0.562c-0.088,0.084,1.201,0.033,3.057-0.301l9.387,0.132     c1.886,0.009,3.524-0.27,3.641-0.617c0.116-0.349,1.55-1.346,1.376-1.515c-0.175-0.169,0.63-1.343,2.176-2.235     s5.312-5.822,5.344-7.612c0.033-1.79,2.416-6.357,3.115-6.863c0.698-0.505,2.957-3.325,3.469-5.14c0,0,0.433-1.533,1.927-3.599     c0.682-0.941,2.388-1.09,2.857-2.299c1.24-3.199-0.731-7.782,0.477-10.58c0.892-2.068,4.241-3.15,4.762-5.059     c0.533-1.958-0.701-5.285,0-7.82c0.602-2.18,2.636-5.853,2.856-7.819c0.285-2.54-2.5-7.786-1.905-11.039     c0.209-1.137,0.592-2.655,0.592-2.655c0.461-1.828,0.623-3.393,0.361-3.478c-0.262-0.084-0.386-1.742,0.307-3.495l0.454-3.697     c0.629-1.778,1.358-3.164,1.62-3.079c0.262,0.084,1.028,0.568,1.12,0.888c0.093,0.32,0.134,1.697,0.504,1.672     c0.369-0.025,1.951-1.78,2.828-3.449c0,0,5.071-9.65,9.833-14.444c1.538-1.547,3.79-1.487,5.714-2.759     c0.689-0.457,0.689-0.457,0.689-0.457c0.145-1.014,0.62-2.05,1.057-2.303s2.181-1.821,2.906-2.922s3.181-4.046,3.442-4.13     s1.164-1.835,1.423-3.703L635.832,161.928z M256.218,71.735c0,0.253-0.107,0.46-0.238,0.46s-0.238-0.207-0.238-0.46     s0.107-0.46,0.238-0.46S256.218,71.482,256.218,71.735z M275.265,45.519c-0.261,0-0.404-0.207-0.317-0.46     s0.385-0.824,0.467-0.708S275.526,45.519,275.265,45.519z M303.236,55.12c-1.504,0.538-2.734,0.46-2.734-0.171     c0-0.632-0.453-1.448-1.005-1.812s-1.794-2.585-1.141-3.741c0.653-1.156,3.057-4.056,4.17-3.15     c1.113,0.906,2.846,3.413,2.977,3.413S304.741,54.582,303.236,55.12z M316.216,34.02c0,0.253-0.207,0.435-0.459,0.403     c-0.252-0.032-1.075-0.423-1.204-0.448c-0.128-0.025-0.613-0.435-0.485-0.46s0.824-0.395,0.952-0.37s0.827,0.415,0.958,0.415     S316.216,33.767,316.216,34.02z M368.118,36.32h1.429C368.727,36.728,368.937,36.725,368.118,36.32z M382.879,568.942     c0,0.253-0.428,0.46-0.952,0.46s-0.952,0.311-0.952,0.689s-0.214,0.689-0.476,0.689c-0.262,0-0.405-0.345-0.318-0.767     s0.542-1.437,0.817-1.318s1.512-0.215,1.644-0.215C382.772,568.481,382.879,568.688,382.879,568.942z M383.991,575.534     c-0.087-0.084,0.283-0.314,0.823-0.512c0.54-0.198,2.887-1.481,3.542-1.481s1.19,0.104,1.19,0.229     c0,0.127-0.85,0.522-1.889,0.879C386.618,575.007,384.079,575.618,383.991,575.534z M392.106,576.59     c-0.099,0.347-0.68,0.907-1.291,1.244c-0.611,0.337-2.268,1.355-2.324,1.513c-0.057,0.157-0.957-0.286-1.088-0.286     c-0.131,0,0.469-0.548,1.333-1.218c0.864-0.671,2.786-2.853,2.873-2.769S392.206,576.243,392.106,576.59z M408.052,592.777     c0.036,0.045,0.173,0.081,0.304,0.081s0.238,0.207,0.238,0.461c0,0.253-0.215,0.46-0.477,0.46s-0.548-0.207-0.635-0.46     C407.395,593.065,408.016,592.732,408.052,592.777z M399.336,572.935c-0.146,0.08-0.27,0.173-0.273,0.204     s-0.684-0.058-0.945-0.058s-0.365-0.231-0.229-0.514c0.136-0.283,0.919-1.257,1.181-1.172     C399.331,571.479,399.482,572.854,399.336,572.935z M503.827,381.281c-0.197,0.343,0.683,1.854,0,2.761     c-1.328,1.764-3.438,2.521-3.438,2.521c-1.775,0.638-3.335,1.158-3.466,1.158s0.823-1.12,2.12-2.489l3.714-8.249     c0.851-1.683,1.671-2.996,1.823-2.919c0.151,0.077,0.959,1.163,1.305,1.07c0.346-0.094,1.384-0.75,1.514-0.75     c0.131,0-0.492,1.359-1.385,3.02C506.014,377.403,505.368,378.604,503.827,381.281z M508.589,374.384     c0,0.253-0.107,0.46-0.237,0.46c-0.131,0-0.238-0.207-0.238-0.46c0-0.254,0.107-0.461,0.238-0.461     C508.481,373.923,508.589,374.13,508.589,374.384z M562.873,311.139c0,0.127-0.174,0.295-0.385,0.372     c-0.212,0.078-0.426-0.992-0.251-0.907C562.412,310.688,562.873,311.013,562.873,311.139z M568.11,309.529     c0,0.254-0.107,0.461-0.237,0.461c-0.131,0-0.238-0.207-0.238-0.461c0-0.252,0.107-0.459,0.238-0.459     C568.003,309.07,568.11,309.277,568.11,309.529z"/><path fill="#FFFFFF" fill-rule="evenodd" clip-rule="evenodd" d="M635.832,161.928c-0.582-1.793-1.7-3.468-2.486-3.721s-4.075-0.683-5.564-0.394     c-1.49,0.29-4.721-0.342-5.07-0.68c-0.349-0.337-1.805-1.227-2.459-1.227s-2.242-1.129-3.527-2.508l-31.641-13.652     c-1.74-0.725-4.562-1.973-6.269-2.774c0,0-0.228-0.107-1.182-0.383c-2.115-0.611-3.411,0.841-5.714,0     c-3.588-1.31-9.432-1.064-9.432-1.064c-1.885,0.079-3.619,0.206-3.855,0.282s-0.593-1.586-0.681-1.671     c-0.088-0.084-0.722-0.203-1.216-0.076c-0.493,0.127-2.068,1.36-2.203,2.18c-0.134,0.82-0.778,2.326-0.866,2.495     c-0.088,0.168-0.532,0.613-0.794,0.613s-0.303-0.994-0.09-2.21c0.213-1.215,1.034-4.438-0.139-5.816     c-1.174-1.378-3.295-5.666-4.108-5.535c-0.813,0.13-2.363,1.023-2.405,0.876c-0.042-0.146-1.271-2.027-2.919-2.583     c-1.647-0.555-5.141-0.995-5.189-1.197s-0.088-1.434-0.304-1.386c-0.216,0.047-1.678,0.833-2.464,0.833s-1.408-0.101-1.382-0.225     c0.025-0.124-1.047-1.144-2.851-1.691l-5.204-0.631c-1.881,0.136-4.067,1.166-4.859,2.288c-0.791,1.122-4.133,4.077-3.957,4.246     c0.175,0.168,0.635,0.716,0.635,0.843s-0.075,0.278-0.168,0.338s-1.946-0.011-3.365,1.23l-2.743,1.735     c-1.001,1.598-1.819,3.009-1.819,3.136s-0.107,0.23-0.238,0.23c-0.13,0-0.023-0.69,0.238-1.533     c0.263-0.843-0.211-2.577-1.632-1.979c0,0,0,0-1.225,0.293c-2.102,0.501-5.18,0.043-5.18,0.043     c-1.865-0.277-3.747-1.478-4.181-2.668c-0.435-1.189-2.466-4.447-4.114-3.533l-4.711,2.75c-1.521,1.115-3.266,1.958-3.877,1.874     s-2.223-0.41-2.223-0.537s0.317-0.353,0.704-0.503c0.388-0.151,4.044-1.411,5.191-2.906l12-17.559     c1.419-1.242,2.733-2.872,2.92-3.621c0.187-0.75-0.992-2.641-1.789-3.035c-0.796-0.395-4.205-3.527-4.715-5.342l-8.873-13.248     c-0.635-1.776-1.153-3.333-1.153-3.459s-0.125-0.256-0.278-0.287c-0.154-0.031-0.78,1.437-0.911,1.437s-1.112-0.827-2.182-1.837     s-6.176-4.625-6.786-5.215c-0.611-0.59-3.443-2.166-4.936-2.19c0,0,0,0-3.001-0.876c-3.052-0.891-10.399-4.664-15.714-3.22     c-0.281,0.077-0.908,0.871-1.428,0.921c-1.688,0.16-2.289,0.136-2.289,0.136c-1.885-0.075-3.497,0.071-3.585,0.324     c-0.087,0.252-1.784,0.439-3.575-0.147l-3.381,1.289c-1.848-0.375-3.766-1.397-4.262-2.272c0,0,0,0-1.004-0.71     c-2.396-1.695-4.094-2.569-4.094-2.569c-1.678-0.863-3.844-1.765-4.814-2.004s-3.104,0.895-3.234,0.895s-0.217-0.102-0.191-0.226     c0.026-0.124-0.756-1.682-2.205-2.888l-20.129-8.23c-1.884-0.085-3.747-0.155-4.14-0.155c-0.393,0-0.714-0.207-0.714-0.46     s0.429-0.46,0.952-0.46s1.213-1.1,1.532-2.444s1.36-4.199-0.342-5.01l-7.787-3.167c-1.872-0.23-3.403-0.108-3.403,0.271     c0,0.379-0.708-0.055-1.573-0.964c-0.865-0.91-2.312-3.164-0.658-3.431c1.654-0.268,5.196-1.813,5.327-1.813     s0.238-0.207,0.238-0.46s-1.54-0.37-3.423-0.26l-11.282,1.587c-1.865,0.282-3.497,0.512-3.627,0.512     c-0.131,0-0.31-0.207-0.396-0.459c-0.088-0.253-0.096-1.032,0.175-1.169c0.271-0.137,0.962-0.816,0.995-0.994     c0.033-0.178-1.759-0.904-2.674-0.718c-0.915,0.186-2.361,0.581-2.623,0.581s-0.476,0.311-0.476,0.69s0.491,0.694,1.091,0.699     s1.979,0.451,2.242,0.451s0.477,0.311,0.477,0.69c0,0.379-0.397,0.703-0.882,0.718c-0.485,0.015-1.531,0.478-1.571,0.534     s-0.75,1.192-2.336,2.212c0,0-6.001,3.857-11.401,1.825c-1.232-0.463-1.83-2.446-2.857-2.759     c-1.982-0.604-11.944,2.269-11.944,2.269c-1.812,0.522-4.16-0.327-5.218-1.888c0,0-1.107-1.634-5.219-3.601     c-3.195-1.528-6.191-0.805-6.191-0.805c-1.833,0.442-3.827-0.163-4.43-1.346s-2.235-3.21-2.817-3.018s-2.112,1.776-1.913,2.688     c0.199,0.911-0.368,3.969-2.121,4.664l-5.046,3.012c-1.757,0.685-3.301,1.245-3.432,1.245c-0.131,0-0.167,0.138-0.08,0.307     c0.087,0.168,0.21,0.614,0.08,0.614c-0.131,0-0.265,0.038-0.297,0.084c-0.033,0.047-1.093-0.248-1.335-1.009     c-0.243-0.761-2.417-3.17-2.417-3.676c0-0.505,0.714-1.126,1.587-1.38s3.396-1.376,3.665-1.935s1.767-2.065,1.614-2.458     c-0.152-0.392-1.164-2.145-1.762-2.265s-2.423-0.234-3.22,0.336c-0.797,0.571-4.754,1.646-4.77,2.114     c-0.016,0.469-1.637,2.429-3.091,3.629c0,0-6.079,5.015-6.402,5.177c-2.342,1.172-4.67,1.07-4.67,1.07     c-1.884-0.083-3.455,0.022-3.49,0.234c-0.036,0.211-0.434,2.076-1.043,2.271c-0.609,0.195-3.301,0.751-4.615,2.104l-6.079,3.478     c-0.58,1.794-0.956,3.327-0.835,3.406c0.121,0.08,0.912,0.943,0.549,1.709c-0.363,0.767-0.604,2.994-2.15,3.859     c0,0,0,0-1.476,1.646c-2.412,2.694-4.228,4.489-4.228,4.489c-1.341,1.326-2.385,2.673-2.32,2.995     c0.065,0.322,1.311,1.669,1.311,2.175s-0.732,0.492-1.628-0.031s-3.271-2.246-3.438-2.22c-0.167,0.026-0.869,1.137-0.556,2.024     c0.313,0.887,1.741,2.974,1.655,3.52c-0.086,0.546-0.907,1.998-1.043,2.281c-0.136,0.283-0.882,1.287-1.099,1.24     c-0.216-0.048-1.28-0.254-1.579,0.455c-0.299,0.708-0.738,3.393,0.023,4.616s3.912,3.303,3.983,3.875     c0.071,0.572-0.613,2.3-0.041,3.009c0.572,0.709,1.02,4.229,0.626,4.229s-0.786,0.069-0.874,0.154     c-0.087,0.084,0.374,1.687,1.219,3.372l-0.027,5.027c0.218,1.873,0.73,3.908,1.139,4.523c0.408,0.615,0.932,4.394,0.069,6.071     l-1.362,3.921c-0.746,1.732-2.175,3.474-3.175,3.871c-1,0.397-4,0.927-4.131,1.256c-0.13,0.329-1.053,1.847-0.882,2.588     c0.17,0.741,0.086,3.389-0.594,3.556c-0.68,0.167-2.388,1.743-2.162,1.997c0.226,0.253,1.494,1.333,1.494,1.839     s-1.337,1.69-2.972,2.63l-4.482,2.649c-1.662,0.891-2.51,2.62-1.884,3.843c0.626,1.223-0.614,5.09-1.138,5.596     c-0.524,0.506-1.879,2.59-1.849,3.506c0.031,0.916-0.5,3.6-1.042,3.852s-1.576,2.345-1.215,4.085     c0.361,1.74,1.763,4.68,1.81,5.272c0.048,0.592-0.608,2.288,0.5,3.026c1.107,0.738,4.582,2.361,5.659,1.829     c1.078-0.532,2.54-1.792,2.802-1.792c0.262,0,0.351,0.965,0.198,2.144c-0.153,1.179-2.384,4.301-3.893,5.433     c0,0-0.651,0.488-2.019,2.081c-1.93,2.247-3.375,4.48-3.375,4.48c-1.024,1.583-1.462,4.368-0.972,6.189l2.019,4.752     c1.281,1.384,2.329,3.034,2.329,3.666c0,0.632-0.312,1.24-0.693,1.352s-1.617,1.063-1.529,1.485     c0.087,0.422,1.745,2.116,3.491,2.829c0,0,9.365,3.823,13.968,9.743c1.793,2.305,4.316,4.038,4.316,4.038     c1.555,1.068,2.826,2.355,2.826,2.861c0,0.506,1.116,1.985,2.479,3.288c0,0,0.428,0.409,1.331,1.772     c1.612,2.434,2.412,4.228,2.412,4.228c0.768,1.722,2.111,3.821,2.984,4.665s3.171,3.621,3.166,4.3     c-0.004,0.679,1.056,2.193,1.755,2.446c0.698,0.253,2.93,2.256,3.407,3.89c0,0,0,0,1.037,1.629     c0.59,0.927,1.973,0.702,2.857,1.379c1.195,0.917,5.214,6.824,5.214,6.824c1.061,1.559,1.945,3.18,1.964,3.601     c0.02,0.421,0.194,2.525,1.639,3.736l19.923,13.493c1.74,0.728,3.913,1.323,4.83,1.323c0.917,0,2.499,0.419,3.516,0.932     c1.017,0.512,4.139,1.368,5.056,1.368c0.916,0,2.023,0.345,2.46,0.767s2.574,1.686,3.78,1.873c1.206,0.187,4.104,1.5,4.235,1.5     c0.131,0,0.31,0.345,0.397,0.767c0.087,0.422,1.664,2.287,3.309,3.208l3.861,2.022c1.73,0.75,3.571,2.846,4.092,4.659     l1.337,6.973c0.839,1.689,1.526,4.613,1.526,6.499v0.043c0,1.885,0.791,4.753,1.757,6.373c0,0,0.39,0.653,0.624,2.115     c0.454,2.833,0.17,8.535,0.17,8.535c-0.094,1.883-0.191,3.716-0.217,4.072s-0.529,1.256-0.649,1.335     c-0.121,0.079-1.224,0.969-1.242,1.768c-0.019,0.798,0.492,2.332,0.471,2.459c-0.021,0.128,1.235,1.729,0.951,3.562     s0.874,7.545,1.31,8.473s0.715,4.526-0.351,5.936c0,0,0,0,0.034,1.116c0.027,0.893,1.274,1.84,1.428,2.301     c0.068,0.202,0.026,5.77,0.026,5.77c-0.014,1.886-0.168,3.498-0.343,3.582c-0.175,0.085-0.492,0.996-0.317,1.84     c0.175,0.844,0.421,3.066,0.159,3.066s-0.183,1.515,0.175,3.366c0,0,0.234,1.21-0.651,4.453c-0.383,1.4-2.222,3.253-1.429,5.52     c0.377,1.077,1.969,1.976,2.381,3.22c0.663,1.998,0.663,1.998,0.663,1.998c-0.103,1.431-0.372,2.966-0.598,3.412     c-0.227,0.447-1.107,2.983-0.635,4.809c0,0,2.257,8.729,4.38,13.698c1.2,2.812-1.042,5.406-1.429,6.439     c-0.258,0.688,1.795,3.252,1.905,3.68c0.376,1.469-1.832,4.296-1.428,6.439c0.933,4.961-1.584,8.416-2.381,11.499     c-0.72,2.783,0.938,4.437,0,7.819c-0.606,2.186-0.606,2.186-0.606,2.186c-0.19,1.328-0.353,2.759-0.361,3.181     c-0.008,0.421-0.983,1.661-1.04,1.818c-0.057,0.156-1.064-0.286-1.326-0.286c-0.262,0,0.016,1.462,0.616,3.25     c0,0,0.202,0.6,1.765,4.109c0.973,2.184-0.104,4.252,0.953,5.979c0.686,1.121,2.387,2.343,2.857,3.68     c1.398,3.976-1.732,5.562-1.429,7.358c1.135,6.711,2.965,11.095,2.965,11.095c0.727,1.74,1.757,3.21,2.291,3.267     s2.027-0.976,2.198-1.48c0.171-0.505,0.792-1.407,0.976-1.438c0.184-0.032,1.128,1.107,1.17,1.268     c0.042,0.159-0.392,1.392-0.196,1.762c0.196,0.37,2.292,0.994,2.038,1.346c-0.255,0.351-1.384,1.871-1.313,2.689     c0.071,0.817,2.108,5.538,2.515,7.379c0,0-2.938,2.205-2.495,3.825s1.478,3.509,2.302,4.196c0.824,0.688,2.902,2.712,2.46,3.62     s-3.013,4.032-3.022,5.918l0.701,2.812c0.147,1.88,0.268,3.625,0.268,3.878s-0.567,0.123-1.26-0.29     c-0.692-0.412-2.826-1.795-3.746-1.531s-4.308,1.453-4.052,2.127c0.256,0.674,0.165,2.256-0.229,3.137     c-0.393,0.882-2.003,2.979-1.834,3.52c0.169,0.541,1.442,2.237,1.835,2.237c0.393,0,0.817-0.258,0.943-0.573     c0.125-0.314-0.705-1.829-0.705-1.955c0-0.127,0.55-0.251,1.222-0.275s2.986,1.025,3.473,1.1s1.496-0.854,2.079-0.608     c0.583,0.245,1.675,1.636,0.943,2.496s-0.481,5.313,0.797,5.286c1.279-0.028,3.604-0.871,3.866-0.871s0.476,0.414,0.476,0.92     c0,0.507-0.433,0.859-0.961,0.785s-1.969,0.172-2.64,0.216s-1.605,0.854-0.985,1.435c0.621,0.581,2.191,2.909,1.592,4.379     c0,0,0,0,0.138,1.466c0.273,2.916,1.19,7.226,1.19,7.226c0.393,1.845,0.993,3.741,1.334,4.216     c0.342,0.475,2.919,1.744,3.173,2.682s1.35,3.649,1.817,4.01s2.288,0.546,2.049,0.89s-0.04,1.985-0.04,2.365     c0,0.379,0.357,0.759,0.793,0.843s1.595,1.147,1.604,2.175c0.008,1.028,2.532,4.712,3.902,6.009l9.943,5.846     c1.804,0.548,3.495,0.927,3.756,0.843c0.262-0.085,0.644-1.818,0.266-3.666c0,0,0.594-0.755,0.626-2.559     c0.033-1.805,0.086-3.319,0.119-3.365c0.032-0.047,0.92-0.338,0.952-0.291c0.032,0.047,0.697,0.656,0.458,1     c-0.239,0.345-0.08,2.159-0.127,2.752c-0.047,0.592,2.099,1.451,2.812,1.169s2.774-0.244,1.932,0.517     c-0.843,0.76-1.647,3.263-1.459,3.881s1.382,2.056,0.579,2.569c-0.802,0.514-3.447-0.148-3.624,0.248s-1.444,1.351-2.438,1.636     s-3.024,1.852-3.112,1.936s-0.278,0.332-0.23,0.363c0.048,0.03,1.93,0.806,3.814,0.734l6.004-0.225     c1.885-0.059,3.855-0.106,4.379-0.106c0.524,0,0.573,0.271,0.108,0.602c-0.464,0.331-1.981,1.713-1.361,2.294     c0.62,0.58,3.792,1.397,5.148,1.021c1.356-0.375,4.521,1.143,4.914,1.143c0.393,0,0.585-0.312,0.428-0.695     c-0.157-0.382-0.766-1.21-0.886-1.289c-0.121-0.079-1.303-0.919-1.419-1.655c-0.115-0.736-1.218-2.087-1.218-2.341     c0-0.253,1.538-0.349,3.419-0.213l8.938-1.386c1.847-0.386,3.571-0.7,3.833-0.7s0.477-0.518,0.477-1.15     c0-0.632-1.504-1.495-3.342-1.917l-11.666-5.752c-1.436-1.222-3.146-2.221-3.802-2.221s-1.19-0.311-1.19-0.689     s0.321-0.689,0.714-0.689c0.394,0,0.208-0.58-0.409-1.29c-0.619-0.709-2.492-2.773-2.838-2.68s-1.609,0.63-2.015,0.482     s-2.068-0.909-2.008-1.224s1.22-1.2,2.265-1.116c1.044,0.083,2.971,0.769,3.101,0.769c0.131,0-0.87-1.073-2.226-2.385     l-2.482-10.289c-0.946-1.631-0.986-3.652-0.088-4.491c0.897-0.839,3.988-4.153,3.875-6.035c0,0-0.174-2.873,0.684-5.317     c1.439-4.107,5.949-7.908,5.949-7.908c1.441-1.216,2.725-3.265,2.852-4.555c0.126-1.29-0.734-4.024-0.767-4.5     c0,0,0,0-1.368-0.516c-0.709-0.295-0.709-0.295-0.709-0.295c-0.135,0.162-1.682-0.264-3.439-0.947l-5.348-1.904     c-1.062-1.558-1.496-3.941-0.965-5.298s2.266-6.092,3.307-6.994c1.042-0.901,6.686-1.844,6.693-2.168     c0.01-0.323-0.771-2.473-0.529-2.841c0.242-0.368,1.801-2.153,1.627-3.354c-0.172-1.202-0.647-6.176-0.078-7.398     c0.569-1.224,4.16-3.68,3.524-4.148c-0.636-0.47-2.944-1.397-2.717-1.898s2.435-1.021,3.006-0.57     c0.571,0.449,2.22,1.424,2.711,1.354s2.528-0.781,2.638-1.331c0.107-0.549-0.311-2.259-0.45-2.865     c-0.14-0.607-1.329-2.481-2.098-2.366s-2.519,1.17-2.649,1.17s-0.139,0.065-0.018,0.145s1.053,0.472,0.863,0.661     c-0.189,0.19-1.351,1.112-1.676,1.209c-0.326,0.096-0.254-1.095-0.123-1.095s-0.404-0.207-1.19-0.46     c-0.785-0.253-3.218-2.332-3.659-4.059c-0.441-1.728-1.539-6.546-1.49-6.577c0.048-0.031,1.811-0.265,3.549,0.467     c0,0,5.384,2.268,10.648,0.51c1.588-0.53,1.956-0.789,1.956-0.789c1.543-1.083,2.901-2.344,3.019-2.802s0.456-1.784,0.109-2.171     c-0.348-0.387-1.021-3.514-0.713-5.293c0.311-1.779,1.088-5.59,0.774-5.696c-0.312-0.105-1.817-0.678-1.823-1.181     s-0.357-2.306-0.227-2.306s0.431,0.132,0.667,0.293c0.235,0.161,3.016,0.534,4.897,0.42l0.774-0.046     c1.882-0.114,4.92-0.578,6.75-1.031c0,0,12.677-3.141,18.101-6.995c2.191-1.558,1.212-3.67,2.856-5.979     c1.759-2.472,2.743-8.12,2.743-8.12c0.324-1.858,0.518-3.447,0.431-3.531s-0.316-0.203-0.316-0.076     c0,0.126-0.634-0.075-1.408-0.447s-2.813-2.616-2.735-3.268s0.175-3.106-1.184-4.414l-4.771-5.225     c-1.779-0.625-3.1-1.547-2.934-2.05s1.295-1.628,2.08-0.8c0.787,0.829,2.762,1.645,3.809,1.561     c1.048-0.084,5.109,0.525,6.697,1.542c0,0,1.324,0.848,2.827,1.371c2.409,0.839,3.464-1.19,4.762-1.38     c0.896-0.132,2.274,0.772,2.856,0.92c2.678,0.676,7.277-0.888,9.048-2.3c2.375-1.896,2.681-4.563,4.285-7.359     c1.665-2.902,4.591-5.528,4.591-5.528c1.403-1.26,2.766-3.118,3.027-4.131c0.263-1.012,2.197-4.59,3.72-5.702     c0,0,5.325-3.895,8.186-7.636c3.455-4.52,6.416-12.428,6.416-12.428c0.661-1.766,1.916-4.039,2.79-5.051     c0.873-1.011,3.674-3.956,4.285-4.293s2.318-2.767,2.438-4.648l0.343-12.973c-0.307-1.86-0.027-4.633,0.622-6.16     c0.649-1.526,1.521-5.502,1.914-5.502c0.394,0,0.715,0.311,0.715,0.689c0,0.38,0.69-0.689,1.535-2.375     c0,0,0.476-0.95,2.273-2.454c1.203-1.005,2.924-0.959,4.286-1.839c1.319-0.854,2.057-2.836,3.333-3.681     c1.494-0.987,1.494-0.987,1.494-0.987c1.797-0.216,3.625-0.737,4.062-1.159s2.256-1.362,3.074-1.153     c0.818,0.208,2.537,0.081,2.799,0.081s0.476-0.414,0.476-0.921c0-0.506,0.83-1.315,1.846-1.799     c1.016-0.482,4.803-1.672,4.78-1.979s-0.911-1.384-0.911-1.51c0-0.127,0.818-0.281,1.819-0.342     c1.001-0.062,2.886-0.326,3.399-0.298c0.515,0.028-0.052,0.478-0.14,0.562c-0.088,0.084,1.201,0.033,3.057-0.301l9.387,0.132     c1.886,0.009,3.524-0.27,3.641-0.617c0.116-0.349,1.55-1.346,1.376-1.515c-0.175-0.169,0.63-1.343,2.176-2.235     s5.312-5.822,5.344-7.612c0.033-1.79,2.416-6.357,3.115-6.863c0.698-0.505,2.957-3.325,3.469-5.14c0,0,0.433-1.533,1.927-3.599     c0.682-0.941,2.388-1.09,2.857-2.299c1.24-3.199-0.731-7.782,0.477-10.58c0.892-2.068,4.241-3.15,4.762-5.059     c0.533-1.958-0.701-5.285,0-7.82c0.602-2.18,2.636-5.853,2.856-7.819c0.285-2.54-2.5-7.786-1.905-11.039     c0.209-1.137,0.592-2.655,0.592-2.655c0.461-1.828,0.623-3.393,0.361-3.478c-0.262-0.084-0.386-1.742,0.307-3.495l0.454-3.697     c0.629-1.778,1.358-3.164,1.62-3.079c0.262,0.084,1.028,0.568,1.12,0.888c0.093,0.32,0.134,1.697,0.504,1.672     c0.369-0.025,1.951-1.78,2.828-3.449c0,0,5.071-9.65,9.833-14.444c1.538-1.547,3.79-1.487,5.714-2.759     c0.689-0.457,0.689-0.457,0.689-0.457c0.145-1.014,0.62-2.05,1.057-2.303s2.181-1.821,2.906-2.922s3.181-4.046,3.442-4.13     s1.164-1.835,1.423-3.703L635.832,161.928z M256.218,71.735c0,0.253-0.107,0.46-0.238,0.46s-0.238-0.207-0.238-0.46     s0.107-0.46,0.238-0.46S256.218,71.482,256.218,71.735z M275.265,45.519c-0.261,0-0.404-0.207-0.317-0.46     s0.385-0.824,0.467-0.708S275.526,45.519,275.265,45.519z M303.236,55.12c-1.504,0.538-2.734,0.46-2.734-0.171     c0-0.632-0.453-1.448-1.005-1.812s-1.794-2.585-1.141-3.741c0.653-1.156,3.057-4.056,4.17-3.15     c1.113,0.906,2.846,3.413,2.977,3.413S304.741,54.582,303.236,55.12z M316.216,34.02c0,0.253-0.207,0.435-0.459,0.403     c-0.252-0.032-1.075-0.423-1.204-0.448c-0.128-0.025-0.613-0.435-0.485-0.46s0.824-0.395,0.952-0.37s0.827,0.415,0.958,0.415     S316.216,33.767,316.216,34.02z M368.118,36.32h1.429C368.727,36.728,368.937,36.725,368.118,36.32z M382.879,568.942     c0,0.253-0.428,0.46-0.952,0.46s-0.952,0.311-0.952,0.689s-0.214,0.689-0.476,0.689c-0.262,0-0.405-0.345-0.318-0.767     s0.542-1.437,0.817-1.318s1.512-0.215,1.644-0.215C382.772,568.481,382.879,568.688,382.879,568.942z M383.991,575.534     c-0.087-0.084,0.283-0.314,0.823-0.512c0.54-0.198,2.887-1.481,3.542-1.481s1.19,0.104,1.19,0.229     c0,0.127-0.85,0.522-1.889,0.879C386.618,575.007,384.079,575.618,383.991,575.534z M392.106,576.59     c-0.099,0.347-0.68,0.907-1.291,1.244c-0.611,0.337-2.268,1.355-2.324,1.513c-0.057,0.157-0.957-0.286-1.088-0.286     c-0.131,0,0.469-0.548,1.333-1.218c0.864-0.671,2.786-2.853,2.873-2.769S392.206,576.243,392.106,576.59z M408.052,592.777     c0.036,0.045,0.173,0.081,0.304,0.081s0.238,0.207,0.238,0.461c0,0.253-0.215,0.46-0.477,0.46s-0.548-0.207-0.635-0.46     C407.395,593.065,408.016,592.732,408.052,592.777z M399.336,572.935c-0.146,0.08-0.27,0.173-0.273,0.204     s-0.684-0.058-0.945-0.058s-0.365-0.231-0.229-0.514c0.136-0.283,0.919-1.257,1.181-1.172     C399.331,571.479,399.482,572.854,399.336,572.935z M503.827,381.281c-0.197,0.343,0.683,1.854,0,2.761     c-1.328,1.764-3.438,2.521-3.438,2.521c-1.775,0.638-3.335,1.158-3.466,1.158s0.823-1.12,2.12-2.489l3.714-8.249     c0.851-1.683,1.671-2.996,1.823-2.919c0.151,0.077,0.959,1.163,1.305,1.07c0.346-0.094,1.384-0.75,1.514-0.75     c0.131,0-0.492,1.359-1.385,3.02C506.014,377.403,505.368,378.604,503.827,381.281z M508.589,374.384     c0,0.253-0.107,0.46-0.237,0.46c-0.131,0-0.238-0.207-0.238-0.46c0-0.254,0.107-0.461,0.238-0.461     C508.481,373.923,508.589,374.13,508.589,374.384z M562.873,311.139c0,0.127-0.174,0.295-0.385,0.372     c-0.212,0.078-0.426-0.992-0.251-0.907C562.412,310.688,562.873,311.013,562.873,311.139z M568.11,309.529     c0,0.254-0.107,0.461-0.237,0.461c-0.131,0-0.238-0.207-0.238-0.461c0-0.252,0.107-0.459,0.238-0.459     C568.003,309.07,568.11,309.277,568.11,309.529z"/></g></g></g></svg>